<svg width="48" height="48" viewBox="0 0 48 48" fill="none" xmlns="http://www.w3.org/2000/svg">
<circle cx="24" cy="24" r="24" fill="black"/>
<path d="M23.849 8.91928C26.501 8.91928 29.1573 9.67207 31.5306 11.0964C33.0359 12.0021 34.3885 13.1404 35.5376 14.4696L31.5728 14.3388C31.1071 14.3232 30.7172 14.6884 30.7019 15.1543C30.6866 15.62 31.0515 16.0102 31.5174 16.0252L37.0031 16.2064C37.3182 16.3361 37.6805 16.2636 37.9215 16.0223C38.1622 15.7811 38.2342 15.4188 38.1039 15.1037L37.9233 9.61933C37.9128 9.15342 37.5265 8.78428 37.0606 8.79457C36.5949 8.80511 36.2253 9.19139 36.2358 9.65704C36.2358 9.66336 36.2358 9.66917 36.2363 9.67523L36.3408 12.8393C35.1801 11.599 33.8535 10.525 32.3989 9.64886C29.7635 8.06762 26.8069 7.23178 23.849 7.23178C19.124 7.23178 14.7676 9.18005 11.5841 12.7175C8.76383 15.8512 7.08002 20.0692 7.08002 24.0008C7.08002 24.4667 7.4576 24.8445 7.92377 24.8445C8.38994 24.8445 8.76752 24.4667 8.76752 24.0008C8.76752 20.4747 10.2892 16.6786 12.8384 13.8465C15.6981 10.6695 19.6081 8.91928 23.849 8.91928Z" fill="white"/>
<path d="M39.9863 23.157C39.5201 23.157 39.1425 23.5346 39.1425 24.0008C39.1425 27.5266 37.6209 31.323 35.0717 34.1553C32.2119 37.3323 28.3019 39.082 24.061 39.082C21.409 39.082 18.7528 38.3298 16.3795 36.9054C14.8742 35.9994 13.5215 34.8612 12.3724 33.5323L16.3373 33.663C16.8029 33.6781 17.1929 33.3129 17.2082 32.8472C17.2235 32.3816 16.8586 31.9916 16.3926 31.9761L10.907 31.7952C10.5919 31.6655 10.2296 31.7382 9.98858 31.9792C9.74785 32.2205 9.67587 32.5825 9.80612 32.8976L9.98674 38.382C9.99728 38.8481 10.3836 39.2175 10.8495 39.207C11.3151 39.1967 11.6848 38.8104 11.6742 38.3445C11.6742 38.3385 11.6742 38.3327 11.6737 38.3263L11.5693 35.1623C12.73 36.4029 14.0565 37.4763 15.5112 38.353C18.1466 39.9345 21.1031 40.77 24.061 40.77C28.786 40.77 33.1424 38.822 36.326 35.2846C39.1462 32.1506 40.83 27.9327 40.83 24.0008C40.83 23.5346 40.4525 23.157 39.9863 23.157Z" fill="white"/>
</svg>
