<svg width="48" height="48" viewBox="0 0 48 48" fill="none" xmlns="http://www.w3.org/2000/svg">
<circle cx="24" cy="24" r="24" fill="black"/>
<g clip-path="url(#clip0)">
<path d="M41.7597 23.3284C38.4877 19.342 31.5604 14.6899 23.9999 14.6899C16.4123 14.6899 9.48465 19.3736 6.24006 23.3284C5.91973 23.7188 5.91973 24.2812 6.24006 24.6716C9.58962 28.7544 16.5332 33.3102 23.9999 33.3102C31.7319 33.3102 38.6297 28.485 41.7597 24.6717C42.08 24.2812 42.08 23.7188 41.7597 23.3284ZM31.1923 24C31.1923 27.9659 27.9658 31.1925 23.9998 31.1925C20.0337 31.1925 16.8073 27.9657 16.8073 24C16.8073 20.0341 20.0338 16.8075 23.9998 16.8075C27.9661 16.8076 31.1923 20.0345 31.1923 24ZM8.48894 24.0003C9.68068 22.7617 12.5542 20.0886 16.588 18.3729C14.0565 21.6992 14.0555 26.2981 16.5868 29.6255C13.5198 28.3257 10.6707 26.272 8.48894 24.0003ZM31.4118 29.6271C33.9432 26.3008 33.9441 21.7019 31.413 18.3745C34.4798 19.6744 37.329 21.7281 39.5108 23.9997C38.319 25.2384 35.4455 27.9114 31.4118 29.6271Z" fill="white"/>
<path d="M20.4 24C20.4 25.9851 22.0149 27.6 24 27.6C25.985 27.6 27.6 25.9851 27.6 24C27.6 22.0149 25.985 20.4 24 20.4C22.0149 20.4 20.4 22.0149 20.4 24ZM25.4823 24C25.4823 24.8174 24.8173 25.4824 24 25.4824C23.1826 25.4824 22.5176 24.8174 22.5176 24C22.5176 23.1826 23.1826 22.5176 24 22.5176C24.8173 22.5176 25.4823 23.1826 25.4823 24Z" fill="white"/>
<path d="M24 10.5882C24.5847 10.5882 25.0588 10.1142 25.0588 9.52941V7.05882C25.0588 6.47406 24.5847 5.99999 24 5.99999C23.4152 5.99999 22.9412 6.47406 22.9412 7.05882V9.52941C22.9412 10.1142 23.4152 10.5882 24 10.5882Z" fill="white"/>
<path d="M30.3176 12.0044C30.8253 12.2939 31.4721 12.1174 31.762 11.6092L33.171 9.13856C33.4607 8.63061 33.2839 7.98402 32.7759 7.69426C32.2678 7.40456 31.6213 7.58139 31.3316 8.08948L29.9225 10.5601C29.6328 11.068 29.8097 11.7146 30.3176 12.0044Z" fill="white"/>
<path d="M16.2381 11.6092C16.5278 12.1171 17.1743 12.294 17.6824 12.0043C18.1903 11.7146 18.3672 11.068 18.0775 10.56L16.6684 8.08941C16.3787 7.58146 15.732 7.40457 15.2241 7.69426C14.7162 7.98395 14.5393 8.63061 14.829 9.13857L16.2381 11.6092Z" fill="white"/>
<path d="M24 37.4118C23.4152 37.4118 22.9412 37.8858 22.9412 38.4706V40.9412C22.9412 41.5259 23.4152 42 24 42C24.5847 42 25.0588 41.5259 25.0588 40.9412V38.4706C25.0588 37.8858 24.5847 37.4118 24 37.4118Z" fill="white"/>
<path d="M17.6824 35.9957C17.1744 35.7061 16.5278 35.8829 16.2381 36.3908L14.829 38.8614C14.5393 39.3694 14.7162 40.0161 15.2241 40.3058C15.7322 40.5954 16.3787 40.4185 16.6684 39.9106L18.0775 37.44C18.3673 36.932 18.1903 36.2854 17.6824 35.9957Z" fill="white"/>
<path d="M31.7619 36.3909C31.4723 35.8828 30.8255 35.7061 30.3176 35.9956C29.8097 36.2853 29.6328 36.932 29.9225 37.4399L31.3316 39.9105C31.6212 40.4185 32.2678 40.5954 32.7759 40.3057C33.2838 40.016 33.4607 39.3694 33.171 38.8614L31.7619 36.3909Z" fill="white"/>
</g>
<defs>
<clipPath id="clip0">
<rect width="36" height="36" fill="white" transform="translate(6 6)"/>
</clipPath>
</defs>
</svg>
