<svg width="48" height="48" viewBox="0 0 48 48" fill="none" xmlns="http://www.w3.org/2000/svg">
<circle cx="24" cy="24" r="24" fill="black"/>
<g clip-path="url(#clip0)">
<path d="M38.7933 13.4164C33.8402 12.0592 28.8579 9.94598 24.3851 7.30519C24.1476 7.16491 23.8527 7.16491 23.6152 7.30519C19.0134 10.0218 14.3004 12.0208 9.2066 13.4164C8.87754 13.5065 8.64944 13.8056 8.64944 14.1468V21.8844C8.64944 29.8524 12.3253 35.1267 15.4091 38.1481C18.7289 41.4011 22.5961 43.2 24.0002 43.2C25.4041 43.2 29.2713 41.4011 32.5912 38.1481C35.6748 35.1267 39.3505 29.8525 39.3505 21.8844V14.1467C39.3505 13.8056 39.1224 13.5065 38.7933 13.4164ZM37.836 21.8843C37.836 29.3264 34.4075 34.2479 31.5311 37.0662C28.2665 40.265 24.7759 41.6853 24.0002 41.6853C23.2244 41.6853 19.7337 40.265 16.469 37.0662C13.5927 34.2478 10.164 29.3264 10.164 21.8843V14.7216C15.0351 13.3386 19.5716 11.4084 24.0003 8.83476C28.3185 11.3401 33.0812 13.3663 37.836 14.7213V21.8843Z" fill="white"/>
<path d="M17.2878 14.6369C17.1345 14.2477 16.6949 14.0565 16.3056 14.2099C14.9528 14.7429 13.5643 15.2335 12.1786 15.6682C11.8629 15.7673 11.648 16.0598 11.648 16.3907V19.3151C11.648 19.7333 11.9871 20.0724 12.4052 20.0724C12.8234 20.0724 13.1625 19.7333 13.1625 19.3151V16.9442C14.4056 16.542 15.6473 16.0971 16.8608 15.6189C17.25 15.4657 17.4412 15.026 17.2878 14.6369Z" fill="white"/>
<path d="M18.7263 14.7805C18.8279 14.7805 18.9311 14.7601 19.03 14.7169L19.0439 14.7108C19.4271 14.5429 19.5996 14.0969 19.4317 13.7139C19.2637 13.3308 18.8151 13.1575 18.4324 13.3253L18.4202 13.3305C18.0369 13.4979 17.8637 13.9436 18.0312 14.3268C18.1554 14.6113 18.4342 14.7805 18.7263 14.7805Z" fill="white"/>
<path d="M33.0226 31.6183C32.6727 31.3896 32.2034 31.4879 31.9744 31.838C31.3504 32.7931 30.6183 33.7078 29.7981 34.5562C29.1237 35.2539 28.3929 35.9041 27.626 36.4888C27.2935 36.7423 27.2295 37.2175 27.483 37.5501C27.6321 37.7455 27.8576 37.8483 28.0857 37.8483C28.2459 37.8483 28.4072 37.7978 28.5443 37.6931C29.3716 37.0624 30.1598 36.3611 30.8869 35.6089C31.7736 34.6918 32.5661 33.7018 33.2423 32.6664C33.4712 32.3163 33.3727 31.847 33.0226 31.6183Z" fill="white"/>
<path d="M25.8673 37.6764L25.8239 37.702C25.462 37.9116 25.3383 38.3748 25.5479 38.7367C25.6883 38.9793 25.9424 39.1147 26.2039 39.1147C26.3326 39.1147 26.4632 39.0819 26.5826 39.0126L26.6327 38.9832C26.9936 38.7718 27.1148 38.3079 26.9035 37.947C26.692 37.5863 26.228 37.4653 25.8673 37.6764Z" fill="white"/>
<path d="M18.8383 23.6544C18.3733 23.1894 17.7549 22.9334 17.0972 22.9334C16.4395 22.9334 15.821 23.1895 15.3558 23.6544C14.3959 24.6146 14.3959 26.177 15.3558 27.1371L19.8274 31.6085C20.2925 32.0734 20.9109 32.3294 21.5686 32.3294C22.2264 32.3294 22.8448 32.0734 23.3099 31.6084L32.6447 22.2736C33.6046 21.3132 33.6046 19.751 32.6445 18.7912C32.1795 18.3262 31.5611 18.0702 30.9032 18.0702C30.2455 18.0702 29.6271 18.3262 29.162 18.7912L21.5686 26.3846L18.8383 23.6544ZM30.233 19.8622C30.4119 19.6833 30.6501 19.5848 30.9033 19.5848C31.1567 19.5848 31.3947 19.6833 31.5737 19.8622C31.9432 20.2317 31.9432 20.8331 31.5736 21.2028L22.239 30.5374C22.0601 30.7164 21.8219 30.8149 21.5686 30.8149C21.3154 30.8149 21.0772 30.7164 20.8982 30.5374L16.4268 26.0661C16.0571 25.6965 16.0571 25.0951 16.4266 24.7256C16.6056 24.5466 16.8438 24.448 17.0971 24.448C17.3505 24.448 17.5885 24.5465 17.7674 24.7254L21.0331 27.9912C21.1752 28.1331 21.3677 28.2129 21.5686 28.2129C21.7695 28.2129 21.962 28.1332 22.1039 27.9912L30.233 19.8622Z" fill="white"/>
</g>
<defs>
<clipPath id="clip0">
<rect width="36" height="36" fill="white" transform="translate(6 7.2)"/>
</clipPath>
</defs>
</svg>
