<svg width="48" height="48" viewBox="0 0 48 48" fill="none" xmlns="http://www.w3.org/2000/svg">
<circle cx="24" cy="24" r="24" fill="black"/>
<g clip-path="url(#clip0)">
<path d="M17.1242 26.5555H15.8881V27.7967H17.1242V26.5555Z" fill="white"/>
<path d="M14.6521 25.3142H13.416V26.5554H14.6521V25.3142Z" fill="white"/>
<path d="M12.798 27.1761H11.5619V28.4173H12.798V27.1761Z" fill="white"/>
<path d="M29.4848 20.9698H28.2488V22.2111H29.4848V20.9698Z" fill="white"/>
<path d="M31.957 22.2111H30.7209V23.4523H31.957V22.2111Z" fill="white"/>
<path d="M33.8111 20.3492H32.575V21.5905H33.8111V20.3492Z" fill="white"/>
<path d="M27.1672 32.7616H25.9312V34.0029H27.1672V32.7616Z" fill="white"/>
<path d="M29.6394 31.5204H28.4033V32.7616H29.6394V31.5204Z" fill="white"/>
<path d="M32.1115 26.5555H30.8754V27.7967H32.1115V26.5555Z" fill="white"/>
<path d="M26.5492 25.9348H25.3131V27.1761H26.5492V25.9348Z" fill="white"/>
<path d="M20.2144 33.3823H18.9783V34.6235H20.2144V33.3823Z" fill="white"/>
<path d="M17.1242 32.141H15.8881V33.3823H17.1242V32.141Z" fill="white"/>
<path d="M14.034 34.0029H12.798V35.2441H14.034V34.0029Z" fill="white"/>
<path d="M27.4762 15.3843C28.6709 15.3843 29.6393 14.4118 29.6393 13.2121C29.6393 12.0125 28.6709 11.0399 27.4762 11.0399C26.2816 11.0399 25.3131 12.0125 25.3131 13.2121C25.3131 14.4118 26.2816 15.3843 27.4762 15.3843ZM27.4762 12.2812C27.9882 12.2812 28.4033 12.698 28.4033 13.2121C28.4033 13.7262 27.9882 14.143 27.4762 14.143C26.9643 14.143 26.5492 13.7262 26.5492 13.2121C26.5492 12.698 26.9643 12.2812 27.4762 12.2812Z" fill="white"/>
<path d="M33.9656 12.2812C35.6722 12.2812 37.0557 10.8919 37.0557 9.17811C37.0537 7.4652 35.6714 6.07703 33.9656 6.07501C32.259 6.07501 30.8754 7.46435 30.8754 9.17811C30.8754 10.8919 32.259 12.2812 33.9656 12.2812ZM33.9656 7.31625C34.9896 7.31625 35.8197 8.14982 35.8197 9.17811C35.8197 10.2064 34.9896 11.04 33.9656 11.04C32.9416 11.04 32.1115 10.2064 32.1115 9.17811C32.1115 8.14982 32.9416 7.31625 33.9656 7.31625Z" fill="white"/>
<path d="M38.9098 30.8998C38.8567 30.8998 38.8066 30.9129 38.7541 30.9153V24.9183V24.1971C38.7536 20.701 35.9308 17.8672 32.4492 17.8677C32.1886 17.8677 31.9282 17.884 31.6696 17.9165L23.9337 18.8877C23.5158 18.9399 23.0932 18.9399 22.6754 18.8877L20.8157 18.6544C20.8188 18.5979 20.8324 18.5445 20.8324 18.4874C20.8468 16.7881 19.4865 15.3988 17.7943 15.3843C17.6402 15.383 17.4862 15.3934 17.3337 15.4154C16.345 13.2371 13.785 12.2762 11.6159 13.2691C9.85791 14.0737 8.8465 15.9536 9.13984 17.8712C9.12068 17.8712 9.10646 17.8668 9.08978 17.8668C7.38316 17.867 5.99977 19.2565 6 20.9703C6.00015 22.2139 6.73971 23.3373 7.87905 23.8248C7.87163 23.9489 7.85371 24.073 7.85371 24.1971V31.2592C7.85371 34.7553 10.6761 37.5895 14.1576 37.5895C14.4188 37.5894 14.6796 37.5733 14.9388 37.5411L22.6754 36.5698C23.0928 36.5177 23.515 36.5177 23.9324 36.5698L27.2167 36.9819C27.4223 38.6162 28.9085 39.7736 30.5359 39.5671C30.5795 39.5616 30.6231 39.5551 30.6665 39.5475C31.6622 41.7241 34.2265 42.6779 36.3939 41.678C37.9306 40.9691 38.9139 39.4248 38.9098 37.7266C38.9064 37.5169 38.8881 37.3076 38.8548 37.1004C38.8734 37.1004 38.8907 37.106 38.9098 37.106C40.6165 37.106 42 35.7167 42 34.0029C42 32.2892 40.6165 30.8998 38.9098 30.8998ZM20.1056 20.4731C20.2592 20.2868 20.3906 20.083 20.4968 19.8658V19.8652L22.5221 20.119C23.0416 20.1848 23.5674 20.1848 24.087 20.119L31.8229 19.1478C34.6001 18.7992 37.133 20.7774 37.4801 23.5664C37.5061 23.7757 37.5192 23.9863 37.5192 24.1971V24.9152C37.5214 27.7258 35.2541 30.0061 32.4553 30.0081C32.2438 30.0083 32.0326 29.9952 31.8229 29.9689L24.087 28.9945C23.5673 28.9294 23.0417 28.9294 22.5221 28.9945L14.7862 29.9689C12.0089 30.3174 9.47605 28.3392 9.12887 25.5502C9.10268 25.3398 9.08962 25.1279 9.08978 24.9158V24.1971C9.08978 24.1555 9.09719 24.1133 9.09843 24.073C10.6332 24.0639 11.928 22.9237 12.1373 21.3969C13.3666 21.7797 14.702 21.5908 15.7781 20.8818C17.0855 21.969 19.0229 21.786 20.1056 20.4731ZM17.7422 17.2462C17.7407 17.0397 17.7244 16.8335 17.6934 16.6293C17.7101 16.6293 17.7255 16.6256 17.7422 16.6256C18.7662 16.6256 19.5963 17.4591 19.5963 18.4874C19.5963 19.5157 18.7662 20.3493 17.7422 20.3493C17.381 20.3467 17.0286 20.237 16.7293 20.034C17.384 19.2539 17.7428 18.2664 17.7422 17.2462ZM13.416 14.1431C15.1226 14.1431 16.5062 15.5324 16.5062 17.2462C16.5062 18.96 15.1226 20.3493 13.416 20.3493C11.7094 20.3493 10.3258 18.96 10.3258 17.2462C10.3279 15.5333 11.7102 14.1452 13.416 14.1431ZM7.23568 20.9699C7.23568 19.9416 8.06577 19.108 9.08978 19.108C9.24297 19.1099 9.39532 19.1307 9.54341 19.1701C9.87259 19.8358 10.3652 20.4063 10.9748 20.8278C10.9588 20.8737 10.9484 20.9214 10.9439 20.9699C10.9439 21.9982 10.1138 22.8318 9.08978 22.8318C8.06577 22.8318 7.23568 21.9982 7.23568 20.9699ZM27.9033 34.4818C27.5986 34.8459 27.3821 35.2759 27.2711 35.7382L27.2686 35.7407L24.0863 35.341C23.5671 35.2758 23.0419 35.2758 22.5227 35.341L14.7862 36.3085C12.0089 36.6571 9.47605 34.6789 9.12887 31.8899C9.10283 31.6806 9.08978 31.47 9.08978 31.2592V28.6799C10.4427 30.5197 12.6797 31.4823 14.9395 31.1971L22.6754 30.2264C23.0932 30.1743 23.5158 30.1743 23.9337 30.2264L31.6696 31.1971C33.9293 31.4823 36.1663 30.5197 37.5193 28.6799V30.5417V31.2492C36.6156 31.7099 35.9957 32.5877 35.8617 33.5964C34.6299 33.2299 33.3004 33.4159 32.2153 34.1066C30.9214 33.0145 28.9909 33.1825 27.9033 34.4818ZM30.2574 38.3473C29.2334 38.3473 28.4033 37.5137 28.4033 36.4854C28.4033 35.4571 29.2334 34.6235 30.2574 34.6235C31.2814 34.6235 32.1115 35.4571 32.1115 36.4854C32.1115 37.5137 31.2814 38.3473 30.2574 38.3473ZM35.5898 40.666C35.2658 40.7764 34.9258 40.8318 34.5837 40.8297C33.4236 40.8303 32.3613 40.1774 31.8341 39.1398C32.7693 38.5848 33.3444 37.5763 33.3476 36.4854C33.3443 35.9918 33.2222 35.5064 32.9916 35.0704C33.9117 34.5361 35.0369 34.4993 35.9897 34.9723C36.2441 35.7436 36.7905 36.3834 37.5107 36.7535C38.0561 38.3666 37.1961 40.1183 35.5898 40.666ZM38.9098 35.8648C37.8858 35.8648 37.0557 35.0312 37.0557 34.0029C37.0557 32.9746 37.8858 32.1411 38.9098 32.1411C39.9338 32.1411 40.7639 32.9746 40.7639 34.0029C40.7639 35.0312 39.9338 35.8648 38.9098 35.8648Z" fill="white"/>
</g>
<defs>
<clipPath id="clip0">
<rect width="36" height="36" fill="white" transform="translate(6 6)"/>
</clipPath>
</defs>
</svg>
