<svg width="48" height="48" viewBox="0 0 48 48" fill="none" xmlns="http://www.w3.org/2000/svg">
<circle cx="24" cy="24" r="24" fill="black"/>
<path d="M33.6 6H14.4C13.4076 6 12.6 6.80761 12.6 7.8C12.6 8.79239 13.4076 9.6 14.4 9.6H33.6C34.5924 9.6 35.4 8.79239 35.4 7.8C35.4 6.80761 34.5923 6 33.6 6ZM33.6 8.39998H14.4C14.0694 8.39998 13.8 8.13117 13.8 7.8C13.8 7.46883 14.0694 7.20002 14.4 7.20002H33.6C33.9306 7.20002 34.2 7.46883 34.2 7.8C34.2 8.13117 33.9306 8.39998 33.6 8.39998Z" fill="white"/>
<path d="M33.6 38.4H14.4C13.4076 38.4 12.6 39.2076 12.6 40.2C12.6 41.1924 13.4076 42 14.4 42H33.6C34.5924 42 35.4 41.1924 35.4 40.2C35.4 39.2076 34.5923 38.4 33.6 38.4ZM33.6 40.8H14.4C14.0694 40.8 13.8 40.5312 13.8 40.2C13.8 39.8688 14.0694 39.6 14.4 39.6H33.6C33.9306 39.6 34.2 39.8688 34.2 40.2C34.2 40.5312 33.9306 40.8 33.6 40.8Z" fill="white"/>
<path d="M28.2756 21.7728C31.3224 18.726 33 14.6754 33 10.3674V9.00002C33 8.66821 32.7312 8.40004 32.4 8.40004H15.6C15.2688 8.40004 15 8.66821 15 9.00002V10.3674C15 14.676 16.6776 18.726 19.7238 21.7728L20.3268 22.3758C20.7546 22.8036 21 23.3952 21 24C21 24.6048 20.7546 25.1964 20.3274 25.6242L19.7244 26.2272C16.6776 29.274 15 33.324 15 37.6326V39C15 39.3318 15.2688 39.5999 15.6 39.5999H32.4C32.7311 39.5999 32.9999 39.3318 32.9999 39V37.6326C32.9999 33.3246 31.3223 29.274 28.2756 26.2272L27.6726 25.6242C27.2387 25.1904 27 24.6138 27 24C27 23.3862 27.2387 22.8096 27.6726 22.3758L28.2756 21.7728ZM26.8242 21.5274C26.1636 22.1874 25.8 23.0652 25.8 24C25.8 24.9348 26.1636 25.8126 26.8242 26.4726L27.4272 27.0756C30.2472 29.8956 31.8 33.645 31.8 37.6326V38.4H16.2V37.6326C16.2 33.6444 17.7528 29.8956 20.5722 27.0756L21.1752 26.4726C21.8364 25.8126 22.2 24.9342 22.2 24C22.2 23.0658 21.8364 22.1874 21.1758 21.5274L20.5728 20.9244C17.7528 18.1044 16.2 14.3549 16.2 10.3674V9.59999H31.8V10.3674C31.8 14.355 30.2473 18.1044 27.4272 20.9244L26.8242 21.5274Z" fill="white"/>
<path d="M29.0706 16.1082C29.01 15.9558 28.8036 15.6 28.2 15.6C25.0824 15.6 23.6934 14.9322 23.1426 14.5338C22.4555 14.0364 21.5742 13.9061 20.7827 14.1863C20.0274 14.4533 19.4741 15.0473 19.2659 15.8153C19.2119 16.0152 19.2023 16.1448 19.2023 16.1448C19.1933 16.263 19.2191 16.3908 19.2773 16.4946C19.8396 17.4912 20.4881 18.5423 21.4217 19.476L22.0241 20.079C22.9115 20.9652 23.3999 22.1447 23.3999 23.4C23.3999 23.7318 23.6687 23.9999 23.9999 23.9999C24.331 23.9999 24.5999 23.7318 24.5999 23.4C24.5999 22.1454 25.0882 20.9657 25.975 20.079L26.5787 19.4753C26.7269 19.3277 26.92 19.1453 27.1324 18.9462C28.6836 17.4876 29.3358 16.7778 29.0706 16.1082ZM26.3094 18.072C26.0875 18.2814 25.8846 18.4722 25.7298 18.627L25.1262 19.2306C24.66 19.6962 24.282 20.2266 23.9994 20.8014C23.7168 20.2266 23.3388 19.6962 22.8726 19.2306L22.2701 18.6276C21.5333 17.8903 20.9939 17.0784 20.4329 16.0998C20.5811 15.5989 20.9651 15.3948 21.1829 15.3174C21.6017 15.1692 22.0716 15.2394 22.4387 15.5058C23.2031 16.059 24.7103 16.7112 27.5976 16.7916C27.2268 17.2092 26.6448 17.757 26.3094 18.072Z" fill="white"/>
<path d="M30.5586 36.5532C30.408 34.608 29.628 33.8004 28.7256 32.8644C28.6038 32.7377 28.4766 32.6064 28.3464 32.4672C27.5928 31.662 26.5284 31.2 25.425 31.2H22.5744C21.4716 31.2 20.4066 31.662 19.653 32.4672C19.5228 32.6064 19.3962 32.7372 19.2744 32.8638C18.3713 33.7998 17.5914 34.608 17.4414 36.5538C17.4282 36.7206 17.4857 36.885 17.5992 37.008C17.7131 37.1304 17.8722 37.2 18.0395 37.2H29.9603C30.1271 37.2 30.2867 37.1304 30.4007 37.0075C30.5142 36.8844 30.5712 36.7194 30.5586 36.5532ZM18.723 36C18.9264 34.9524 19.4112 34.4508 20.1384 33.6972C20.2644 33.5664 20.3951 33.4302 20.5296 33.2868C21.057 32.7228 21.8022 32.4 22.5744 32.4H25.425C26.1978 32.4 26.943 32.7234 27.4704 33.2862C27.6054 33.4314 27.7362 33.5664 27.8628 33.6978C28.5894 34.4515 29.0736 34.9531 29.2776 36H18.723Z" fill="white"/>
<path d="M23.982 25.2C23.6508 25.2 23.382 25.4682 23.382 25.8V26.4C23.382 26.7318 23.6508 27 23.982 27C24.3132 27 24.582 26.7318 24.582 26.4V25.8C24.582 25.4682 24.3132 25.2 23.982 25.2Z" fill="white"/>
<path d="M23.982 28.2C23.6508 28.2 23.382 28.4682 23.382 28.8V29.3999C23.382 29.7317 23.6508 29.9999 23.982 29.9999C24.3132 29.9999 24.582 29.7317 24.582 29.3999V28.8C24.582 28.4682 24.3132 28.2 23.982 28.2Z" fill="white"/>
</svg>
