<svg id="1af41f5b-b9de-406c-8cfd-dc1d1f7bd1b1"  data-name="Слой 1" xmlns="http://www.w3.org/2000/svg" viewBox="0 0 833.98 621.35"><defs><style>.\30 752e111-59cd-4cc2-a601-2b9ea2cd4731{fill:#fff;}</style></defs><title>lada-logo</title><path class="0752e111-59cd-4cc2-a601-2b9ea2cd4731" d="M416.79,345.3c-11,0-22,.26-33-.07-13.63-.4-27.28-.91-40.86-2.06-16.88-1.44-33.68-3.7-50.54-5.41-19.53-2-38.83-5.52-58-9.43C218.13,325,202.07,320.71,186,316.7a455.55,455.55,0,0,1-50.77-16.37c-25-9.45-49-20.77-71.37-35.52C51,256.35,38.94,246.92,28.43,235.64S9.31,212.15,4.32,197.54a73.35,73.35,0,0,1,2.37-55.43c5.61-13,14-24.06,23.91-34.14,20.49-20.87,45-35.71,71.12-48.22,24.5-11.74,50-20.89,76.1-28.42C197,25.81,216.31,20.88,235.9,17.16c14.84-2.83,29.77-5.2,44.7-7.51,11.31-1.76,22.69-3.2,34-4.62,5.11-.64,10.27-.92,15.41-1.27C341.34,3,352.62,2.2,363.91,1.55c7.63-.44,15.28-.8,22.92-.94C404.31.3,421.78-.08,439.26,0c9.79,0,19.57,1,29.36,1.51,6.14.34,12.29.62,18.42,1.1,11.59.92,23.18,2,34.77,3C542,7.26,562.08,10.4,582,14c18.79,3.38,37.42,7.78,56,12.36,12.72,3.14,25.19,7.33,37.75,11.12A391.54,391.54,0,0,1,735,61c26.29,12.9,51.06,28.1,71.27,49.74,9.74,10.42,17.77,22,22.75,35.5a74,74,0,0,1,4.49,34.34,80.5,80.5,0,0,1-9,28.87A111.48,111.48,0,0,1,806.28,235a232.67,232.67,0,0,1-19.09,17.52c-13.68,11.25-28.84,20.3-44.54,28.4a460.92,460.92,0,0,1-72.49,29.43,687.63,687.63,0,0,1-79.25,19.82c-17.13,3.25-34.42,5.69-51.69,8.13-10.35,1.46-20.82,2.14-31.22,3.32-16.71,1.89-33.49,2.6-50.28,3.13L416.8,346Zm-142.23-114v.17c-7.83,0-15.66.12-23.49,0-8.15-.17-16.29-.57-24.43-1-4.39-.22-6.09-2.88-4.67-7.13a47.54,47.54,0,0,1,1.93-4.6q13.4-29.3,26.8-58.56Q269,120.25,287.37,80.33c3.19-7,6.4-13.91,9.55-20.89,1.74-3.86,1.43-5-1.81-7.75-1.66-1.39-3.39-2.71-4.94-4.21a7.89,7.89,0,0,0-7.72-2.14c-15.61,3.2-31.3,6-46.73,10.07C214.8,61,194.15,67.25,174.14,75.54c-23,9.53-45,20.81-64.24,36.9-9.76,8.16-18.55,17.24-25,28.33-8.64,14.86-11.72,30.63-7.25,47.49a74.16,74.16,0,0,0,13.9,26.86c10.53,13.38,23.68,23.79,37.95,32.85a284.15,284.15,0,0,0,37.57,19.64c7.59,3.37,15.38,6.32,23.16,9.22,4.89,1.82,6.52,1,8.75-3.55,2.32-4.79,4.48-9.66,6.78-14.46,1.74-3.63,4.48-5.69,8.73-5.31,2.49.22,5,.18,7.48.44,7.77.8,15.51,1.85,23.29,2.51q14.65,1.25,29.36,2c15.6.8,31.22,1.78,46.84,2,19.8.24,39.6.55,59.42-.44,16.44-.82,32.87-1.39,49.27-3.07,15.52-1.59,30.06-5.91,43-14.62,6-4.06,11.49-9,17-13.81a10.61,10.61,0,0,0,3.49-11.75,24.71,24.71,0,0,0-2.71-5.32c-2.14-3.56-4.41-7-6.61-10.58-3.27-5.27-3-7.06,1.85-10.93.39-.31.78-.63,1.18-.92q18.51-13.17,37-26.34a13.87,13.87,0,0,1,8.84-2.87c5.15.24,10.29.52,15.44.71,11.81.43,23.62.81,35.42,1.23,10.65.37,21.29.73,31.93,1.16,2.32.1,4.62.47,6.93.76A4.32,4.32,0,0,1,626.9,167a7.5,7.5,0,0,1-.08,3.85c-1.89,6-3.9,12-5.94,18s-4.54,7.52-11,6.5c-8.53-1.35-17.1-2.48-25.56-4.19-6.69-1.34-12.54-.23-17.83,4-1.95,1.56-4,3-5.77,4.76-3.34,3.21-3.26,5.81.32,8.78,2.43,2,5.16,3.65,7.65,5.61,6.79,5.35,13.89,10.38,20.16,16.29s8.7,13.86,7.17,22.78c-1.24,7.28-3.7,14.13-6.26,21-1.63,4.36-3.43,8.66-5,13-1,2.6-.44,3.7,2.17,4.53a11.39,11.39,0,0,0,4.35.42,37.36,37.36,0,0,0,5.36-1.14A453.25,453.25,0,0,0,646.21,276a362.18,362.18,0,0,0,36.23-15.49,251.29,251.29,0,0,0,29.25-17.18c11.6-8,22.27-16.93,30.91-28.1C751,204.4,757,192.65,758.3,178.62a59.69,59.69,0,0,0-5.2-30.57c-7.46-16.55-19.84-29-34-39.88-19.29-14.84-40.94-25.45-63.4-34.47-24.75-9.93-50.38-17-76.33-22.94a53.28,53.28,0,0,0-8.87-1.37c-2.68-.15-3.5,1.35-2.47,3.91.5,1.23,1.2,2.38,1.77,3.58a47.75,47.75,0,0,1,4.83,18.72c.48,13.48-4.69,25-12.87,35.34a140,140,0,0,1-17.63,19c-8,7-15.69,14.42-23.93,21.15a576.76,576.76,0,0,1-48.92,35.43c-15.2,10-30.81,19.18-47.69,26.06A182.64,182.64,0,0,1,382,224.31c-12,1.82-24.06,3.16-36.13,4.26-13.07,1.19-26.18,2.13-39.29,2.66C295.9,231.66,285.22,231.32,274.56,231.32ZM338.08,108.4c-.27-2.3-.38-4.64-.83-6.91-2.53-12.54-11.37-20.8-20-29.12-1.46-1.41-3-.92-4.05,1.07a65,65,0,0,0-3,6.32q-15.36,36.6-30.68,73.2c-5,12-10.09,23.92-15,35.92-.44,1.07-.61,2.86,0,3.6a4,4,0,0,0,3.52.81c8.5-2.44,16.82-5.34,24.12-10.55s13.19-11.71,18.73-18.6c10.06-12.52,18.7-25.89,24.25-41.09A49.68,49.68,0,0,0,338.08,108.4ZM477.85,33.08c.62,2.6.64,2.59,2.8,5,8.81,9.72,14,20.89,14,34.23,0,10.36-3.54,19.63-9.15,28a150.77,150.77,0,0,1-12.08,15.22,319.59,319.59,0,0,1-62.92,55.86c-18.61,12.48-38.3,22.83-59.49,30.08a206,206,0,0,1-48.72,9.93c-11.25,1-22.54,1.58-33.82,2.31-4.81.32-9.63.44-14.42.88-2.69.25-5.59.18-8.12,2.56a16,16,0,0,0,3.48,1.4,100.16,100.16,0,0,0,10.92.85c4.48,0,8.95-.53,13.43-.57,15.32-.16,30.49-2,45.65-3.93a186.27,186.27,0,0,0,47.13-12.25,258.68,258.68,0,0,0,47-25.24,355.28,355.28,0,0,0,46.72-38.11A273.2,273.2,0,0,0,488,108.66a58.82,58.82,0,0,0,12.61-34.59c.32-11.23-2.46-21.8-9.43-30.87a80.09,80.09,0,0,0-8.52-9.06C481.45,33,479.84,31.56,477.85,33.08ZM249.34,208.75c1.52.48,2.41,1,3.29,1,7.66-.06,15.35.2,23-.47,8.42-.74,16.81-2.12,25.13-3.66,10.3-1.92,20.47-4.37,30.21-8.4,15.58-6.46,29.22-16,41.66-27.11a300.83,300.83,0,0,0,38.25-41.42c5.55-7.28,11.07-14.57,15.34-22.72,4.39-8.38,7.23-17.34,7.26-26.72a44.11,44.11,0,0,0-7.33-24.55,189.81,189.81,0,0,0-11.57-15.62A79.67,79.67,0,0,0,406,30.71c-1.11-1-2.64-1.71-4,.87l4.41,6.17c4.14,5.83,8.54,11.5,12.36,17.53a44.13,44.13,0,0,1,5.7,35.44,58.86,58.86,0,0,1-9,19.42c-6.48,9.26-13.07,18.5-20.32,27.16A257.25,257.25,0,0,1,356.73,175a111.34,111.34,0,0,1-40.16,20.53,324.29,324.29,0,0,1-59.36,10.2C254.73,205.91,251.85,205.74,249.34,208.75Z"/><path class="0752e111-59cd-4cc2-a601-2b9ea2cd4731" d="M402.3,621.27v-207c1.55-.13,3-.35,4.41-.36,34.31,0,68.63-.24,103,0,21,.15,40.35,5.91,57.25,18.82a89.45,89.45,0,0,1,29.57,38.8,126,126,0,0,1,.4,91A92.17,92.17,0,0,1,542,615.76a75.35,75.35,0,0,1-22.36,4.75c-7.47.33-14.95.7-22.42.72-29.82.09-59.64,0-89.46,0Zm53.6-38.56a70.84,70.84,0,0,0,7.44.7c10.81-.1,21.61-.44,32.42-.47A52.92,52.92,0,0,0,512,580.7a54.36,54.36,0,0,0,28.67-21.34c7.05-10.14,9.73-21.81,11.05-33.76,1.29-11.69-.3-23.19-3.73-34.47a55.21,55.21,0,0,0-14.18-23.72c-11.15-10.94-24.95-15.5-40.31-15.7-10.82-.15-21.65,0-32.47,0-1.61,0-3.21.23-5.1.38Z"/><path class="0752e111-59cd-4cc2-a601-2b9ea2cd4731" d="M760.53,620.93l-13.8-38.14H654Q647.1,601.53,639.87,621H587.38L662.3,415a6.87,6.87,0,0,1,1.63-.47q35.46-.35,70.92-.64a28.2,28.2,0,0,1,3.13.31l75,206.25a11.78,11.78,0,0,1-2.78.77q-23.49.06-47,0A24.88,24.88,0,0,1,760.53,620.93Zm-28.31-76.48c-1.51-7-29.85-84.06-32.41-87.82C689,485.94,678.47,515,667.9,544.45Z"/><path class="0752e111-59cd-4cc2-a601-2b9ea2cd4731" d="M317.13,414.32c25.05,68.57,49.94,137.41,75.25,206.7h-52.5l-14.18-38.3H233.06q-7,19.08-14,38.31H166.75c4.54-14.11,9.93-27.6,14.69-41.3s10-27.49,15-41.22,10.08-27.47,15.09-41.22,10-27.49,15-41.24,10-27.45,14.94-41a10.36,10.36,0,0,1,1.85-.51q36-.36,71.91-.68A9.46,9.46,0,0,1,317.13,414.32ZM247.74,544c.57.32.85.61,1.13.61q29.44.12,58.9.19a29.66,29.66,0,0,0,3-.22c.14,0,.27-.19.38-.31a7.38,7.38,0,0,0,.46-.64l-31.65-87.07C277.39,460.26,248.53,539,247.74,544Z"/><path class="0752e111-59cd-4cc2-a601-2b9ea2cd4731" d="M21.07,414.06H73.51c.09,1.74.26,3.34.26,4.95q0,78.94,0,157.9c0,1.94.14,3.88.22,6.16h84.34v37.48c-3.4.89-130.43,1.14-137.28.23Z"/></svg>