<svg width="303" height="277" viewBox="0 0 303 277" fill="none" xmlns="http://www.w3.org/2000/svg">
<rect x="0.5" y="0.5" width="302" height="276" rx="9.5" fill="white"/>
<path d="M92.9646 205V194.76H96.9486C98.0259 194.76 98.8739 195.005 99.4926 195.496C100.122 195.976 100.437 196.643 100.437 197.496C100.437 198.019 100.319 198.472 100.085 198.856C99.8499 199.229 99.4979 199.523 99.0286 199.736C99.6046 199.939 100.037 200.248 100.325 200.664C100.613 201.069 100.757 201.571 100.757 202.168C100.757 203.053 100.442 203.747 99.8126 204.248C99.1832 204.749 98.3246 205 97.2366 205H92.9646ZM98.9966 197.608C98.9966 197.075 98.8152 196.669 98.4526 196.392C98.1006 196.115 97.5779 195.976 96.8846 195.976H94.3726V199.208H96.8846C97.5672 199.208 98.0899 199.075 98.4526 198.808C98.8152 198.531 98.9966 198.131 98.9966 197.608ZM99.3166 202.072C99.3166 201.528 99.1299 201.112 98.7566 200.824C98.3832 200.525 97.8499 200.376 97.1566 200.376H94.3726V203.784H97.1566C97.8499 203.784 98.3832 203.64 98.7566 203.352C99.1299 203.053 99.3166 202.627 99.3166 202.072ZM102.929 205V197.192H104.305V199.784H107.057C107.985 199.784 108.721 200.019 109.265 200.488C109.809 200.957 110.081 201.592 110.081 202.392C110.081 203.192 109.809 203.827 109.265 204.296C108.721 204.765 107.985 205 107.057 205H102.929ZM111.153 205V197.192H112.529V205H111.153ZM108.705 202.392C108.705 201.923 108.561 201.565 108.273 201.32C107.995 201.075 107.59 200.952 107.057 200.952H104.305V203.832H107.057C107.59 203.832 107.995 203.709 108.273 203.464C108.561 203.219 108.705 202.861 108.705 202.392ZM115.116 208.04V197.192H116.108L116.364 198.408C116.706 197.971 117.127 197.635 117.628 197.4C118.14 197.155 118.69 197.032 119.276 197.032C120.386 197.032 121.314 197.416 122.06 198.184C122.807 198.952 123.18 199.923 123.18 201.096C123.18 202.269 122.807 203.24 122.06 204.008C121.314 204.776 120.386 205.16 119.276 205.16C118.711 205.16 118.188 205.053 117.708 204.84C117.228 204.616 116.823 204.296 116.492 203.88V208.04H115.116ZM119.084 198.264C118.295 198.264 117.644 198.531 117.132 199.064C116.631 199.587 116.38 200.264 116.38 201.096C116.38 201.928 116.631 202.611 117.132 203.144C117.644 203.667 118.295 203.928 119.084 203.928C119.884 203.928 120.535 203.667 121.036 203.144C121.538 202.611 121.788 201.928 121.788 201.096C121.788 200.264 121.538 199.587 121.036 199.064C120.535 198.531 119.884 198.264 119.084 198.264ZM131.194 202.392H132.554C132.373 203.213 131.941 203.88 131.258 204.392C130.586 204.904 129.754 205.16 128.762 205.16C127.557 205.16 126.57 204.781 125.802 204.024C125.034 203.256 124.655 202.275 124.666 201.08C124.666 199.885 125.034 198.915 125.77 198.168C126.517 197.411 127.487 197.032 128.682 197.032C129.823 197.032 130.757 197.389 131.482 198.104C132.218 198.819 132.586 199.741 132.586 200.872C132.586 200.936 132.581 201.021 132.57 201.128C132.57 201.224 132.565 201.325 132.554 201.432H126.026C126.101 202.221 126.383 202.845 126.874 203.304C127.365 203.752 127.994 203.976 128.762 203.976C129.381 203.976 129.898 203.837 130.314 203.56C130.741 203.272 131.034 202.883 131.194 202.392ZM128.65 198.2C127.935 198.2 127.349 198.392 126.89 198.776C126.442 199.16 126.165 199.704 126.058 200.408H131.242C131.189 199.736 130.922 199.203 130.442 198.808C129.962 198.403 129.365 198.2 128.65 198.2ZM139.576 200.984C140.078 201.155 140.462 201.4 140.728 201.72C140.995 202.04 141.128 202.413 141.128 202.84C141.128 203.533 140.803 204.093 140.152 204.52C139.502 204.947 138.654 205.16 137.608 205.16C136.531 205.16 135.651 204.931 134.968 204.472C134.296 204.003 133.934 203.379 133.88 202.6H135.304C135.347 203.059 135.566 203.411 135.96 203.656C136.355 203.891 136.904 204.008 137.608 204.008C138.291 204.008 138.814 203.901 139.176 203.688C139.55 203.475 139.736 203.171 139.736 202.776C139.736 202.381 139.571 202.083 139.24 201.88C138.91 201.677 138.43 201.576 137.8 201.576H136.104V200.504H137.656C138.243 200.504 138.691 200.408 139 200.216C139.32 200.013 139.48 199.725 139.48 199.352C139.48 198.989 139.31 198.707 138.968 198.504C138.627 198.291 138.152 198.184 137.544 198.184C136.872 198.184 136.35 198.301 135.976 198.536C135.614 198.771 135.406 199.117 135.352 199.576H133.928C133.992 198.787 134.35 198.168 135 197.72C135.651 197.261 136.504 197.032 137.56 197.032C138.563 197.032 139.363 197.24 139.96 197.656C140.568 198.061 140.872 198.605 140.872 199.288C140.872 199.672 140.76 200.008 140.536 200.296C140.312 200.584 139.992 200.813 139.576 200.984ZM150.698 197.192V205H149.69L149.45 203.768C149.098 204.216 148.672 204.563 148.17 204.808C147.669 205.043 147.12 205.16 146.522 205.16C145.413 205.16 144.485 204.776 143.738 204.008C142.992 203.24 142.618 202.269 142.618 201.096C142.618 199.923 142.992 198.952 143.738 198.184C144.485 197.416 145.413 197.032 146.522 197.032C147.12 197.032 147.669 197.155 148.17 197.4C148.672 197.635 149.098 197.976 149.45 198.424L149.69 197.192H150.698ZM146.714 203.928C147.504 203.928 148.149 203.667 148.65 203.144C149.162 202.611 149.418 201.928 149.418 201.096C149.418 200.264 149.162 199.587 148.65 199.064C148.149 198.531 147.504 198.264 146.714 198.264C145.925 198.264 145.28 198.531 144.778 199.064C144.277 199.587 144.026 200.264 144.026 201.096C144.026 201.928 144.277 202.611 144.778 203.144C145.28 203.667 145.925 203.928 146.714 203.928ZM159.272 202.392H160.632C160.451 203.213 160.019 203.88 159.336 204.392C158.664 204.904 157.832 205.16 156.84 205.16C155.635 205.16 154.648 204.781 153.88 204.024C153.112 203.256 152.734 202.275 152.744 201.08C152.744 199.885 153.112 198.915 153.848 198.168C154.595 197.411 155.566 197.032 156.76 197.032C157.902 197.032 158.835 197.389 159.56 198.104C160.296 198.819 160.664 199.741 160.664 200.872C160.664 200.936 160.659 201.021 160.648 201.128C160.648 201.224 160.643 201.325 160.632 201.432H154.104C154.179 202.221 154.462 202.845 154.952 203.304C155.443 203.752 156.072 203.976 156.84 203.976C157.459 203.976 157.976 203.837 158.392 203.56C158.819 203.272 159.112 202.883 159.272 202.392ZM156.728 198.2C156.014 198.2 155.427 198.392 154.968 198.776C154.52 199.16 154.243 199.704 154.136 200.408H159.32C159.267 199.736 159 199.203 158.52 198.808C158.04 198.403 157.443 198.2 156.728 198.2ZM164.694 198.36H161.67V197.192H169.126V198.36H166.086V205H164.694V198.36ZM176.551 201.896H177.975C177.815 202.877 177.377 203.667 176.663 204.264C175.959 204.861 175.1 205.16 174.087 205.16C172.935 205.16 171.985 204.781 171.239 204.024C170.492 203.256 170.119 202.28 170.119 201.096C170.119 199.912 170.492 198.941 171.239 198.184C171.985 197.416 172.935 197.032 174.087 197.032C175.1 197.032 175.959 197.331 176.663 197.928C177.377 198.515 177.815 199.304 177.975 200.296H176.551C176.412 199.667 176.124 199.171 175.687 198.808C175.249 198.445 174.716 198.264 174.087 198.264C173.319 198.264 172.7 198.525 172.231 199.048C171.761 199.56 171.527 200.243 171.527 201.096C171.527 201.949 171.761 202.637 172.231 203.16C172.7 203.672 173.319 203.928 174.087 203.928C174.716 203.928 175.249 203.747 175.687 203.384C176.124 203.021 176.412 202.525 176.551 201.896ZM182.681 202.28L180.841 205H179.321L181.289 202.136C180.659 201.976 180.174 201.688 179.833 201.272C179.502 200.856 179.337 200.344 179.337 199.736C179.337 198.936 179.614 198.312 180.169 197.864C180.723 197.416 181.491 197.192 182.473 197.192H186.473V205H185.113V202.28H182.681ZM180.745 199.752C180.745 200.2 180.889 200.547 181.177 200.792C181.475 201.027 181.902 201.144 182.457 201.144H185.113V198.344H182.457C181.902 198.344 181.475 198.467 181.177 198.712C180.889 198.947 180.745 199.293 180.745 199.752ZM191.851 205V197.192H193.227V200.408H197.755V197.192H199.131V205H197.755V201.576H193.227V205H191.851ZM209.23 197.192V205H208.222L207.982 203.768C207.63 204.216 207.203 204.563 206.702 204.808C206.2 205.043 205.651 205.16 205.054 205.16C203.944 205.16 203.016 204.776 202.27 204.008C201.523 203.24 201.15 202.269 201.15 201.096C201.15 199.923 201.523 198.952 202.27 198.184C203.016 197.416 203.944 197.032 205.054 197.032C205.651 197.032 206.2 197.155 206.702 197.4C207.203 197.635 207.63 197.976 207.982 198.424L208.222 197.192H209.23ZM205.246 203.928C206.035 203.928 206.68 203.667 207.182 203.144C207.694 202.611 207.95 201.928 207.95 201.096C207.95 200.264 207.694 199.587 207.182 199.064C206.68 198.531 206.035 198.264 205.246 198.264C204.456 198.264 203.811 198.531 203.31 199.064C202.808 199.587 202.558 200.264 202.558 201.096C202.558 201.928 202.808 202.611 203.31 203.144C203.811 203.667 204.456 203.928 205.246 203.928ZM70.1993 220.896H71.6233C71.4633 221.877 71.0259 222.667 70.3113 223.264C69.6073 223.861 68.7486 224.16 67.7352 224.16C66.5833 224.16 65.6339 223.781 64.8873 223.024C64.1406 222.256 63.7673 221.28 63.7673 220.096C63.7673 218.912 64.1406 217.941 64.8873 217.184C65.6339 216.416 66.5833 216.032 67.7352 216.032C68.7486 216.032 69.6073 216.331 70.3113 216.928C71.0259 217.515 71.4633 218.304 71.6233 219.296H70.1993C70.0606 218.667 69.7726 218.171 69.3353 217.808C68.8979 217.445 68.3646 217.264 67.7352 217.264C66.9673 217.264 66.3486 217.525 65.8793 218.048C65.4099 218.56 65.1753 219.243 65.1753 220.096C65.1753 220.949 65.4099 221.637 65.8793 222.16C66.3486 222.672 66.9673 222.928 67.7352 222.928C68.3646 222.928 68.8979 222.747 69.3353 222.384C69.7726 222.021 70.0606 221.525 70.1993 220.896ZM73.5773 224V216.192H80.8573V224H79.4813V217.36H74.9533V224H73.5773ZM89.4363 221.392H90.7963C90.6149 222.213 90.1829 222.88 89.5003 223.392C88.8283 223.904 87.9963 224.16 87.0043 224.16C85.7989 224.16 84.8123 223.781 84.0443 223.024C83.2763 222.256 82.8976 221.275 82.9083 220.08C82.9083 218.885 83.2763 217.915 84.0123 217.168C84.7589 216.411 85.7296 216.032 86.9243 216.032C88.0656 216.032 88.9989 216.389 89.7243 217.104C90.4603 217.819 90.8283 218.741 90.8283 219.872C90.8283 219.936 90.8229 220.021 90.8123 220.128C90.8123 220.224 90.8069 220.325 90.7963 220.432H84.2682C84.3429 221.221 84.6256 221.845 85.1163 222.304C85.6069 222.752 86.2363 222.976 87.0043 222.976C87.6229 222.976 88.1403 222.837 88.5563 222.56C88.9829 222.272 89.2763 221.883 89.4363 221.392ZM86.8923 217.2C86.1776 217.2 85.5909 217.392 85.1323 217.776C84.6843 218.16 84.4069 218.704 84.3003 219.408H89.4843C89.4309 218.736 89.1643 218.203 88.6843 217.808C88.2043 217.403 87.6069 217.2 86.8923 217.2ZM101.115 226.4H99.7705V224H92.8585V216.192H94.2345V222.832H98.6025V216.192H99.9785V222.832H101.115V226.4ZM102.796 224V216.192H104.172V222.368L108.46 216.192H110.076V224H108.7V217.824L104.412 224H102.796ZM120.175 216.192V224H119.167L118.927 222.768C118.575 223.216 118.148 223.563 117.647 223.808C117.146 224.043 116.596 224.16 115.999 224.16C114.89 224.16 113.962 223.776 113.215 223.008C112.468 222.24 112.095 221.269 112.095 220.096C112.095 218.923 112.468 217.952 113.215 217.184C113.962 216.416 114.89 216.032 115.999 216.032C116.596 216.032 117.146 216.155 117.647 216.4C118.148 216.635 118.575 216.976 118.927 217.424L119.167 216.192H120.175ZM116.191 222.928C116.98 222.928 117.626 222.667 118.127 222.144C118.639 221.611 118.895 220.928 118.895 220.096C118.895 219.264 118.639 218.587 118.127 218.064C117.626 217.531 116.98 217.264 116.191 217.264C115.402 217.264 114.756 217.531 114.255 218.064C113.754 218.587 113.503 219.264 113.503 220.096C113.503 220.928 113.754 221.611 114.255 222.144C114.756 222.667 115.402 222.928 116.191 222.928ZM122.125 224H121.805V222.768H121.981C122.269 222.768 122.482 222.704 122.621 222.576C122.77 222.448 122.855 222.235 122.877 221.936L123.261 216.192H129.565V224H128.173V217.36H124.477L124.125 222.08C124.082 222.741 123.895 223.227 123.565 223.536C123.245 223.845 122.765 224 122.125 224ZM132.14 224V216.192H133.516V222.368L137.804 216.192H139.42V224H138.044V217.824L133.756 224H132.14ZM146.975 219.984C147.476 220.155 147.86 220.4 148.127 220.72C148.393 221.04 148.527 221.413 148.527 221.84C148.527 222.533 148.201 223.093 147.551 223.52C146.9 223.947 146.052 224.16 145.007 224.16C143.929 224.16 143.049 223.931 142.367 223.472C141.695 223.003 141.332 222.379 141.279 221.6H142.703C142.745 222.059 142.964 222.411 143.359 222.656C143.753 222.891 144.303 223.008 145.007 223.008C145.689 223.008 146.212 222.901 146.575 222.688C146.948 222.475 147.135 222.171 147.135 221.776C147.135 221.381 146.969 221.083 146.639 220.88C146.308 220.677 145.828 220.576 145.199 220.576H143.503V219.504H145.055C145.641 219.504 146.089 219.408 146.399 219.216C146.719 219.013 146.879 218.725 146.879 218.352C146.879 217.989 146.708 217.707 146.367 217.504C146.025 217.291 145.551 217.184 144.943 217.184C144.271 217.184 143.748 217.301 143.375 217.536C143.012 217.771 142.804 218.117 142.751 218.576H141.327C141.391 217.787 141.748 217.168 142.399 216.72C143.049 216.261 143.903 216.032 144.959 216.032C145.961 216.032 146.761 216.24 147.359 216.656C147.967 217.061 148.271 217.605 148.271 218.288C148.271 218.672 148.159 219.008 147.935 219.296C147.711 219.584 147.391 219.813 146.975 219.984ZM150.593 224V216.192H151.969V222.368L156.257 216.192H157.873V224H156.497V217.824L152.209 224H150.593ZM160.468 227.04V216.192H161.46L161.716 217.408C162.057 216.971 162.479 216.635 162.98 216.4C163.492 216.155 164.041 216.032 164.628 216.032C165.737 216.032 166.665 216.416 167.412 217.184C168.159 217.952 168.532 218.923 168.532 220.096C168.532 221.269 168.159 222.24 167.412 223.008C166.665 223.776 165.737 224.16 164.628 224.16C164.063 224.16 163.54 224.053 163.06 223.84C162.58 223.616 162.175 223.296 161.844 222.88V227.04H160.468ZM164.436 217.264C163.647 217.264 162.996 217.531 162.484 218.064C161.983 218.587 161.732 219.264 161.732 220.096C161.732 220.928 161.983 221.611 162.484 222.144C162.996 222.667 163.647 222.928 164.436 222.928C165.236 222.928 165.887 222.667 166.388 222.144C166.889 221.611 167.14 220.928 167.14 220.096C167.14 219.264 166.889 218.587 166.388 218.064C165.887 217.531 165.236 217.264 164.436 217.264ZM174.098 216.032C175.303 216.032 176.29 216.411 177.058 217.168C177.826 217.925 178.21 218.901 178.21 220.096C178.21 221.291 177.826 222.267 177.058 223.024C176.29 223.781 175.303 224.16 174.098 224.16C172.903 224.16 171.922 223.781 171.154 223.024C170.386 222.267 170.002 221.291 170.002 220.096C170.002 218.901 170.386 217.925 171.154 217.168C171.922 216.411 172.903 216.032 174.098 216.032ZM174.098 222.928C174.898 222.928 175.548 222.667 176.05 222.144C176.551 221.621 176.802 220.939 176.802 220.096C176.802 219.253 176.551 218.571 176.05 218.048C175.548 217.525 174.898 217.264 174.098 217.264C173.298 217.264 172.647 217.525 172.146 218.048C171.644 218.571 171.394 219.253 171.394 220.096C171.394 220.939 171.644 221.621 172.146 222.144C172.647 222.667 173.298 222.928 174.098 222.928ZM180.218 224V216.192H184.298C185.162 216.192 185.839 216.379 186.33 216.752C186.831 217.125 187.082 217.643 187.082 218.304C187.082 218.688 186.997 219.019 186.826 219.296C186.666 219.573 186.426 219.792 186.106 219.952C186.522 220.123 186.837 220.363 187.05 220.672C187.263 220.981 187.37 221.355 187.37 221.792C187.37 222.485 187.119 223.029 186.618 223.424C186.117 223.808 185.434 224 184.57 224H180.218ZM185.706 218.4C185.706 218.027 185.583 217.744 185.338 217.552C185.093 217.36 184.73 217.264 184.25 217.264H181.578V219.488H184.25C184.73 219.488 185.093 219.397 185.338 219.216C185.583 219.024 185.706 218.752 185.706 218.4ZM185.994 221.712C185.994 221.339 185.866 221.056 185.61 220.864C185.354 220.661 184.981 220.56 184.49 220.56H181.578V222.896H184.49C184.981 222.896 185.354 222.795 185.61 222.592C185.866 222.389 185.994 222.096 185.994 221.712ZM196.972 216.192V224H195.964L195.724 222.768C195.372 223.216 194.945 223.563 194.444 223.808C193.943 224.043 193.393 224.16 192.796 224.16C191.687 224.16 190.759 223.776 190.012 223.008C189.265 222.24 188.892 221.269 188.892 220.096C188.892 218.923 189.265 217.952 190.012 217.184C190.759 216.416 191.687 216.032 192.796 216.032C193.393 216.032 193.943 216.155 194.444 216.4C194.945 216.635 195.372 216.976 195.724 217.424L195.964 216.192H196.972ZM192.988 222.928C193.777 222.928 194.423 222.667 194.924 222.144C195.436 221.611 195.692 220.928 195.692 220.096C195.692 219.264 195.436 218.587 194.924 218.064C194.423 217.531 193.777 217.264 192.988 217.264C192.199 217.264 191.553 217.531 191.052 218.064C190.551 218.587 190.3 219.264 190.3 220.096C190.3 220.928 190.551 221.611 191.052 222.144C191.553 222.667 192.199 222.928 192.988 222.928ZM199.562 224V216.192H200.938V219.408H205.466V216.192H206.842V224H205.466V220.576H200.938V224H199.562ZM209.437 224V216.192H210.813V219.408H215.341V216.192H216.717V224H215.341V220.576H210.813V224H209.437ZM222.848 216.032C224.053 216.032 225.04 216.411 225.808 217.168C226.576 217.925 226.96 218.901 226.96 220.096C226.96 221.291 226.576 222.267 225.808 223.024C225.04 223.781 224.053 224.16 222.848 224.16C221.653 224.16 220.672 223.781 219.904 223.024C219.136 222.267 218.752 221.291 218.752 220.096C218.752 218.901 219.136 217.925 219.904 217.168C220.672 216.411 221.653 216.032 222.848 216.032ZM222.848 222.928C223.648 222.928 224.298 222.667 224.8 222.144C225.301 221.621 225.552 220.939 225.552 220.096C225.552 219.253 225.301 218.571 224.8 218.048C224.298 217.525 223.648 217.264 222.848 217.264C222.048 217.264 221.397 217.525 220.896 218.048C220.394 218.571 220.144 219.253 220.144 220.096C220.144 220.939 220.394 221.621 220.896 222.144C221.397 222.667 222.048 222.928 222.848 222.928ZM233.882 223.36H232.65L230.41 218.064L229.69 224H228.458L229.338 216.192H230.922L233.29 221.872L235.642 216.192H237.21L238.106 224H236.826L236.122 217.984L233.882 223.36ZM21.5586 235.032C22.7639 235.032 23.7506 235.411 24.5186 236.168C25.2866 236.925 25.6706 237.901 25.6706 239.096C25.6706 240.291 25.2866 241.267 24.5186 242.024C23.7506 242.781 22.7639 243.16 21.5586 243.16C20.3639 243.16 19.3826 242.781 18.6146 242.024C17.8466 241.267 17.4626 240.291 17.4626 239.096C17.4626 237.901 17.8466 236.925 18.6146 236.168C19.3826 235.411 20.3639 235.032 21.5586 235.032ZM21.5586 241.928C22.3586 241.928 23.0092 241.667 23.5106 241.144C24.0119 240.621 24.2626 239.939 24.2626 239.096C24.2626 238.253 24.0119 237.571 23.5106 237.048C23.0092 236.525 22.3586 236.264 21.5586 236.264C20.7586 236.264 20.1079 236.525 19.6066 237.048C19.1052 237.571 18.8546 238.253 18.8546 239.096C18.8546 239.939 19.1052 240.621 19.6066 241.144C20.1079 241.667 20.7586 241.928 21.5586 241.928ZM27.3748 239.112V235.8C27.3748 234.552 27.7375 233.603 28.4628 232.952C29.1881 232.291 30.2441 231.96 31.6308 231.96H34.6388L34.3348 233.128H31.6468C30.6655 233.128 29.9348 233.352 29.4548 233.8C28.9748 234.237 28.7348 234.909 28.7348 235.816V236.712C29.0548 236.253 29.4708 235.896 29.9828 235.64C30.4948 235.384 31.0548 235.256 31.6628 235.256C32.7721 235.256 33.6841 235.629 34.3988 236.376C35.1241 237.112 35.4868 238.051 35.4868 239.192C35.4868 240.355 35.1028 241.309 34.3348 242.056C33.5775 242.792 32.6015 243.16 31.4068 243.16C30.2121 243.16 29.2415 242.787 28.4948 242.04C27.7481 241.283 27.3748 240.307 27.3748 239.112ZM31.4068 236.472C30.6175 236.472 29.9721 236.728 29.4708 237.24C28.9695 237.741 28.7188 238.397 28.7188 239.208C28.7188 240.019 28.9641 240.675 29.4548 241.176C29.9561 241.677 30.6068 241.928 31.4068 241.928C32.2068 241.928 32.8521 241.677 33.3428 241.176C33.8335 240.675 34.0788 240.019 34.0788 239.208C34.0788 238.397 33.8281 237.741 33.3268 237.24C32.8361 236.728 32.1961 236.472 31.4068 236.472ZM41.0429 235.032C42.2483 235.032 43.2349 235.411 44.0029 236.168C44.7709 236.925 45.1549 237.901 45.1549 239.096C45.1549 240.291 44.7709 241.267 44.0029 242.024C43.2349 242.781 42.2483 243.16 41.0429 243.16C39.8483 243.16 38.8669 242.781 38.0989 242.024C37.3309 241.267 36.9469 240.291 36.9469 239.096C36.9469 237.901 37.3309 236.925 38.0989 236.168C38.8669 235.411 39.8483 235.032 41.0429 235.032ZM41.0429 241.928C41.8429 241.928 42.4936 241.667 42.9949 241.144C43.4963 240.621 43.7469 239.939 43.7469 239.096C43.7469 238.253 43.4963 237.571 42.9949 237.048C42.4936 236.525 41.8429 236.264 41.0429 236.264C40.2429 236.264 39.5923 236.525 39.0909 237.048C38.5896 237.571 38.3389 238.253 38.3389 239.096C38.3389 239.939 38.5896 240.621 39.0909 241.144C39.5923 241.667 40.2429 241.928 41.0429 241.928ZM47.1632 246.04V235.192H48.1552L48.4112 236.408C48.7525 235.971 49.1739 235.635 49.6752 235.4C50.1872 235.155 50.7365 235.032 51.3232 235.032C52.4325 235.032 53.3605 235.416 54.1072 236.184C54.8539 236.952 55.2272 237.923 55.2272 239.096C55.2272 240.269 54.8539 241.24 54.1072 242.008C53.3605 242.776 52.4325 243.16 51.3232 243.16C50.7579 243.16 50.2352 243.053 49.7552 242.84C49.2752 242.616 48.8699 242.296 48.5392 241.88V246.04H47.1632ZM51.1312 236.264C50.3419 236.264 49.6912 236.531 49.1792 237.064C48.6779 237.587 48.4272 238.264 48.4272 239.096C48.4272 239.928 48.6779 240.611 49.1792 241.144C49.6912 241.667 50.3419 241.928 51.1312 241.928C51.9312 241.928 52.5819 241.667 53.0832 241.144C53.5845 240.611 53.8352 239.928 53.8352 239.096C53.8352 238.264 53.5845 237.587 53.0832 237.064C52.5819 236.531 51.9312 236.264 51.1312 236.264ZM59.4226 243.528L59.6786 242.904H59.1666L55.9506 235.192H57.4066L60.1266 241.8L62.7826 235.192H64.2066L60.5906 243.96C60.2812 244.728 59.9132 245.267 59.4866 245.576C59.0599 245.885 58.4412 246.04 57.6306 246.04H56.6546V244.808H57.5666C58.0999 244.808 58.4892 244.717 58.7346 244.536C58.9906 244.355 59.2199 244.019 59.4226 243.528ZM65.7968 245.4H64.4528V241.832H65.1568C65.3168 241.576 65.4288 241.299 65.4928 241C65.5675 240.691 65.6208 240.275 65.6528 239.752L65.9888 235.192H72.1648V241.832H73.2848V245.4H71.9408V243H65.7968V245.4ZM67.2048 236.36L66.9168 239.88C66.8741 240.328 66.8155 240.712 66.7408 241.032C66.6768 241.352 66.5915 241.619 66.4848 241.832H70.7728V236.36H67.2048ZM78.5117 235.032C79.717 235.032 80.7037 235.411 81.4717 236.168C82.2397 236.925 82.6237 237.901 82.6237 239.096C82.6237 240.291 82.2397 241.267 81.4717 242.024C80.7037 242.781 79.717 243.16 78.5117 243.16C77.317 243.16 76.3357 242.781 75.5677 242.024C74.7997 241.267 74.4157 240.291 74.4157 239.096C74.4157 237.901 74.7997 236.925 75.5677 236.168C76.3357 235.411 77.317 235.032 78.5117 235.032ZM78.5117 241.928C79.3117 241.928 79.9624 241.667 80.4637 241.144C80.965 240.621 81.2157 239.939 81.2157 239.096C81.2157 238.253 80.965 237.571 80.4637 237.048C79.9624 236.525 79.3117 236.264 78.5117 236.264C77.7117 236.264 77.061 236.525 76.5597 237.048C76.0584 237.571 75.8077 238.253 75.8077 239.096C75.8077 239.939 76.0584 240.621 76.5597 241.144C77.061 241.667 77.7117 241.928 78.5117 241.928ZM84.6319 243V235.192H88.7119C89.5759 235.192 90.2533 235.379 90.7439 235.752C91.2453 236.125 91.4959 236.643 91.4959 237.304C91.4959 237.688 91.4106 238.019 91.2399 238.296C91.0799 238.573 90.8399 238.792 90.5199 238.952C90.9359 239.123 91.2506 239.363 91.4639 239.672C91.6773 239.981 91.7839 240.355 91.7839 240.792C91.7839 241.485 91.5333 242.029 91.0319 242.424C90.5306 242.808 89.8479 243 88.9839 243H84.6319ZM90.1199 237.4C90.1199 237.027 89.9973 236.744 89.7519 236.552C89.5066 236.36 89.1439 236.264 88.6639 236.264H85.9919V238.488H88.6639C89.1439 238.488 89.5066 238.397 89.7519 238.216C89.9973 238.024 90.1199 237.752 90.1199 237.4ZM90.4079 240.712C90.4079 240.339 90.2799 240.056 90.0239 239.864C89.7679 239.661 89.3946 239.56 88.9039 239.56H85.9919V241.896H88.9039C89.3946 241.896 89.7679 241.795 90.0239 241.592C90.2799 241.389 90.4079 241.096 90.4079 240.712ZM101.386 235.192V243H100.378L100.138 241.768C99.7859 242.216 99.3593 242.563 98.8579 242.808C98.3566 243.043 97.8073 243.16 97.2099 243.16C96.1006 243.16 95.1726 242.776 94.4259 242.008C93.6793 241.24 93.3059 240.269 93.3059 239.096C93.3059 237.923 93.6793 236.952 94.4259 236.184C95.1726 235.416 96.1006 235.032 97.2099 235.032C97.8073 235.032 98.3566 235.155 98.8579 235.4C99.3593 235.635 99.7859 235.976 100.138 236.424L100.378 235.192H101.386ZM97.4019 241.928C98.1913 241.928 98.8366 241.667 99.3379 241.144C99.8499 240.611 100.106 239.928 100.106 239.096C100.106 238.264 99.8499 237.587 99.3379 237.064C98.8366 236.531 98.1913 236.264 97.4019 236.264C96.6126 236.264 95.9673 236.531 95.4659 237.064C94.9646 237.587 94.7139 238.264 94.7139 239.096C94.7139 239.928 94.9646 240.611 95.4659 241.144C95.9673 241.667 96.6126 241.928 97.4019 241.928ZM103.976 243V235.192H105.352V238.408H109.88V235.192H111.256V243H109.88V239.576H105.352V243H103.976ZM113.851 243V235.192H115.227V241.368L119.515 235.192H121.131V243H119.755V236.824L115.467 243H113.851ZM123.726 243V235.192H125.102V241.368L129.39 235.192H131.006V243H129.63V236.824L125.342 243H123.726ZM136.75 245.4H135.406V241.832H136.11C136.27 241.576 136.382 241.299 136.446 241C136.521 240.691 136.574 240.275 136.606 239.752L136.942 235.192H143.118V241.832H144.238V245.4H142.894V243H136.75V245.4ZM138.158 236.36L137.87 239.88C137.827 240.328 137.769 240.712 137.694 241.032C137.63 241.352 137.545 241.619 137.438 241.832H141.726V236.36H138.158ZM145.289 243H144.969V241.768H145.145C145.433 241.768 145.646 241.704 145.785 241.576C145.934 241.448 146.019 241.235 146.041 240.936L146.425 235.192H152.729V243H151.337V236.36H147.641L147.289 241.08C147.246 241.741 147.059 242.227 146.729 242.536C146.409 242.845 145.929 243 145.289 243ZM158.056 240.28L156.216 243H154.696L156.664 240.136C156.034 239.976 155.549 239.688 155.208 239.272C154.877 238.856 154.712 238.344 154.712 237.736C154.712 236.936 154.989 236.312 155.544 235.864C156.098 235.416 156.866 235.192 157.848 235.192H161.848V243H160.488V240.28H158.056ZM156.12 237.752C156.12 238.2 156.264 238.547 156.552 238.792C156.85 239.027 157.277 239.144 157.832 239.144H160.488V236.344H157.832C157.277 236.344 156.85 236.467 156.552 236.712C156.264 236.947 156.12 237.293 156.12 237.752ZM167.226 243V235.192H168.602V238.392H169.882L172.778 235.192H174.314V235.272L171.002 238.936L174.49 242.92V243H172.826L169.834 239.592H168.602V243H167.226ZM183.073 235.192V243H182.065L181.825 241.768C181.473 242.216 181.047 242.563 180.545 242.808C180.044 243.043 179.495 243.16 178.897 243.16C177.788 243.16 176.86 242.776 176.113 242.008C175.367 241.24 174.993 240.269 174.993 239.096C174.993 237.923 175.367 236.952 176.113 236.184C176.86 235.416 177.788 235.032 178.897 235.032C179.495 235.032 180.044 235.155 180.545 235.4C181.047 235.635 181.473 235.976 181.825 236.424L182.065 235.192H183.073ZM179.089 241.928C179.879 241.928 180.524 241.667 181.025 241.144C181.537 240.611 181.793 239.928 181.793 239.096C181.793 238.264 181.537 237.587 181.025 237.064C180.524 236.531 179.879 236.264 179.089 236.264C178.3 236.264 177.655 236.531 177.153 237.064C176.652 237.587 176.401 238.264 176.401 239.096C176.401 239.928 176.652 240.611 177.153 241.144C177.655 241.667 178.3 241.928 179.089 241.928ZM190.047 238.392L190.063 235.192H191.439V238.392H192.511L195.135 235.192H196.671V235.272L193.663 238.92L196.847 242.92V243H195.215L192.511 239.592H191.439V243H190.031L190.047 239.592H188.975L186.255 243H184.639V242.92L187.855 238.936L184.815 235.272V235.192H186.367L188.975 238.392H190.047ZM198.797 245.4H197.453V241.832H198.157C198.317 241.576 198.429 241.299 198.493 241C198.567 240.691 198.621 240.275 198.653 239.752L198.989 235.192H205.165V241.832H206.285V245.4H204.941V243H198.797V245.4ZM200.205 236.36L199.917 239.88C199.874 240.328 199.815 240.712 199.741 241.032C199.677 241.352 199.591 241.619 199.485 241.832H203.773V236.36H200.205ZM211.512 235.032C212.717 235.032 213.704 235.411 214.472 236.168C215.24 236.925 215.624 237.901 215.624 239.096C215.624 240.291 215.24 241.267 214.472 242.024C213.704 242.781 212.717 243.16 211.512 243.16C210.317 243.16 209.336 242.781 208.568 242.024C207.8 241.267 207.416 240.291 207.416 239.096C207.416 237.901 207.8 236.925 208.568 236.168C209.336 235.411 210.317 235.032 211.512 235.032ZM211.512 241.928C212.312 241.928 212.962 241.667 213.464 241.144C213.965 240.621 214.216 239.939 214.216 239.096C214.216 238.253 213.965 237.571 213.464 237.048C212.962 236.525 212.312 236.264 211.512 236.264C210.712 236.264 210.061 236.525 209.56 237.048C209.058 237.571 208.808 238.253 208.808 239.096C208.808 239.939 209.058 240.621 209.56 241.144C210.061 241.667 210.712 241.928 211.512 241.928ZM217.632 243V235.192H219.008V241.368L223.296 235.192H224.912V243H223.536V236.824L219.248 243H217.632ZM221.28 234.36C220.544 234.36 219.968 234.157 219.552 233.752C219.136 233.347 218.928 232.781 218.928 232.056H220.096C220.096 232.515 220.192 232.856 220.384 233.08C220.576 233.304 220.875 233.416 221.28 233.416C221.685 233.416 221.984 233.304 222.176 233.08C222.368 232.856 222.464 232.515 222.464 232.056H223.632C223.632 232.781 223.424 233.347 223.008 233.752C222.592 234.157 222.016 234.36 221.28 234.36ZM230.656 245.4H229.312V241.832H230.016C230.176 241.576 230.288 241.299 230.352 241C230.427 240.691 230.48 240.275 230.512 239.752L230.848 235.192H237.024V241.832H238.144V245.4H236.8V243H230.656V245.4ZM232.064 236.36L231.776 239.88C231.734 240.328 231.675 240.712 231.6 241.032C231.536 241.352 231.451 241.619 231.344 241.832H235.632V236.36H232.064ZM245.819 240.392H247.179C246.998 241.213 246.566 241.88 245.883 242.392C245.211 242.904 244.379 243.16 243.387 243.16C242.182 243.16 241.195 242.781 240.427 242.024C239.659 241.256 239.28 240.275 239.291 239.08C239.291 237.885 239.659 236.915 240.395 236.168C241.142 235.411 242.112 235.032 243.307 235.032C244.448 235.032 245.382 235.389 246.107 236.104C246.843 236.819 247.211 237.741 247.211 238.872C247.211 238.936 247.206 239.021 247.195 239.128C247.195 239.224 247.19 239.325 247.179 239.432H240.651C240.726 240.221 241.008 240.845 241.499 241.304C241.99 241.752 242.619 241.976 243.387 241.976C244.006 241.976 244.523 241.837 244.939 241.56C245.366 241.272 245.659 240.883 245.819 240.392ZM243.275 236.2C242.56 236.2 241.974 236.392 241.515 236.776C241.067 237.16 240.79 237.704 240.683 238.408H245.867C245.814 237.736 245.547 237.203 245.067 236.808C244.587 236.403 243.99 236.2 243.275 236.2ZM251.241 236.36H248.217V235.192H255.673V236.36H252.633V243H251.241V236.36ZM264.73 235.192V243H263.722L263.482 241.768C263.13 242.216 262.703 242.563 262.202 242.808C261.7 243.043 261.151 243.16 260.554 243.16C259.444 243.16 258.516 242.776 257.77 242.008C257.023 241.24 256.65 240.269 256.65 239.096C256.65 237.923 257.023 236.952 257.77 236.184C258.516 235.416 259.444 235.032 260.554 235.032C261.151 235.032 261.7 235.155 262.202 235.4C262.703 235.635 263.13 235.976 263.482 236.424L263.722 235.192H264.73ZM260.746 241.928C261.535 241.928 262.18 241.667 262.682 241.144C263.194 240.611 263.45 239.928 263.45 239.096C263.45 238.264 263.194 237.587 262.682 237.064C262.18 236.531 261.535 236.264 260.746 236.264C259.956 236.264 259.311 236.531 258.81 237.064C258.308 237.587 258.058 238.264 258.058 239.096C258.058 239.928 258.308 240.611 258.81 241.144C259.311 241.667 259.956 241.928 260.746 241.928ZM266.679 243H266.359V241.768H266.535C266.823 241.768 267.037 241.704 267.175 241.576C267.325 241.448 267.41 241.235 267.431 240.936L267.815 235.192H274.119V243H272.727V236.36H269.031L268.679 241.08C268.637 241.741 268.45 242.227 268.119 242.536C267.799 242.845 267.319 243 266.679 243ZM276.694 243V235.192H278.07V241.368L282.358 235.192H283.974V243H282.598V236.824L278.31 243H276.694Z" fill="black"/>
<path d="M50.5608 180.046H48.0948L45.7188 173.44L45.0348 181H42.6048L43.6308 169.48H46.8348L49.4268 176.914L52.0008 169.48H55.1148L56.1588 181H53.6028L52.9008 173.224L50.5608 180.046ZM67.007 172V181H65.261L64.793 180.082C64.433 180.442 64.019 180.718 63.551 180.91C63.083 181.09 62.579 181.18 62.039 181.18C60.791 181.18 59.735 180.736 58.871 179.848C58.019 178.96 57.593 177.844 57.593 176.5C57.593 175.156 58.019 174.04 58.871 173.152C59.735 172.264 60.791 171.82 62.039 171.82C62.579 171.82 63.083 171.916 63.551 172.108C64.019 172.288 64.433 172.558 64.793 172.918L65.261 172H67.007ZM62.399 178.984C63.083 178.984 63.641 178.756 64.073 178.3C64.505 177.844 64.721 177.244 64.721 176.5C64.721 175.756 64.505 175.156 64.073 174.7C63.641 174.232 63.083 173.998 62.399 173.998C61.715 173.998 61.157 174.232 60.725 174.7C60.293 175.156 60.077 175.756 60.077 176.5C60.077 177.244 60.293 177.844 60.725 178.3C61.157 178.756 61.715 178.984 62.399 178.984ZM69.4199 181V172H71.8859V175.402H73.0379L75.5939 172H78.2939V172.09L75.0719 176.356L78.4919 180.91V181H75.5939L72.9839 177.49H71.8859V181H69.4199ZM85.456 177.22H87.976C87.82 178.42 87.316 179.38 86.464 180.1C85.624 180.82 84.58 181.18 83.332 181.18C81.964 181.18 80.836 180.748 79.948 179.884C79.072 179.008 78.634 177.88 78.634 176.5C78.634 175.12 79.072 173.998 79.948 173.134C80.836 172.258 81.964 171.82 83.332 171.82C84.58 171.82 85.624 172.18 86.464 172.9C87.316 173.62 87.82 174.58 87.976 175.78H85.456C85.324 175.228 85.066 174.796 84.682 174.484C84.31 174.16 83.86 173.998 83.332 173.998C82.684 173.998 82.15 174.232 81.73 174.7C81.322 175.156 81.118 175.756 81.118 176.5C81.118 177.244 81.322 177.844 81.73 178.3C82.138 178.756 82.672 178.984 83.332 178.984C83.86 178.984 84.31 178.828 84.682 178.516C85.066 178.204 85.324 177.772 85.456 177.22ZM89.7402 181V172H92.2062V178.012L95.5722 172H98.4342V181H95.9682V174.988L92.6022 181H89.7402ZM107.114 180.262H104.936L103.136 175.492L102.56 181H100.418L101.3 172H104.054L106.088 177.544L108.122 172H110.822L111.722 181H109.472L108.896 175.366L107.114 180.262ZM122.413 172V181H120.667L120.199 180.082C119.839 180.442 119.425 180.718 118.957 180.91C118.489 181.09 117.985 181.18 117.445 181.18C116.197 181.18 115.141 180.736 114.277 179.848C113.425 178.96 112.999 177.844 112.999 176.5C112.999 175.156 113.425 174.04 114.277 173.152C115.141 172.264 116.197 171.82 117.445 171.82C117.985 171.82 118.489 171.916 118.957 172.108C119.425 172.288 119.839 172.558 120.199 172.918L120.667 172H122.413ZM117.805 178.984C118.489 178.984 119.047 178.756 119.479 178.3C119.911 177.844 120.127 177.244 120.127 176.5C120.127 175.756 119.911 175.156 119.479 174.7C119.047 174.232 118.489 173.998 117.805 173.998C117.121 173.998 116.563 174.232 116.131 174.7C115.699 175.156 115.483 175.756 115.483 176.5C115.483 177.244 115.699 177.844 116.131 178.3C116.563 178.756 117.121 178.984 117.805 178.984ZM124.574 181H123.98V178.786H124.178C124.478 178.786 124.694 178.732 124.826 178.624C124.97 178.504 125.054 178.318 125.078 178.066L125.42 172H133.07V181H130.604V174.052H127.598L127.328 178.228C127.268 179.188 127.016 179.89 126.572 180.334C126.128 180.778 125.462 181 124.574 181ZM135.478 181V172H137.944V174.736H140.338C141.466 174.736 142.36 175.024 143.02 175.6C143.692 176.164 144.028 176.92 144.028 177.868C144.028 178.816 143.692 179.578 143.02 180.154C142.36 180.718 141.466 181 140.338 181H135.478ZM141.58 177.868C141.58 177.508 141.472 177.232 141.256 177.04C141.04 176.836 140.728 176.734 140.32 176.734H137.944V179.002H140.32C140.728 179.002 141.04 178.906 141.256 178.714C141.472 178.51 141.58 178.228 141.58 177.868ZM145.691 181V172H148.157V175.258H151.919V172H154.385V181H151.919V177.31H148.157V181H145.691ZM165.603 172V181H163.857L163.389 180.082C163.029 180.442 162.615 180.718 162.147 180.91C161.679 181.09 161.175 181.18 160.635 181.18C159.387 181.18 158.331 180.736 157.467 179.848C156.615 178.96 156.189 177.844 156.189 176.5C156.189 175.156 156.615 174.04 157.467 173.152C158.331 172.264 159.387 171.82 160.635 171.82C161.175 171.82 161.679 171.916 162.147 172.108C162.615 172.288 163.029 172.558 163.389 172.918L163.857 172H165.603ZM160.995 178.984C161.679 178.984 162.237 178.756 162.669 178.3C163.101 177.844 163.317 177.244 163.317 176.5C163.317 175.756 163.101 175.156 162.669 174.7C162.237 174.232 161.679 173.998 160.995 173.998C160.311 173.998 159.753 174.232 159.321 174.7C158.889 175.156 158.673 175.756 158.673 176.5C158.673 177.244 158.889 177.844 159.321 178.3C159.753 178.756 160.311 178.984 160.995 178.984ZM171.49 178.318L169.996 181H167.386L169.186 177.904C168.622 177.64 168.19 177.274 167.89 176.806C167.602 176.338 167.458 175.792 167.458 175.168C167.458 174.172 167.8 173.398 168.484 172.846C169.18 172.282 170.14 172 171.364 172H175.99V181H173.56V178.318H171.49ZM169.96 175.186C169.96 175.558 170.08 175.846 170.32 176.05C170.56 176.254 170.89 176.356 171.31 176.356H173.56V174.016H171.31C170.878 174.016 170.542 174.118 170.302 174.322C170.074 174.526 169.96 174.814 169.96 175.186ZM183.481 174.052H180.457V172H188.971V174.052H185.947V181H183.481V174.052ZM194.675 171.82C196.091 171.82 197.249 172.258 198.149 173.134C199.061 173.998 199.517 175.12 199.517 176.5C199.517 177.88 199.061 179.008 198.149 179.884C197.249 180.748 196.091 181.18 194.675 181.18C193.259 181.18 192.101 180.748 191.201 179.884C190.301 179.008 189.851 177.88 189.851 176.5C189.851 175.12 190.301 173.998 191.201 173.134C192.101 172.258 193.259 171.82 194.675 171.82ZM194.675 178.984C195.371 178.984 195.935 178.756 196.367 178.3C196.811 177.844 197.033 177.244 197.033 176.5C197.033 175.756 196.811 175.156 196.367 174.7C195.935 174.232 195.371 173.998 194.675 173.998C193.979 173.998 193.415 174.232 192.983 174.7C192.551 175.156 192.335 175.756 192.335 176.5C192.335 177.244 192.551 177.844 192.983 178.3C193.415 178.756 193.979 178.984 194.675 178.984ZM205.179 176.482C205.479 176.482 205.761 176.458 206.025 176.41C206.301 176.362 206.565 176.284 206.817 176.176V172H209.283V181H206.817V178.228C206.493 178.372 206.139 178.48 205.755 178.552C205.371 178.624 204.981 178.66 204.585 178.66C203.397 178.66 202.461 178.354 201.777 177.742C201.105 177.13 200.769 176.278 200.769 175.186V172H203.235V174.808C203.235 175.42 203.385 175.852 203.685 176.104C203.985 176.356 204.483 176.482 205.179 176.482ZM211.697 181V172H214.163V175.258H217.925V172H220.391V181H217.925V177.31H214.163V181H211.697ZM227.019 171.82C228.435 171.82 229.593 172.258 230.493 173.134C231.405 173.998 231.861 175.12 231.861 176.5C231.861 177.88 231.405 179.008 230.493 179.884C229.593 180.748 228.435 181.18 227.019 181.18C225.603 181.18 224.445 180.748 223.545 179.884C222.645 179.008 222.195 177.88 222.195 176.5C222.195 175.12 222.645 173.998 223.545 173.134C224.445 172.258 225.603 171.82 227.019 171.82ZM227.019 178.984C227.715 178.984 228.279 178.756 228.711 178.3C229.155 177.844 229.377 177.244 229.377 176.5C229.377 175.756 229.155 175.156 228.711 174.7C228.279 174.232 227.715 173.998 227.019 173.998C226.323 173.998 225.759 174.232 225.327 174.7C224.895 175.156 224.679 175.756 224.679 176.5C224.679 177.244 224.895 177.844 225.327 178.3C225.759 178.756 226.323 178.984 227.019 178.984ZM239.862 177.22H242.382C242.226 178.42 241.722 179.38 240.87 180.1C240.03 180.82 238.986 181.18 237.738 181.18C236.37 181.18 235.242 180.748 234.354 179.884C233.478 179.008 233.04 177.88 233.04 176.5C233.04 175.12 233.478 173.998 234.354 173.134C235.242 172.258 236.37 171.82 237.738 171.82C238.986 171.82 240.03 172.18 240.87 172.9C241.722 173.62 242.226 174.58 242.382 175.78H239.862C239.73 175.228 239.472 174.796 239.088 174.484C238.716 174.16 238.266 173.998 237.738 173.998C237.09 173.998 236.556 174.232 236.136 174.7C235.728 175.156 235.524 175.756 235.524 176.5C235.524 177.244 235.728 177.844 236.136 178.3C236.544 178.756 237.078 178.984 237.738 178.984C238.266 178.984 238.716 178.828 239.088 178.516C239.472 178.204 239.73 177.772 239.862 177.22ZM246.252 174.052H243.228V172H251.742V174.052H248.718V181H246.252V174.052ZM253.234 181V172H255.7V174.736H258.094C259.222 174.736 260.116 175.024 260.776 175.6C261.448 176.164 261.784 176.92 261.784 177.868C261.784 178.816 261.448 179.578 260.776 180.154C260.116 180.718 259.222 181 258.094 181H253.234ZM259.336 177.868C259.336 177.508 259.228 177.232 259.012 177.04C258.796 176.836 258.484 176.734 258.076 176.734H255.7V179.002H258.076C258.484 179.002 258.796 178.906 259.012 178.714C259.228 178.51 259.336 178.228 259.336 177.868Z" fill="black"/>
<path d="M111.581 54.7252V62.9189H117.712V83.4053H111.581V128.468H160.844L161.518 128.714L165.46 117.568C165.871 116.403 169.046 106.62 169.949 103.887L174.24 87.5C176.728 76.6964 178.555 65.7512 179.71 54.7252H111.581Z" fill="#FFEAA7"/>
<path d="M211.951 103.887V128.468L203.757 136.662V103.887H211.951Z" fill="#FCD770"/>
<path d="M207.869 136.662C208.954 136.666 209.993 137.098 210.761 137.865C211.528 138.632 211.96 139.672 211.964 140.757V144.869C211.96 145.954 211.528 146.993 210.761 147.761C209.993 148.528 208.954 148.96 207.869 148.964H93.1311C92.0485 148.957 91.0123 148.523 90.248 147.756C89.4837 146.989 89.053 145.952 89.0496 144.869V140.77C89.0495 139.685 89.4787 138.644 90.2434 137.875C91.0081 137.105 92.0462 136.669 93.1311 136.662H207.869Z" fill="#838F9B"/>
<path d="M181.225 26.0495C181.223 35.628 180.718 45.1998 179.71 54.7252C178.555 65.7512 176.728 76.6964 174.24 87.5L169.962 103.887C169.06 106.633 161.519 128.714 161.519 128.714L105.437 128.468C104.361 128.468 103.295 128.679 102.301 129.091C101.306 129.503 100.403 130.106 99.642 130.867C98.881 131.628 98.2775 132.532 97.8659 133.526C97.4544 134.52 97.2428 135.586 97.2434 136.662H203.757V26.0495H181.225Z" fill="#AAB2BD"/>
<path d="M154.599 75.2117H146.406V83.4053H154.599V75.2117Z" fill="#969FAA"/>
<path d="M156.644 107.982V116.176H150.5H144.356V107.982H156.644Z" fill="#969FAA"/>
<path d="M174.24 87.5H164.838V103.887H169.962H181.225V87.5H174.24Z" fill="#969FAA"/>
<path d="M136.162 87.5H119.775V103.887H136.162V87.5Z" fill="#969FAA"/>
<path d="M158.694 67.018V75.2117H154.595H146.405H142.306V67.018H158.694Z" fill="#E6E9ED"/>
<path d="M164.838 103.887V107.982H156.644H144.356H136.162V103.887V95.6937V87.5V83.4053H146.405H154.595H164.838V87.5V95.6937V103.887Z" fill="#E6E9ED"/>
<path d="M117.725 62.9189V83.4053H111.581H89.0496V62.9189H103.387H111.581H117.725Z" fill="#69D6F4"/>
<path d="M164.838 46.5316H156.644V54.7252H164.838V46.5316Z" fill="#AAB2BD"/>
<path d="M148.45 46.5316H140.257V54.7252H148.45V46.5316Z" fill="#AAB2BD"/>
<path d="M132.063 46.5316H115.676V54.7252H132.063V46.5316Z" fill="#AAB2BD"/>
<path d="M191.468 42.4325C193.73 42.4325 195.563 40.5993 195.563 38.3379C195.563 36.0765 193.73 34.2432 191.468 34.2432C189.207 34.2432 187.374 36.0765 187.374 38.3379C187.374 40.5993 189.207 42.4325 191.468 42.4325Z" fill="#EF7385"/>
<path d="M173.032 38.3379V54.7252H164.838V46.5316H156.631V54.7252H148.451V46.5316H140.257V54.7252H132.063V46.5316H115.676V54.7252H111.581V62.9189H103.387V38.3379C103.391 37.253 103.823 36.2135 104.591 35.4463C105.358 34.6792 106.397 34.2467 107.482 34.2432H168.937C170.022 34.2467 171.061 34.6792 171.828 35.4463C172.596 36.2135 173.028 37.253 173.032 38.3379Z" fill="#E6E9ED"/>
<path d="M207.869 151H93.131C91.505 151 89.9455 150.354 88.7957 149.204C87.6459 148.054 87 146.495 87 144.869V140.77C87 139.144 87.6459 137.584 88.7957 136.435C89.9455 135.285 91.505 134.639 93.131 134.639H207.869C209.495 134.639 211.054 135.285 212.204 136.435C213.354 137.584 214 139.144 214 140.77V144.869C214 146.495 213.354 148.054 212.204 149.204C211.054 150.354 209.495 151 207.869 151ZM93.131 138.712C92.5882 138.712 92.0676 138.927 91.6834 139.31C91.2991 139.694 91.0827 140.214 91.0815 140.757V144.869C91.0861 145.41 91.304 145.927 91.6877 146.308C92.0714 146.69 92.5901 146.904 93.131 146.905H207.869C208.412 146.904 208.933 146.688 209.317 146.304C209.701 145.92 209.917 145.399 209.918 144.856V140.757C209.917 140.214 209.701 139.694 209.317 139.31C208.932 138.927 208.412 138.712 207.869 138.712H93.131Z" fill="black"/>
<path d="M205.806 136.662H201.712V28.0947H183.266C183.114 48.2466 180.756 68.3214 176.233 87.9598L172.239 87.0402C176.845 67.0368 179.172 46.5763 179.176 26.0495V24H205.806V136.662Z" fill="black"/>
<path d="M160.625 137.345L156.762 135.979L163.542 116.876C163.991 115.601 164.429 114.323 164.855 113.045L168.735 114.358C168.298 115.672 167.86 116.96 167.387 118.252L160.625 137.345Z" fill="black"/>
<path d="M191.468 44.482C190.256 44.482 189.07 44.1225 188.062 43.4488C187.054 42.7751 186.268 41.8175 185.804 40.6972C185.34 39.5769 185.219 38.3442 185.455 37.1549C185.692 35.9656 186.276 34.8731 187.133 34.0157C187.991 33.1583 189.083 32.5743 190.272 32.3378C191.462 32.1012 192.694 32.2226 193.815 32.6867C194.935 33.1507 195.893 33.9365 196.566 34.9448C197.24 35.953 197.599 37.1384 197.599 38.351C197.599 39.9771 196.954 41.5365 195.804 42.6863C194.654 43.8361 193.094 44.482 191.468 44.482ZM191.468 36.2883C191.063 36.2883 190.667 36.4085 190.33 36.6338C189.993 36.859 189.73 37.179 189.575 37.5535C189.42 37.928 189.379 38.3401 189.458 38.7377C189.537 39.1353 189.733 39.5005 190.019 39.7871C190.306 40.0737 190.671 40.2689 191.069 40.348C191.466 40.4271 191.878 40.3865 192.253 40.2314C192.627 40.0762 192.947 39.8136 193.173 39.4765C193.398 39.1395 193.518 38.7432 193.518 38.3379C193.517 37.7947 193.3 37.274 192.916 36.8899C192.532 36.5058 192.012 36.2895 191.468 36.2883Z" fill="black"/>
<path d="M99.2883 136.662H95.1936C95.1959 133.946 96.2759 131.342 98.1963 129.422C100.117 127.501 102.721 126.421 105.437 126.419H160.839V130.518H105.437C104.629 130.516 103.829 130.673 103.082 130.981C102.335 131.289 101.657 131.741 101.086 132.312C100.514 132.883 100.061 133.561 99.7528 134.308C99.4444 135.054 99.2865 135.854 99.2883 136.662Z" fill="black"/>
<path d="M166.887 110.032H134.113V81.369H166.887V110.032ZM138.212 105.937H162.788V85.4505H138.212V105.937Z" fill="black"/>
<path d="M183.275 105.937H164.838V101.838H179.176V89.5495H164.838V85.4505H183.275V105.937Z" fill="black"/>
<path d="M136.162 105.937H117.725V85.4505H136.162V89.5495H121.824V101.838H136.162V105.937Z" fill="black"/>
<path d="M148.45 75.2117H144.356V83.4053H148.45V75.2117Z" fill="black"/>
<path d="M156.644 75.2117H152.55V83.4053H156.644V75.2117Z" fill="black"/>
<path d="M158.694 118.225H142.306V107.982H146.405V114.131H154.595V107.982H158.694V118.225Z" fill="black"/>
<path d="M152.545 116.176H148.45V128.464H152.545V116.176Z" fill="black"/>
<path d="M160.743 77.2568H140.257V64.9684H160.743V77.2568ZM144.369 73.1621H156.631V69.0631H144.369V73.1621Z" fill="black"/>
<path d="M136.162 93.6442H119.775V97.7388H136.162V93.6442Z" fill="black"/>
<path d="M183.275 93.6442H164.838V97.7388H183.275V93.6442Z" fill="black"/>
<path d="M146.401 89.5495H142.306V93.6442H146.401V89.5495Z" fill="black"/>
<path d="M154.595 89.5495H150.5V93.6442H154.595V89.5495Z" fill="black"/>
<path d="M113.626 83.4053H109.531V128.468H113.626V83.4053Z" fill="black"/>
<path d="M113.631 62.9189H109.531V52.6757H179.719V56.7748H113.631V62.9189Z" fill="black"/>
<path d="M134.113 54.7252H130.018V48.5811H117.725V54.7252H113.631V44.482H134.113V54.7252Z" fill="black"/>
<path d="M150.5 54.7252H146.405V48.5811H142.306V54.7252H138.212V44.482H150.5V54.7252Z" fill="black"/>
<path d="M166.887 54.7252H162.788V48.5811H158.694V54.7252H154.594V44.482H166.887V54.7252Z" fill="black"/>
<path d="M105.437 62.9189H101.338V38.3379C101.338 36.7118 101.984 35.1524 103.134 34.0026C104.283 32.8528 105.843 32.2068 107.469 32.2068H168.937C170.563 32.2068 172.122 32.8528 173.272 34.0026C174.422 35.1524 175.068 36.7118 175.068 38.3379V54.7252H170.969V38.3379C170.969 37.7951 170.754 37.2744 170.37 36.8902C169.987 36.506 169.467 36.2895 168.924 36.2884H107.482C106.939 36.2895 106.419 36.506 106.036 36.8902C105.652 37.2744 105.437 37.7951 105.437 38.3379V62.9189Z" fill="black"/>
<path d="M119.775 85.4505H87V60.8694H119.775V85.4505ZM91.0947 81.369H115.676V64.9684H91.0947V81.369Z" fill="black"/>
<path d="M205.206 138.107L202.312 135.213L209.901 127.619V105.937H203.757V101.838H214V129.318L205.206 138.107Z" fill="black"/>
<path d="M111.581 69.0631H95.1936V73.1578H111.581V69.0631Z" fill="black"/>
<rect x="0.5" y="0.5" width="302" height="276" rx="9.5" stroke="#EBEBEB"/>
</svg>
