<svg width="303" height="277" viewBox="0 0 303 277" fill="none" xmlns="http://www.w3.org/2000/svg">
<rect x="0.5" y="0.5" width="302" height="276" rx="9.5" fill="white"/>
<path d="M79.1755 211V200.76H87.9435V211H86.5195V202.04H80.5835V211H79.1755ZM90.0935 211H89.7735V209.768H89.9495C90.2375 209.768 90.4508 209.704 90.5895 209.576C90.7388 209.448 90.8242 209.235 90.8455 208.936L91.2295 203.192H97.5335V211H96.1415V204.36H92.4455L92.0935 209.08C92.0508 209.741 91.8642 210.227 91.5335 210.536C91.2135 210.845 90.7335 211 90.0935 211ZM106.093 208.392H107.453C107.271 209.213 106.839 209.88 106.157 210.392C105.485 210.904 104.653 211.16 103.661 211.16C102.455 211.16 101.469 210.781 100.701 210.024C99.9325 209.256 99.5538 208.275 99.5645 207.08C99.5645 205.885 99.9325 204.915 100.669 204.168C101.415 203.411 102.386 203.032 103.581 203.032C104.722 203.032 105.655 203.389 106.381 204.104C107.117 204.819 107.485 205.741 107.485 206.872C107.485 206.936 107.479 207.021 107.469 207.128C107.469 207.224 107.463 207.325 107.453 207.432H100.924C100.999 208.221 101.282 208.845 101.773 209.304C102.263 209.752 102.893 209.976 103.661 209.976C104.279 209.976 104.797 209.837 105.213 209.56C105.639 209.272 105.933 208.883 106.093 208.392ZM103.549 204.2C102.834 204.2 102.247 204.392 101.789 204.776C101.341 205.16 101.063 205.704 100.957 206.408H106.141C106.087 205.736 105.821 205.203 105.341 204.808C104.861 204.403 104.263 204.2 103.549 204.2ZM101.485 201.64V200.152H102.861V201.64H101.485ZM104.269 201.64V200.152H105.645V201.64H104.269ZM109.515 211V203.192H110.891V206.408H115.419V203.192H116.795V211H115.419V207.576H110.891V211H109.515ZM119.39 211V203.192H120.766V206.392H122.046L124.942 203.192H126.478V203.272L123.166 206.936L126.654 210.92V211H124.99L121.998 207.592H120.766V211H119.39ZM135.238 203.192V211H134.23L133.99 209.768C133.638 210.216 133.211 210.563 132.71 210.808C132.208 211.043 131.659 211.16 131.062 211.16C129.952 211.16 129.024 210.776 128.278 210.008C127.531 209.24 127.158 208.269 127.158 207.096C127.158 205.923 127.531 204.952 128.278 204.184C129.024 203.416 129.952 203.032 131.062 203.032C131.659 203.032 132.208 203.155 132.71 203.4C133.211 203.635 133.638 203.976 133.99 204.424L134.23 203.192H135.238ZM131.254 209.928C132.043 209.928 132.688 209.667 133.19 209.144C133.702 208.611 133.958 207.928 133.958 207.096C133.958 206.264 133.702 205.587 133.19 205.064C132.688 204.531 132.043 204.264 131.254 204.264C130.464 204.264 129.819 204.531 129.318 205.064C128.816 205.587 128.566 206.264 128.566 207.096C128.566 207.928 128.816 208.611 129.318 209.144C129.819 209.667 130.464 209.928 131.254 209.928ZM140.609 211V203.192H141.985V206.408H146.513V203.192H147.889V211H146.513V207.576H141.985V211H140.609ZM157.988 203.192V211H156.98L156.74 209.768C156.388 210.216 155.961 210.563 155.46 210.808C154.958 211.043 154.409 211.16 153.812 211.16C152.702 211.16 151.774 210.776 151.028 210.008C150.281 209.24 149.908 208.269 149.908 207.096C149.908 205.923 150.281 204.952 151.028 204.184C151.774 203.416 152.702 203.032 153.812 203.032C154.409 203.032 154.958 203.155 155.46 203.4C155.961 203.635 156.388 203.976 156.74 204.424L156.98 203.192H157.988ZM154.004 209.928C154.793 209.928 155.438 209.667 155.94 209.144C156.452 208.611 156.708 207.928 156.708 207.096C156.708 206.264 156.452 205.587 155.94 205.064C155.438 204.531 154.793 204.264 154.004 204.264C153.214 204.264 152.569 204.531 152.068 205.064C151.566 205.587 151.316 206.264 151.316 207.096C151.316 207.928 151.566 208.611 152.068 209.144C152.569 209.667 153.214 209.928 154.004 209.928ZM160.577 211V203.192H161.953V206.408H166.481V203.192H167.857V211H166.481V207.576H161.953V211H160.577ZM173.988 203.032C175.194 203.032 176.18 203.411 176.948 204.168C177.716 204.925 178.1 205.901 178.1 207.096C178.1 208.291 177.716 209.267 176.948 210.024C176.18 210.781 175.194 211.16 173.988 211.16C172.794 211.16 171.812 210.781 171.044 210.024C170.276 209.267 169.892 208.291 169.892 207.096C169.892 205.901 170.276 204.925 171.044 204.168C171.812 203.411 172.794 203.032 173.988 203.032ZM173.988 209.928C174.788 209.928 175.439 209.667 175.94 209.144C176.442 208.621 176.692 207.939 176.692 207.096C176.692 206.253 176.442 205.571 175.94 205.048C175.439 204.525 174.788 204.264 173.988 204.264C173.188 204.264 172.538 204.525 172.036 205.048C171.535 205.571 171.284 206.253 171.284 207.096C171.284 207.939 171.535 208.621 172.036 209.144C172.538 209.667 173.188 209.928 173.988 209.928ZM185.981 207.896H187.405C187.245 208.877 186.807 209.667 186.093 210.264C185.389 210.861 184.53 211.16 183.516 211.16C182.365 211.16 181.415 210.781 180.669 210.024C179.922 209.256 179.549 208.28 179.549 207.096C179.549 205.912 179.922 204.941 180.669 204.184C181.415 203.416 182.365 203.032 183.516 203.032C184.53 203.032 185.389 203.331 186.093 203.928C186.807 204.515 187.245 205.304 187.405 206.296H185.981C185.842 205.667 185.554 205.171 185.117 204.808C184.679 204.445 184.146 204.264 183.516 204.264C182.749 204.264 182.13 204.525 181.661 205.048C181.191 205.56 180.957 206.243 180.957 207.096C180.957 207.949 181.191 208.637 181.661 209.16C182.13 209.672 182.749 209.928 183.516 209.928C184.146 209.928 184.679 209.747 185.117 209.384C185.554 209.021 185.842 208.525 185.981 207.896ZM189.359 211V203.192H190.735V209.368L195.023 203.192H196.639V211H195.263V204.824L190.975 211H189.359ZM201.234 204.36H198.21V203.192H205.666V204.36H202.626V211H201.234V204.36ZM213.09 207.896H214.514C214.354 208.877 213.917 209.667 213.202 210.264C212.498 210.861 211.639 211.16 210.626 211.16C209.474 211.16 208.525 210.781 207.778 210.024C207.031 209.256 206.658 208.28 206.658 207.096C206.658 205.912 207.031 204.941 207.778 204.184C208.525 203.416 209.474 203.032 210.626 203.032C211.639 203.032 212.498 203.331 213.202 203.928C213.917 204.515 214.354 205.304 214.514 206.296H213.09C212.951 205.667 212.663 205.171 212.226 204.808C211.789 204.445 211.255 204.264 210.626 204.264C209.858 204.264 209.239 204.525 208.77 205.048C208.301 205.56 208.066 206.243 208.066 207.096C208.066 207.949 208.301 208.637 208.77 209.16C209.239 209.672 209.858 209.928 210.626 209.928C211.255 209.928 211.789 209.747 212.226 209.384C212.663 209.021 212.951 208.525 213.09 207.896ZM219.22 208.28L217.38 211H215.86L217.828 208.136C217.199 207.976 216.713 207.688 216.372 207.272C216.041 206.856 215.876 206.344 215.876 205.736C215.876 204.936 216.153 204.312 216.708 203.864C217.263 203.416 218.031 203.192 219.012 203.192H223.012V211H221.652V208.28H219.22ZM217.284 205.752C217.284 206.2 217.428 206.547 217.716 206.792C218.015 207.027 218.441 207.144 218.996 207.144H221.652V204.344H218.996C218.441 204.344 218.015 204.467 217.716 204.712C217.428 204.947 217.284 205.293 217.284 205.752ZM67.2491 230V222.192H74.5291V230H73.1531V223.36H68.6251V230H67.2491ZM77.1241 233.04V222.192H78.1161L78.3721 223.408C78.7135 222.971 79.1348 222.635 79.6361 222.4C80.1481 222.155 80.6975 222.032 81.2841 222.032C82.3935 222.032 83.3215 222.416 84.0681 223.184C84.8148 223.952 85.1881 224.923 85.1881 226.096C85.1881 227.269 84.8148 228.24 84.0681 229.008C83.3215 229.776 82.3935 230.16 81.2841 230.16C80.7188 230.16 80.1961 230.053 79.7161 229.84C79.2361 229.616 78.8308 229.296 78.5001 228.88V233.04H77.1241ZM81.0921 223.264C80.3028 223.264 79.6521 223.531 79.1401 224.064C78.6388 224.587 78.3881 225.264 78.3881 226.096C78.3881 226.928 78.6388 227.611 79.1401 228.144C79.6521 228.667 80.3028 228.928 81.0921 228.928C81.8921 228.928 82.5428 228.667 83.0441 228.144C83.5455 227.611 83.7961 226.928 83.7961 226.096C83.7961 225.264 83.5455 224.587 83.0441 224.064C82.5428 223.531 81.8921 223.264 81.0921 223.264ZM90.7539 222.032C91.9592 222.032 92.9459 222.411 93.7139 223.168C94.4819 223.925 94.8659 224.901 94.8659 226.096C94.8659 227.291 94.4819 228.267 93.7139 229.024C92.9459 229.781 91.9592 230.16 90.7539 230.16C89.5592 230.16 88.5779 229.781 87.8099 229.024C87.0419 228.267 86.6579 227.291 86.6579 226.096C86.6579 224.901 87.0419 223.925 87.8099 223.168C88.5779 222.411 89.5592 222.032 90.7539 222.032ZM90.7539 228.928C91.5539 228.928 92.2045 228.667 92.7059 228.144C93.2072 227.621 93.4579 226.939 93.4579 226.096C93.4579 225.253 93.2072 224.571 92.7059 224.048C92.2045 223.525 91.5539 223.264 90.7539 223.264C89.9539 223.264 89.3032 223.525 88.8019 224.048C88.3005 224.571 88.0499 225.253 88.0499 226.096C88.0499 226.939 88.3005 227.621 88.8019 228.144C89.3032 228.667 89.9539 228.928 90.7539 228.928ZM100.57 222.032V218.96H101.946V222.032C103.205 222.043 104.234 222.427 105.034 223.184C105.834 223.941 106.234 224.912 106.234 226.096C106.234 227.291 105.829 228.267 105.018 229.024C104.218 229.781 103.194 230.16 101.946 230.16V233.04H100.57V230.16C99.3115 230.149 98.2821 229.765 97.4821 229.008C96.6821 228.251 96.2821 227.28 96.2821 226.096C96.2821 224.901 96.6821 223.925 97.4821 223.168C98.2928 222.411 99.3221 222.032 100.57 222.032ZM97.6741 226.096C97.6741 226.939 97.9408 227.621 98.4741 228.144C99.0181 228.667 99.7275 228.928 100.602 228.928H100.634V223.264H100.602C99.7275 223.264 99.0181 223.525 98.4741 224.048C97.9408 224.571 97.6741 225.253 97.6741 226.096ZM101.882 228.928H101.914C102.778 228.928 103.477 228.667 104.01 228.144C104.554 227.621 104.826 226.939 104.826 226.096C104.826 225.253 104.554 224.571 104.01 224.048C103.477 223.525 102.778 223.264 101.914 223.264H101.882V228.928ZM114.218 227.392H115.578C115.396 228.213 114.964 228.88 114.282 229.392C113.61 229.904 112.778 230.16 111.786 230.16C110.58 230.16 109.594 229.781 108.826 229.024C108.058 228.256 107.679 227.275 107.69 226.08C107.69 224.885 108.058 223.915 108.794 223.168C109.54 222.411 110.511 222.032 111.706 222.032C112.847 222.032 113.78 222.389 114.506 223.104C115.242 223.819 115.61 224.741 115.61 225.872C115.61 225.936 115.604 226.021 115.594 226.128C115.594 226.224 115.588 226.325 115.578 226.432H109.049C109.124 227.221 109.407 227.845 109.898 228.304C110.388 228.752 111.018 228.976 111.786 228.976C112.404 228.976 112.922 228.837 113.338 228.56C113.764 228.272 114.058 227.883 114.218 227.392ZM111.674 223.2C110.959 223.2 110.372 223.392 109.914 223.776C109.466 224.16 109.188 224.704 109.082 225.408H114.266C114.212 224.736 113.946 224.203 113.466 223.808C112.986 223.403 112.388 223.2 111.674 223.2ZM123.512 226.896H124.936C124.776 227.877 124.338 228.667 123.624 229.264C122.92 229.861 122.061 230.16 121.048 230.16C119.896 230.16 118.946 229.781 118.2 229.024C117.453 228.256 117.08 227.28 117.08 226.096C117.08 224.912 117.453 223.941 118.2 223.184C118.946 222.416 119.896 222.032 121.048 222.032C122.061 222.032 122.92 222.331 123.624 222.928C124.338 223.515 124.776 224.304 124.936 225.296H123.512C123.373 224.667 123.085 224.171 122.648 223.808C122.21 223.445 121.677 223.264 121.048 223.264C120.28 223.264 119.661 223.525 119.192 224.048C118.722 224.56 118.488 225.243 118.488 226.096C118.488 226.949 118.722 227.637 119.192 228.16C119.661 228.672 120.28 228.928 121.048 228.928C121.677 228.928 122.21 228.747 122.648 228.384C123.085 228.021 123.373 227.525 123.512 226.896ZM132.762 226.896H134.186C134.026 227.877 133.588 228.667 132.874 229.264C132.17 229.861 131.311 230.16 130.298 230.16C129.146 230.16 128.196 229.781 127.45 229.024C126.703 228.256 126.33 227.28 126.33 226.096C126.33 224.912 126.703 223.941 127.45 223.184C128.196 222.416 129.146 222.032 130.298 222.032C131.311 222.032 132.17 222.331 132.874 222.928C133.588 223.515 134.026 224.304 134.186 225.296H132.762C132.623 224.667 132.335 224.171 131.898 223.808C131.46 223.445 130.927 223.264 130.298 223.264C129.53 223.264 128.911 223.525 128.442 224.048C127.972 224.56 127.738 225.243 127.738 226.096C127.738 226.949 127.972 227.637 128.442 228.16C128.911 228.672 129.53 228.928 130.298 228.928C130.927 228.928 131.46 228.747 131.898 228.384C132.335 228.021 132.623 227.525 132.762 226.896ZM136.14 230V222.192H137.516V228.368L141.804 222.192H143.42V230H142.044V223.824L137.756 230H136.14ZM149.551 222.032C150.756 222.032 151.743 222.411 152.511 223.168C153.279 223.925 153.663 224.901 153.663 226.096C153.663 227.291 153.279 228.267 152.511 229.024C151.743 229.781 150.756 230.16 149.551 230.16C148.356 230.16 147.375 229.781 146.607 229.024C145.839 228.267 145.455 227.291 145.455 226.096C145.455 224.901 145.839 223.925 146.607 223.168C147.375 222.411 148.356 222.032 149.551 222.032ZM149.551 228.928C150.351 228.928 151.001 228.667 151.503 228.144C152.004 227.621 152.255 226.939 152.255 226.096C152.255 225.253 152.004 224.571 151.503 224.048C151.001 223.525 150.351 223.264 149.551 223.264C148.751 223.264 148.1 223.525 147.599 224.048C147.097 224.571 146.847 225.253 146.847 226.096C146.847 226.939 147.097 227.621 147.599 228.144C148.1 228.667 148.751 228.928 149.551 228.928ZM155.671 230V222.192H157.047V225.408H161.575V222.192H162.951V230H161.575V226.576H157.047V230H155.671ZM173.05 222.192V230H172.042L171.802 228.768C171.45 229.216 171.023 229.563 170.522 229.808C170.021 230.043 169.471 230.16 168.874 230.16C167.765 230.16 166.837 229.776 166.09 229.008C165.343 228.24 164.97 227.269 164.97 226.096C164.97 224.923 165.343 223.952 166.09 223.184C166.837 222.416 167.765 222.032 168.874 222.032C169.471 222.032 170.021 222.155 170.522 222.4C171.023 222.635 171.45 222.976 171.802 223.424L172.042 222.192H173.05ZM169.066 228.928C169.855 228.928 170.501 228.667 171.002 228.144C171.514 227.611 171.77 226.928 171.77 226.096C171.77 225.264 171.514 224.587 171.002 224.064C170.501 223.531 169.855 223.264 169.066 223.264C168.277 223.264 167.631 223.531 167.13 224.064C166.629 224.587 166.378 225.264 166.378 226.096C166.378 226.928 166.629 227.611 167.13 228.144C167.631 228.667 168.277 228.928 169.066 228.928ZM175 230H174.68V228.768H174.856C175.144 228.768 175.357 228.704 175.496 228.576C175.645 228.448 175.73 228.235 175.752 227.936L176.136 222.192H182.44V230H181.048V223.36H177.352L177 228.08C176.957 228.741 176.77 229.227 176.44 229.536C176.12 229.845 175.64 230 175 230ZM185.015 230V222.192H186.391V224.784H189.143C190.071 224.784 190.807 225.019 191.351 225.488C191.895 225.957 192.167 226.592 192.167 227.392C192.167 228.192 191.895 228.827 191.351 229.296C190.807 229.765 190.071 230 189.143 230H185.015ZM190.791 227.392C190.791 226.923 190.647 226.565 190.359 226.32C190.081 226.075 189.676 225.952 189.143 225.952H186.391V228.832H189.143C189.676 228.832 190.081 228.709 190.359 228.464C190.647 228.219 190.791 227.861 190.791 227.392ZM194.03 230V222.192H195.406V225.408H199.934V222.192H201.31V230H199.934V226.576H195.406V230H194.03ZM203.905 230V222.192H205.281V224.784H208.033C208.961 224.784 209.697 225.019 210.241 225.488C210.785 225.957 211.057 226.592 211.057 227.392C211.057 228.192 210.785 228.827 210.241 229.296C209.697 229.765 208.961 230 208.033 230H203.905ZM212.129 230V222.192H213.505V230H212.129ZM209.681 227.392C209.681 226.923 209.537 226.565 209.249 226.32C208.972 226.075 208.567 225.952 208.033 225.952H205.281V228.832H208.033C208.567 228.832 208.972 228.709 209.249 228.464C209.537 228.219 209.681 227.861 209.681 227.392ZM221.085 229.36H219.853L217.613 224.064L216.893 230H215.661L216.541 222.192H218.125L220.493 227.872L222.845 222.192H224.413L225.309 230H224.029L223.325 223.984L221.085 229.36ZM227.468 230V222.192H228.844V228.368L233.132 222.192H234.748V230H233.372V223.824L229.084 230H227.468ZM43.8132 249.528L44.0692 248.904H43.5572L40.3412 241.192H41.7972L44.5172 247.8L47.1732 241.192H48.5972L44.9812 249.96C44.6719 250.728 44.3039 251.267 43.8772 251.576C43.4505 251.885 42.8319 252.04 42.0212 252.04H41.0452V250.808H41.9572C42.4905 250.808 42.8799 250.717 43.1252 250.536C43.3812 250.355 43.6105 250.019 43.8132 249.528ZM55.7696 245.896H57.1936C57.0336 246.877 56.5962 247.667 55.8816 248.264C55.1776 248.861 54.3189 249.16 53.3056 249.16C52.1536 249.16 51.2042 248.781 50.4576 248.024C49.7109 247.256 49.3376 246.28 49.3376 245.096C49.3376 243.912 49.7109 242.941 50.4576 242.184C51.2042 241.416 52.1536 241.032 53.3056 241.032C54.3189 241.032 55.1776 241.331 55.8816 241.928C56.5962 242.515 57.0336 243.304 57.1936 244.296H55.7696C55.6309 243.667 55.3429 243.171 54.9056 242.808C54.4682 242.445 53.9349 242.264 53.3056 242.264C52.5376 242.264 51.9189 242.525 51.4496 243.048C50.9802 243.56 50.7456 244.243 50.7456 245.096C50.7456 245.949 50.9802 246.637 51.4496 247.16C51.9189 247.672 52.5376 247.928 53.3056 247.928C53.9349 247.928 54.4682 247.747 54.9056 247.384C55.3429 247.021 55.6309 246.525 55.7696 245.896ZM61.1476 242.36H58.1236V241.192H65.5796V242.36H62.5396V249H61.1476V242.36ZM74.6359 241.192V249H73.6279L73.3879 247.768C73.0359 248.216 72.6093 248.563 72.1079 248.808C71.6066 249.043 71.0573 249.16 70.4599 249.16C69.3506 249.16 68.4226 248.776 67.6759 248.008C66.9293 247.24 66.5559 246.269 66.5559 245.096C66.5559 243.923 66.9293 242.952 67.6759 242.184C68.4226 241.416 69.3506 241.032 70.4599 241.032C71.0573 241.032 71.6066 241.155 72.1079 241.4C72.6093 241.635 73.0359 241.976 73.3879 242.424L73.6279 241.192H74.6359ZM70.6519 247.928C71.4413 247.928 72.0866 247.667 72.5879 247.144C73.0999 246.611 73.3559 245.928 73.3559 245.096C73.3559 244.264 73.0999 243.587 72.5879 243.064C72.0866 242.531 71.4413 242.264 70.6519 242.264C69.8626 242.264 69.2173 242.531 68.7159 243.064C68.2146 243.587 67.9639 244.264 67.9639 245.096C67.9639 245.928 68.2146 246.611 68.7159 247.144C69.2173 247.667 69.8626 247.928 70.6519 247.928ZM77.2257 249V241.192H78.6017V244.408H83.1297V241.192H84.5057V249H83.1297V245.576H78.6017V249H77.2257ZM90.6367 241.032C91.842 241.032 92.8287 241.411 93.5967 242.168C94.3647 242.925 94.7487 243.901 94.7487 245.096C94.7487 246.291 94.3647 247.267 93.5967 248.024C92.8287 248.781 91.842 249.16 90.6367 249.16C89.442 249.16 88.4607 248.781 87.6927 248.024C86.9247 247.267 86.5407 246.291 86.5407 245.096C86.5407 243.901 86.9247 242.925 87.6927 242.168C88.4607 241.411 89.442 241.032 90.6367 241.032ZM90.6367 247.928C91.4367 247.928 92.0874 247.667 92.5887 247.144C93.09 246.621 93.3407 245.939 93.3407 245.096C93.3407 244.253 93.09 243.571 92.5887 243.048C92.0874 242.525 91.4367 242.264 90.6367 242.264C89.8367 242.264 89.186 242.525 88.6847 243.048C88.1834 243.571 87.9327 244.253 87.9327 245.096C87.9327 245.939 88.1834 246.621 88.6847 247.144C89.186 247.667 89.8367 247.928 90.6367 247.928ZM96.7569 249V241.192H100.837C101.701 241.192 102.378 241.379 102.869 241.752C103.37 242.125 103.621 242.643 103.621 243.304C103.621 243.688 103.536 244.019 103.365 244.296C103.205 244.573 102.965 244.792 102.645 244.952C103.061 245.123 103.376 245.363 103.589 245.672C103.802 245.981 103.909 246.355 103.909 246.792C103.909 247.485 103.658 248.029 103.157 248.424C102.656 248.808 101.973 249 101.109 249H96.7569ZM102.245 243.4C102.245 243.027 102.122 242.744 101.877 242.552C101.632 242.36 101.269 242.264 100.789 242.264H98.1169V244.488H100.789C101.269 244.488 101.632 244.397 101.877 244.216C102.122 244.024 102.245 243.752 102.245 243.4ZM102.533 246.712C102.533 246.339 102.405 246.056 102.149 245.864C101.893 245.661 101.52 245.56 101.029 245.56H98.1169V247.896H101.029C101.52 247.896 101.893 247.795 102.149 247.592C102.405 247.389 102.533 247.096 102.533 246.712ZM118.759 251.4H117.415V249H106.007V241.192H107.383V247.832H111.127V241.192H112.503V247.832H116.263V241.192H117.639V247.832H118.759V251.4ZM120.46 249V241.192H121.836V247.368L126.124 241.192H127.74V249H126.364V242.824L122.076 249H120.46ZM130.335 249V241.192H131.711V244.392H132.991L135.887 241.192H137.423V241.272L134.111 244.936L137.599 248.92V249H135.935L132.943 245.592H131.711V249H130.335ZM146.183 241.192V249H145.175L144.935 247.768C144.583 248.216 144.156 248.563 143.655 248.808C143.153 249.043 142.604 249.16 142.007 249.16C140.897 249.16 139.969 248.776 139.223 248.008C138.476 247.24 138.103 246.269 138.103 245.096C138.103 243.923 138.476 242.952 139.223 242.184C139.969 241.416 140.897 241.032 142.007 241.032C142.604 241.032 143.153 241.155 143.655 241.4C144.156 241.635 144.583 241.976 144.935 242.424L145.175 241.192H146.183ZM142.199 247.928C142.988 247.928 143.633 247.667 144.135 247.144C144.647 246.611 144.903 245.928 144.903 245.096C144.903 244.264 144.647 243.587 144.135 243.064C143.633 242.531 142.988 242.264 142.199 242.264C141.409 242.264 140.764 242.531 140.263 243.064C139.761 243.587 139.511 244.264 139.511 245.096C139.511 245.928 139.761 246.611 140.263 247.144C140.764 247.667 141.409 247.928 142.199 247.928ZM153.765 248.36H152.533L150.293 243.064L149.573 249H148.341L149.221 241.192H150.805L153.173 246.872L155.525 241.192H157.093L157.989 249H156.709L156.005 242.984L153.765 248.36ZM160.148 249V241.192H161.524V247.368L165.812 241.192H167.428V249H166.052V242.824L161.764 249H160.148ZM172.804 249V241.192H180.084V249H178.708V242.36H174.18V249H172.804ZM186.215 241.032C187.42 241.032 188.407 241.411 189.175 242.168C189.943 242.925 190.327 243.901 190.327 245.096C190.327 246.291 189.943 247.267 189.175 248.024C188.407 248.781 187.42 249.16 186.215 249.16C185.02 249.16 184.039 248.781 183.271 248.024C182.503 247.267 182.119 246.291 182.119 245.096C182.119 243.901 182.503 242.925 183.271 242.168C184.039 241.411 185.02 241.032 186.215 241.032ZM186.215 247.928C187.015 247.928 187.665 247.667 188.167 247.144C188.668 246.621 188.919 245.939 188.919 245.096C188.919 244.253 188.668 243.571 188.167 243.048C187.665 242.525 187.015 242.264 186.215 242.264C185.415 242.264 184.764 242.525 184.263 243.048C183.761 243.571 183.511 244.253 183.511 245.096C183.511 245.939 183.761 246.621 184.263 247.144C184.764 247.667 185.415 247.928 186.215 247.928ZM194.476 249H194.156V247.768H194.332C194.62 247.768 194.834 247.704 194.972 247.576C195.122 247.448 195.207 247.235 195.228 246.936L195.612 241.192H201.916V249H200.524V242.36H196.828L196.476 247.08C196.434 247.741 196.247 248.227 195.916 248.536C195.596 248.845 195.116 249 194.476 249ZM210.475 246.392H211.835C211.654 247.213 211.222 247.88 210.539 248.392C209.867 248.904 209.035 249.16 208.043 249.16C206.838 249.16 205.851 248.781 205.083 248.024C204.315 247.256 203.937 246.275 203.947 245.08C203.947 243.885 204.315 242.915 205.051 242.168C205.798 241.411 206.769 241.032 207.963 241.032C209.105 241.032 210.038 241.389 210.763 242.104C211.499 242.819 211.867 243.741 211.867 244.872C211.867 244.936 211.862 245.021 211.851 245.128C211.851 245.224 211.846 245.325 211.835 245.432H205.307C205.382 246.221 205.665 246.845 206.155 247.304C206.646 247.752 207.275 247.976 208.043 247.976C208.662 247.976 209.179 247.837 209.595 247.56C210.022 247.272 210.315 246.883 210.475 246.392ZM207.931 242.2C207.217 242.2 206.63 242.392 206.171 242.776C205.723 243.16 205.446 243.704 205.339 244.408H210.523C210.47 243.736 210.203 243.203 209.723 242.808C209.243 242.403 208.646 242.2 207.931 242.2ZM213.898 249V241.192H215.274V244.392H216.554L219.45 241.192H220.986V241.272L217.674 244.936L221.162 248.92V249H219.498L216.506 245.592H215.274V249H213.898ZM229.745 241.192V249H228.737L228.497 247.768C228.145 248.216 227.719 248.563 227.217 248.808C226.716 249.043 226.167 249.16 225.569 249.16C224.46 249.16 223.532 248.776 222.785 248.008C222.039 247.24 221.665 246.269 221.665 245.096C221.665 243.923 222.039 242.952 222.785 242.184C223.532 241.416 224.46 241.032 225.569 241.032C226.167 241.032 226.716 241.155 227.217 241.4C227.719 241.635 228.145 241.976 228.497 242.424L228.737 241.192H229.745ZM225.761 247.928C226.551 247.928 227.196 247.667 227.697 247.144C228.209 246.611 228.465 245.928 228.465 245.096C228.465 244.264 228.209 243.587 227.697 243.064C227.196 242.531 226.551 242.264 225.761 242.264C224.972 242.264 224.327 242.531 223.825 243.064C223.324 243.587 223.073 244.264 223.073 245.096C223.073 245.928 223.324 246.611 223.825 247.144C224.327 247.667 224.972 247.928 225.761 247.928ZM231.695 249H231.375V247.768H231.551C231.839 247.768 232.052 247.704 232.191 247.576C232.34 247.448 232.426 247.235 232.447 246.936L232.831 241.192H239.135V249H237.743V242.36H234.047L233.695 247.08C233.652 247.741 233.466 248.227 233.135 248.536C232.815 248.845 232.335 249 231.695 249ZM249.214 241.192V249H248.206L247.966 247.768C247.614 248.216 247.187 248.563 246.686 248.808C246.185 249.043 245.635 249.16 245.038 249.16C243.929 249.16 243.001 248.776 242.254 248.008C241.507 247.24 241.134 246.269 241.134 245.096C241.134 243.923 241.507 242.952 242.254 242.184C243.001 241.416 243.929 241.032 245.038 241.032C245.635 241.032 246.185 241.155 246.686 241.4C247.187 241.635 247.614 241.976 247.966 242.424L248.206 241.192H249.214ZM245.23 247.928C246.019 247.928 246.665 247.667 247.166 247.144C247.678 246.611 247.934 245.928 247.934 245.096C247.934 244.264 247.678 243.587 247.166 243.064C246.665 242.531 246.019 242.264 245.23 242.264C244.441 242.264 243.795 242.531 243.294 243.064C242.793 243.587 242.542 244.264 242.542 245.096C242.542 245.928 242.793 246.611 243.294 247.144C243.795 247.667 244.441 247.928 245.23 247.928ZM256.796 248.36H255.564L253.324 243.064L252.604 249H251.372L252.252 241.192H253.836L256.204 246.872L258.556 241.192H260.124L261.02 249H259.74L259.036 242.984L256.796 248.36Z" fill="black"/>
<path d="M48.35 166.48H50.87V174.616L56.144 166.48H59.024V178H56.504V169.882L51.23 178H48.35V166.48ZM63.095 180.7H60.719V175.948H61.403C61.559 175.696 61.673 175.402 61.745 175.066C61.829 174.73 61.883 174.298 61.907 173.77L62.159 169H69.755V175.948H70.853V180.7H68.477V178H63.095V180.7ZM64.337 171.052L64.157 173.86C64.133 174.316 64.085 174.718 64.013 175.066C63.953 175.402 63.869 175.696 63.761 175.948H67.289V171.052H64.337ZM78.493 174.976H80.941C80.785 175.936 80.311 176.71 79.519 177.298C78.739 177.886 77.779 178.18 76.639 178.18C75.247 178.18 74.107 177.748 73.219 176.884C72.343 176.008 71.905 174.88 71.905 173.5C71.905 172.108 72.331 170.98 73.183 170.116C74.047 169.252 75.163 168.82 76.531 168.82C77.875 168.82 78.955 169.246 79.771 170.098C80.599 170.95 81.013 172.072 81.013 173.464C81.013 173.548 81.007 173.65 80.995 173.77C80.995 173.878 80.989 174.016 80.977 174.184H74.335C74.431 174.808 74.677 175.288 75.073 175.624C75.481 175.948 76.003 176.11 76.639 176.11C77.119 176.11 77.521 176.014 77.845 175.822C78.169 175.618 78.385 175.336 78.493 174.976ZM76.459 170.836C75.895 170.836 75.439 170.98 75.091 171.268C74.743 171.544 74.503 171.964 74.371 172.528H78.583C78.499 172 78.265 171.586 77.881 171.286C77.497 170.986 77.023 170.836 76.459 170.836ZM91.6545 169V178H89.9085L89.4405 177.082C89.0805 177.442 88.6665 177.718 88.1985 177.91C87.7305 178.09 87.2265 178.18 86.6865 178.18C85.4385 178.18 84.3825 177.736 83.5185 176.848C82.6665 175.96 82.2405 174.844 82.2405 173.5C82.2405 172.156 82.6665 171.04 83.5185 170.152C84.3825 169.264 85.4385 168.82 86.6865 168.82C87.2265 168.82 87.7305 168.916 88.1985 169.108C88.6665 169.288 89.0805 169.558 89.4405 169.918L89.9085 169H91.6545ZM87.0465 175.984C87.7305 175.984 88.2885 175.756 88.7205 175.3C89.1525 174.844 89.3685 174.244 89.3685 173.5C89.3685 172.756 89.1525 172.156 88.7205 171.7C88.2885 171.232 87.7305 170.998 87.0465 170.998C86.3625 170.998 85.8045 171.232 85.3725 171.7C84.9405 172.156 84.7245 172.756 84.7245 173.5C84.7245 174.244 84.9405 174.844 85.3725 175.3C85.8045 175.756 86.3625 175.984 87.0465 175.984ZM93.8153 178H93.2213V175.786H93.4193C93.7193 175.786 93.9353 175.732 94.0673 175.624C94.2113 175.504 94.2953 175.318 94.3193 175.066L94.6613 169H102.311V178H99.8453V171.052H96.8393L96.5693 175.228C96.5093 176.188 96.2573 176.89 95.8133 177.334C95.3693 177.778 94.7033 178 93.8153 178ZM104.72 178V169H107.186V171.736H109.58C110.708 171.736 111.602 172.024 112.262 172.6C112.934 173.164 113.27 173.92 113.27 174.868C113.27 175.816 112.934 176.578 112.262 177.154C111.602 177.718 110.708 178 109.58 178H104.72ZM110.822 174.868C110.822 174.508 110.714 174.232 110.498 174.04C110.282 173.836 109.97 173.734 109.562 173.734H107.186V176.002H109.562C109.97 176.002 110.282 175.906 110.498 175.714C110.714 175.51 110.822 175.228 110.822 174.868ZM114.933 178V169H117.399V172.258H121.161V169H123.627V178H121.161V174.31H117.399V178H114.933ZM130.254 168.82C131.67 168.82 132.828 169.258 133.728 170.134C134.64 170.998 135.096 172.12 135.096 173.5C135.096 174.88 134.64 176.008 133.728 176.884C132.828 177.748 131.67 178.18 130.254 178.18C128.838 178.18 127.68 177.748 126.78 176.884C125.88 176.008 125.43 174.88 125.43 173.5C125.43 172.12 125.88 170.998 126.78 170.134C127.68 169.258 128.838 168.82 130.254 168.82ZM130.254 175.984C130.95 175.984 131.514 175.756 131.946 175.3C132.39 174.844 132.612 174.244 132.612 173.5C132.612 172.756 132.39 172.156 131.946 171.7C131.514 171.232 130.95 170.998 130.254 170.998C129.558 170.998 128.994 171.232 128.562 171.7C128.13 172.156 127.914 172.756 127.914 173.5C127.914 174.244 128.13 174.844 128.562 175.3C128.994 175.756 129.558 175.984 130.254 175.984ZM142.882 174.976H145.33C145.174 175.936 144.7 176.71 143.908 177.298C143.128 177.886 142.168 178.18 141.028 178.18C139.636 178.18 138.496 177.748 137.608 176.884C136.732 176.008 136.294 174.88 136.294 173.5C136.294 172.108 136.72 170.98 137.572 170.116C138.436 169.252 139.552 168.82 140.92 168.82C142.264 168.82 143.344 169.246 144.16 170.098C144.988 170.95 145.402 172.072 145.402 173.464C145.402 173.548 145.396 173.65 145.384 173.77C145.384 173.878 145.378 174.016 145.366 174.184H138.724C138.82 174.808 139.066 175.288 139.462 175.624C139.87 175.948 140.392 176.11 141.028 176.11C141.508 176.11 141.91 176.014 142.234 175.822C142.558 175.618 142.774 175.336 142.882 174.976ZM140.848 170.836C140.284 170.836 139.828 170.98 139.48 171.268C139.132 171.544 138.892 171.964 138.76 172.528H142.972C142.888 172 142.654 171.586 142.27 171.286C141.886 170.986 141.412 170.836 140.848 170.836ZM150.212 178V169H152.678V175.012L156.044 169H158.906V178H156.44V171.988L153.074 178H150.212ZM167.531 174.22H170.051C169.895 175.42 169.391 176.38 168.539 177.1C167.699 177.82 166.655 178.18 165.407 178.18C164.039 178.18 162.911 177.748 162.023 176.884C161.147 176.008 160.709 174.88 160.709 173.5C160.709 172.12 161.147 170.998 162.023 170.134C162.911 169.258 164.039 168.82 165.407 168.82C166.655 168.82 167.699 169.18 168.539 169.9C169.391 170.62 169.895 171.58 170.051 172.78H167.531C167.399 172.228 167.141 171.796 166.757 171.484C166.385 171.16 165.935 170.998 165.407 170.998C164.759 170.998 164.225 171.232 163.805 171.7C163.397 172.156 163.193 172.756 163.193 173.5C163.193 174.244 163.397 174.844 163.805 175.3C164.213 175.756 164.747 175.984 165.407 175.984C165.935 175.984 166.385 175.828 166.757 175.516C167.141 175.204 167.399 174.772 167.531 174.22ZM171.815 178V169H180.509V178H178.043V171.052H174.281V178H171.815ZM187.137 168.82C188.553 168.82 189.711 169.258 190.611 170.134C191.523 170.998 191.979 172.12 191.979 173.5C191.979 174.88 191.523 176.008 190.611 176.884C189.711 177.748 188.553 178.18 187.137 178.18C185.721 178.18 184.563 177.748 183.663 176.884C182.763 176.008 182.313 174.88 182.313 173.5C182.313 172.12 182.763 170.998 183.663 170.134C184.563 169.258 185.721 168.82 187.137 168.82ZM187.137 175.984C187.833 175.984 188.397 175.756 188.829 175.3C189.273 174.844 189.495 174.244 189.495 173.5C189.495 172.756 189.273 172.156 188.829 171.7C188.397 171.232 187.833 170.998 187.137 170.998C186.441 170.998 185.877 171.232 185.445 171.7C185.013 172.156 184.797 172.756 184.797 173.5C184.797 174.244 185.013 174.844 185.445 175.3C185.877 175.756 186.441 175.984 187.137 175.984ZM193.518 178H192.924V175.786H193.122C193.422 175.786 193.638 175.732 193.77 175.624C193.914 175.504 193.998 175.318 194.022 175.066L194.364 169H202.014V178H199.548V171.052H196.542L196.272 175.228C196.212 176.188 195.96 176.89 195.516 177.334C195.072 177.778 194.406 178 193.518 178ZM204.423 178V169H206.889V172.258H210.651V169H213.117V178H210.651V174.31H206.889V178H204.423ZM221.526 174.976H223.974C223.818 175.936 223.344 176.71 222.552 177.298C221.772 177.886 220.812 178.18 219.672 178.18C218.28 178.18 217.14 177.748 216.252 176.884C215.376 176.008 214.938 174.88 214.938 173.5C214.938 172.108 215.364 170.98 216.216 170.116C217.08 169.252 218.196 168.82 219.564 168.82C220.908 168.82 221.988 169.246 222.804 170.098C223.632 170.95 224.046 172.072 224.046 173.464C224.046 173.548 224.04 173.65 224.028 173.77C224.028 173.878 224.022 174.016 224.01 174.184H217.368C217.464 174.808 217.71 175.288 218.106 175.624C218.514 175.948 219.036 176.11 219.672 176.11C220.152 176.11 220.554 176.014 220.878 175.822C221.202 175.618 221.418 175.336 221.526 174.976ZM219.492 170.836C218.928 170.836 218.472 170.98 218.124 171.268C217.776 171.544 217.536 171.964 217.404 172.528H221.616C221.532 172 221.298 171.586 220.914 171.286C220.53 170.986 220.056 170.836 219.492 170.836ZM225.886 178V169H228.352V172.258H232.114V169H234.58V178H232.114V174.31H228.352V178H225.886ZM236.995 178V169H239.461V175.012L242.827 169H245.689V178H243.223V171.988L239.857 178H236.995ZM254.098 174.976H256.546C256.39 175.936 255.916 176.71 255.124 177.298C254.344 177.886 253.384 178.18 252.244 178.18C250.852 178.18 249.712 177.748 248.824 176.884C247.948 176.008 247.51 174.88 247.51 173.5C247.51 172.108 247.936 170.98 248.788 170.116C249.652 169.252 250.768 168.82 252.136 168.82C253.48 168.82 254.56 169.246 255.376 170.098C256.204 170.95 256.618 172.072 256.618 173.464C256.618 173.548 256.612 173.65 256.6 173.77C256.6 173.878 256.594 174.016 256.582 174.184H249.94C250.036 174.808 250.282 175.288 250.678 175.624C251.086 175.948 251.608 176.11 252.244 176.11C252.724 176.11 253.126 176.014 253.45 175.822C253.774 175.618 253.99 175.336 254.098 174.976ZM252.064 170.836C251.5 170.836 251.044 170.98 250.696 171.268C250.348 171.544 250.108 171.964 249.976 172.528H254.188C254.104 172 253.87 171.586 253.486 171.286C253.102 170.986 252.628 170.836 252.064 170.836Z" fill="black"/>
<g clip-path="url(#clip0)">
<path d="M193.939 100.089C190.417 95.7454 166.912 89.2984 166.014 88.5748C165.844 88.428 165.684 88.2699 165.535 88.1016C164.586 91.7531 161.517 92.3862 151.501 94.6158C141.486 92.3862 138.409 91.7531 137.465 88.1016C137.316 88.2696 137.157 88.4277 136.987 88.5748C136.09 89.3026 112.582 95.7496 109.06 100.093C103.911 106.438 105.072 121.886 105.201 133.017C105.221 134.611 105.869 136.133 107.006 137.253C108.143 138.373 109.677 139.001 111.275 139H191.726C193.324 139.001 194.858 138.373 195.995 137.253C197.132 136.133 197.78 134.611 197.8 133.017C197.928 121.885 199.088 106.438 193.939 100.089Z" fill="#82BEEA"/>
<path d="M162.918 95.3121L164.13 90.5605C162.319 92.2306 158.707 93.0078 151.5 94.6116C146.343 93.4642 143.026 92.7396 140.893 91.8078L148.069 108.1L151.5 114.943L162.918 95.3121Z" fill="#304452"/>
<path d="M168.414 55.8099C168.164 59.7907 167.834 63.9354 167.41 67.181C171.162 65.492 171.615 59.5246 171.771 56.1833C171.905 53.3532 169.448 54.998 168.414 55.8099Z" fill="#D4905B"/>
<path d="M134.586 55.8099C134.836 59.7907 135.166 63.9354 135.59 67.181C131.838 65.492 131.385 59.5246 131.228 56.1833C131.095 53.3532 133.552 54.998 134.586 55.8099Z" fill="#D4905B"/>
<path d="M162.031 78.7361C159.332 81.6967 155.706 84.2492 151.481 84.2492C147.282 84.2492 143.664 81.7188 140.968 78.7803V85.9319C140.301 86.5966 138.841 87.4043 137.563 88.1037C137.563 88.1037 137.563 88.2541 137.58 88.5107C138.641 92.2232 141.601 94.618 151.5 94.618C161.4 94.618 164.361 92.2232 165.415 88.5107C165.432 88.2541 165.433 88.1037 165.433 88.1037C164.157 87.4032 162.693 86.5966 162.028 85.9319L162.031 78.7361Z" fill="#D4905B"/>
<path d="M167.392 53.0734C167.447 52.6464 167.076 47.9032 166.361 46.6485C164.675 43.6732 159.504 42.3197 158.592 42.3071C157.633 42.2934 154.333 44.6208 153.176 44.9668C152.036 45.3065 147.428 45.5274 144.712 44.2433C143.205 43.5323 140.681 45.8766 139.006 46.4655C133.912 48.2524 135.616 65.2269 135.466 66.3228C135.819 69.255 136.239 71.5887 136.739 72.6204C138.782 76.8399 144.287 84.2491 151.477 84.2491C158.669 84.2491 164.173 76.8399 166.216 72.6204C166.813 71.3899 167.297 68.3147 167.692 64.5696C167.525 63.7125 166.992 56.2758 167.392 53.0734Z" fill="#DF9F6C"/>
<path d="M167.61 64.5728C167.445 63.7251 166.911 56.279 167.312 53.0734C167.367 52.6464 166.996 47.9032 166.282 46.6485C164.595 43.6732 159.422 42.3197 158.512 42.3071C157.552 42.2934 154.253 44.6208 153.095 44.9668C151.956 45.3065 147.348 45.5274 144.632 44.2433C143.124 43.5323 140.6 45.8766 138.924 46.4655C133.767 48.2755 135.582 65.6718 135.384 66.3691C134.743 66.1693 130.314 50.2317 131.532 46.1321C131.905 44.8753 131.502 42.2808 132.036 41.1491C132.491 40.1868 134.303 35.8675 135.008 35.0566C135.713 34.2457 139.583 33.1909 140.218 31.118C140.811 29.1786 143.907 30.2061 144.592 29.8917C145.452 29.4994 145.262 28.2794 146.133 27.8387C147.697 27.051 150.876 29.0903 151.096 29.186C151.096 29.186 152.604 28.2184 151.169 26.2054C151.169 26.2054 155.12 24.3418 158.832 29.7812C158.832 29.7812 159.639 28.2899 158.771 26.8743C158.771 26.8743 160.505 26.5756 163.165 32.0182C163.165 32.0182 164.157 31.0485 164.899 31.0485C164.899 31.0485 164.218 35.0755 164.713 35.8948C164.713 35.8948 171.678 41.0545 171.678 46.13C171.678 46.1321 171.039 56.5241 167.61 64.5728Z" fill="#4C352A"/>
<path d="M172.783 90.8886V113.983C172.784 115.226 172.328 116.426 171.502 117.357C170.677 118.288 169.539 118.886 168.302 119.038C163.174 119.669 155.031 120.593 151.502 120.593C147.972 120.593 139.829 119.668 134.701 119.038C133.465 118.886 132.326 118.288 131.5 117.357C130.675 116.426 130.219 115.226 130.219 113.983V90.8886C127.882 91.6511 125.173 92.5513 122.479 93.5179V139.003H180.523V93.5179C177.83 92.5492 175.12 91.65 172.783 90.8886Z" fill="#58656D"/>
<path d="M140.968 85.9256L137.563 88.4255L133.407 96.2912L142.485 104.16L140.709 107.657L151.501 114.943L140.968 85.9256Z" fill="#628DAC"/>
<path d="M162.032 85.9256L165.438 88.4255L169.594 96.2912L160.515 104.16L162.292 107.657L151.5 114.943L162.032 85.9256Z" fill="#628DAC"/>
<path d="M135.597 129.729V139H167.407V129.729C167.407 128.962 167.102 128.227 166.558 127.685C166.015 127.143 165.278 126.838 164.509 126.838H138.495C137.727 126.838 136.99 127.143 136.446 127.685C135.903 128.227 135.597 128.962 135.597 129.729Z" fill="#73838E"/>
<path d="M151.499 37.1853C151.499 37.1853 131.322 41.7234 131.322 53.9074C131.322 53.9074 133.662 59.8706 136.447 57.1288C139.232 54.387 143.307 49.2936 151.499 49.5565C159.692 49.2946 163.769 54.387 166.553 57.1288C169.337 59.8706 171.678 53.9074 171.678 53.9074C171.678 41.7234 151.499 37.1853 151.499 37.1853Z" fill="#82BEEA"/>
<path d="M153.485 24.1557C152.17 23.9485 150.83 23.9485 149.514 24.1557C144.426 24.9549 131.322 30.5953 131.322 39.0131V50.381C131.322 50.8185 131.834 51.0047 132.076 50.6545C134.311 47.432 141.369 38.5788 151.499 38.5788C161.63 38.5788 168.689 47.432 170.924 50.6545C171.166 51.0047 171.678 50.8185 171.678 50.381V39.0131C171.678 30.5953 158.574 24.9549 153.485 24.1557Z" fill="#628DAC"/>
</g>
<rect x="0.5" y="0.5" width="302" height="276" rx="9.5" stroke="#EBEBEB"/>
<defs>
<clipPath id="clip0">
<rect width="93" height="115" fill="white" transform="translate(105 24)"/>
</clipPath>
</defs>
</svg>
