<svg width="67" height="67" viewBox="0 0 67 67" fill="none" xmlns="http://www.w3.org/2000/svg">
<path d="M33.5 0C15.027 0 0 15.027 0 33.5C0 51.973 15.027 67 33.5 67C51.973 67 67 51.9704 67 33.5C67 15.0296 51.973 0 33.5 0ZM33.5 61.8102C17.8917 61.8102 5.18975 49.1109 5.18975 33.5C5.18975 17.8891 17.8917 5.18975 33.5 5.18975C49.1109 5.18975 61.8102 17.8891 61.8102 33.5C61.8102 49.1109 49.1083 61.8102 33.5 61.8102Z" fill="#13C404"/>
<path d="M48.8695 21.8489C47.8133 20.8888 46.1708 20.9641 45.2055 22.0253L29.3767 39.4553L21.7295 31.6811C20.72 30.6586 19.0801 30.6431 18.0603 31.6499C17.0379 32.6541 17.0224 34.2967 18.0292 35.3191L27.6017 45.0499C28.0921 45.5481 28.7564 45.8258 29.4518 45.8258C29.4673 45.8258 29.4855 45.8258 29.5011 45.8284C30.2173 45.8128 30.892 45.5066 31.372 44.9773L49.0457 25.5156C50.0086 24.4516 49.9307 22.8117 48.8695 21.8489Z" fill="#13C404"/>
</svg>
