<svg width="67" height="67" viewBox="0 0 67 67" fill="none" xmlns="http://www.w3.org/2000/svg">
<path d="M9.85236 57.1479C12.9222 60.2176 16.4981 62.6282 20.4811 64.3129C24.6074 66.0581 28.9876 66.9429 33.5001 66.9429C38.0126 66.9429 42.3929 66.0581 46.5192 64.3129C50.5021 62.6282 54.0781 60.2175 57.148 57.1479C60.2178 54.078 62.6285 50.502 64.313 46.519C66.0582 42.3928 66.9433 38.0125 66.9433 33.5001C66.9433 28.9874 66.0582 24.6072 64.313 20.4811C62.6285 16.4981 60.2176 12.9222 57.148 9.85233C54.0781 6.7825 50.5022 4.37184 46.5192 2.68724C42.3928 0.941896 38.0126 0.0570869 33.5001 0.0570869C28.9876 0.0570869 24.6074 0.94201 20.4811 2.68724C16.4981 4.37184 12.9222 6.78262 9.85236 9.85233C6.78254 12.922 4.37188 16.4981 2.68717 20.481C0.942052 24.6072 0.0571289 28.9874 0.0571289 33.5001C0.0571289 38.0126 0.942052 42.3928 2.68728 46.519C4.37188 50.502 6.78266 54.078 9.85236 57.1479ZM33.5001 4.93927C49.2739 4.93927 62.0609 17.7264 62.0609 33.5001C62.0609 49.2738 49.2739 62.0607 33.5001 62.0607C17.7264 62.0607 4.9393 49.2738 4.9393 33.5001C4.9393 17.7264 17.7264 4.93927 33.5001 4.93927Z" fill="#CB1212"/>
<path d="M33.5 67.0008C28.9794 67.0008 24.5919 66.1144 20.4588 64.3663C16.4689 62.6786 12.8868 60.2639 9.81199 57.189C6.73692 54.1139 4.32216 50.5317 2.63471 46.542C0.886404 42.4087 0 38.021 0 33.501C0 28.9809 0.886404 24.5931 2.6346 20.4597C4.32205 16.47 6.73692 12.8879 9.81188 9.81288C12.8868 6.73781 16.469 4.32305 20.4586 2.6356C24.5921 0.887404 28.9798 0.000999451 33.4999 0.000999451C38.0203 0.000999451 42.408 0.887405 46.541 2.63571C50.5308 4.32316 54.1128 6.73804 57.188 9.81299C60.2632 12.8883 62.678 16.4704 64.3653 20.4598C66.1136 24.5932 67 28.9809 67 33.501C67 38.021 66.1136 42.4087 64.3653 46.5422C62.678 50.5317 60.2633 54.1137 57.188 57.1892C54.1131 60.2639 50.5309 62.6786 46.541 64.3664C42.408 66.1144 38.0203 67.0008 33.5 67.0008ZM33.5 0.114963C28.9952 0.114963 24.6225 0.998291 20.5032 2.74056C16.5271 4.42231 12.9571 6.82887 9.89256 9.89345C6.82787 12.9581 4.42131 16.528 2.73956 20.504C0.99729 24.6234 0.113963 28.9962 0.113963 33.501C0.113963 38.0056 0.99729 42.3785 2.73956 46.4978C4.42131 50.4739 6.82787 54.0438 9.89256 57.1085C12.957 60.1728 16.5269 62.5794 20.5032 64.2614C24.6221 66.0035 28.9948 66.8868 33.5 66.8868C38.0052 66.8868 42.3778 66.0035 46.4968 64.2613C50.473 62.5794 54.043 60.1728 57.1074 57.1085C60.1723 54.0434 62.5787 50.4735 64.2602 46.4978C66.0026 42.3785 66.886 38.0057 66.886 33.501C66.886 28.9962 66.0026 24.6234 64.2602 20.5042C62.5788 16.5284 60.1723 12.9585 57.1074 9.89357C54.0428 6.82898 50.4727 4.42243 46.4968 2.74067C42.3777 0.998291 38.005 0.114963 33.5 0.114963ZM33.5 62.1186C25.8559 62.1186 18.6693 59.1419 13.2642 53.7368C7.859 48.3315 4.88218 41.1451 4.88218 33.501C4.88218 25.8569 7.85889 18.6703 13.2642 13.2652C18.6693 7.86001 25.8559 4.88318 33.5 4.88318C41.1441 4.88318 48.3306 7.86001 53.7357 13.2652C59.141 18.6704 62.1177 25.8569 62.1177 33.501C62.1177 41.1451 59.141 48.3316 53.7357 53.7368C48.3306 59.1419 41.144 62.1186 33.5 62.1186ZM33.5 4.99714C25.8864 4.99714 18.7285 7.96212 13.3447 13.3457C7.96112 18.7295 4.99614 25.8874 4.99614 33.501C4.99614 41.1147 7.96112 48.2726 13.3447 53.6561C18.7283 59.0397 25.8864 62.0047 33.5 62.0047C41.1136 62.0047 48.2715 59.0397 53.6552 53.6561C59.0388 48.2726 62.0037 41.1145 62.0037 33.501C62.0037 25.8874 59.0388 18.7294 53.6552 13.3457C48.2714 7.962 41.1136 4.99714 33.5 4.99714Z" fill="#CB1212"/>
<path d="M21.0745 45.9258C21.5512 46.4027 22.1758 46.641 22.8005 46.641C23.4253 46.641 24.05 46.4025 24.5266 45.9258L33.5003 36.9522L42.4741 45.9258C42.9507 46.4027 43.5755 46.641 44.2002 46.641C44.825 46.641 45.4496 46.4025 45.9263 45.9258C46.8796 44.9728 46.8796 43.4271 45.9263 42.4738L36.9524 33.5001L45.9261 24.5263C46.8794 23.573 46.8794 22.0273 45.9261 21.0741C44.973 20.1208 43.4273 20.1208 42.474 21.0741L33.5002 30.0479L24.5265 21.0741C23.5732 20.1208 22.0275 20.1208 21.0744 21.0741C20.121 22.0274 20.121 23.573 21.0744 24.5263L30.0482 33.5001L21.0744 42.4738C20.1212 43.4271 20.1212 44.9728 21.0745 45.9258Z" fill="#CB1212"/>
<path d="M44.1999 46.698C43.5326 46.698 42.9053 46.4382 42.4335 45.9662L33.5001 37.0327L24.5667 45.9662C24.0949 46.4382 23.4676 46.698 22.8003 46.698C22.1331 46.698 21.5057 46.4382 21.0339 45.9662C20.5621 45.4943 20.3022 44.8671 20.3022 44.2C20.3022 43.5327 20.5621 42.9055 21.0339 42.4335L29.9673 33.5001L21.0339 24.5667C20.06 23.5926 20.06 22.0078 21.0339 21.0338C21.5057 20.562 22.1329 20.3022 22.8003 20.3022C23.4676 20.3022 24.0949 20.562 24.5667 21.0338L33.5002 29.9672L42.4336 21.0338C42.9055 20.562 43.5328 20.3022 44.2 20.3022C44.8672 20.3022 45.4944 20.562 45.9662 21.0338C46.4382 21.5056 46.6979 22.133 46.6979 22.8002C46.6979 23.4675 46.4382 24.0948 45.9662 24.5667L37.0328 33.5001L45.9665 42.4335C46.4384 42.9055 46.6982 43.5327 46.6982 44.2C46.6982 44.8671 46.4384 45.4943 45.9665 45.9662C45.4943 46.4381 44.8671 46.698 44.1999 46.698ZM33.5001 36.8716L42.5141 45.8856C42.9642 46.336 43.563 46.5841 44.1999 46.5841C44.8366 46.5841 45.4354 46.336 45.8858 45.8856C46.336 45.4354 46.5841 44.8368 46.5841 44.2C46.5841 43.5631 46.336 42.9644 45.8858 42.5141L36.8715 33.5001L45.8855 24.4861C46.3358 24.0358 46.5838 23.4371 46.5838 22.8002C46.5838 22.1634 46.3358 21.5648 45.8855 21.1145C45.4354 20.6642 44.8367 20.4162 44.1999 20.4162C43.5631 20.4162 42.9643 20.6642 42.5141 21.1145L33.5001 30.1285L24.4861 21.1145C24.0358 20.6642 23.437 20.4162 22.8002 20.4162C22.1634 20.4162 21.5647 20.6642 21.1145 21.1145C20.185 22.0441 20.185 23.5565 21.1145 24.4861L30.1285 33.5001L21.1145 42.5141C20.6642 42.9644 20.4162 43.5631 20.4162 44.2C20.4162 44.8368 20.6642 45.4354 21.1145 45.8856C21.5648 46.336 22.1635 46.5841 22.8003 46.5841C23.4371 46.5841 24.0358 46.336 24.4862 45.8856L33.5001 36.8716Z" fill="#CB1212"/>
</svg>
