<svg width="303" height="410" viewBox="0 0 303 410" fill="none" xmlns="http://www.w3.org/2000/svg">
<rect x="0.5" y="0.5" width="302" height="409" rx="9.5" fill="white"/>
<path d="M55.9546 274.078C56.6026 274.318 57.1006 274.684 57.4486 275.176C57.8086 275.656 57.9886 276.22 57.9886 276.868C57.9886 277.864 57.5746 278.668 56.7466 279.28C55.9186 279.88 54.8206 280.18 53.4526 280.18C52.0966 280.18 50.9986 279.844 50.1586 279.172C49.3306 278.488 48.8746 277.558 48.7906 276.382H50.4106C50.4706 277.162 50.7646 277.762 51.2926 278.182C51.8206 278.602 52.5406 278.812 53.4526 278.812C54.3766 278.812 55.0906 278.638 55.5946 278.29C56.0986 277.942 56.3506 277.45 56.3506 276.814C56.3506 276.154 56.1166 275.656 55.6486 275.32C55.1926 274.972 54.5206 274.798 53.6326 274.798H51.6886V273.484H53.4706C54.3226 273.484 54.9706 273.322 55.4146 272.998C55.8586 272.662 56.0806 272.188 56.0806 271.576C56.0806 270.964 55.8406 270.496 55.3606 270.172C54.8926 269.836 54.2326 269.668 53.3806 269.668C52.5286 269.668 51.8386 269.884 51.3106 270.316C50.7826 270.736 50.5006 271.33 50.4646 272.098H48.8446C48.9286 270.934 49.3786 270.01 50.1946 269.326C51.0106 268.642 52.0786 268.3 53.3986 268.3C54.6946 268.3 55.7386 268.594 56.5306 269.182C57.3226 269.77 57.7186 270.55 57.7186 271.522C57.7186 272.098 57.5626 272.608 57.2506 273.052C56.9506 273.484 56.5186 273.826 55.9546 274.078ZM68.9029 271.216V280H67.7689L67.4989 278.614C67.1029 279.118 66.6229 279.508 66.0589 279.784C65.4949 280.048 64.8769 280.18 64.2049 280.18C62.9569 280.18 61.9129 279.748 61.0729 278.884C60.2329 278.02 59.8129 276.928 59.8129 275.608C59.8129 274.288 60.2329 273.196 61.0729 272.332C61.9129 271.468 62.9569 271.036 64.2049 271.036C64.8769 271.036 65.4949 271.174 66.0589 271.45C66.6229 271.714 67.1029 272.098 67.4989 272.602L67.7689 271.216H68.9029ZM64.4209 278.794C65.3089 278.794 66.0349 278.5 66.5989 277.912C67.1749 277.312 67.4629 276.544 67.4629 275.608C67.4629 274.672 67.1749 273.91 66.5989 273.322C66.0349 272.722 65.3089 272.422 64.4209 272.422C63.5329 272.422 62.8069 272.722 62.2429 273.322C61.6789 273.91 61.3969 274.672 61.3969 275.608C61.3969 276.544 61.6789 277.312 62.2429 277.912C62.8069 278.5 63.5329 278.794 64.4209 278.794ZM86.1624 282.7H84.6504V280H71.8164V271.216H73.3644V278.686H77.5764V271.216H79.1244V278.686H83.3544V271.216H84.9024V278.686H86.1624V282.7ZM88.0762 280V271.216H89.6242V278.164L94.4482 271.216H96.2662V280H94.7182V273.052L89.8942 280H88.0762ZM113.532 282.7H112.02V280H99.1855V271.216H100.734V278.686H104.946V271.216H106.494V278.686H110.724V271.216H112.272V278.686H113.532V282.7ZM123.887 271.216V280H122.753L122.483 278.614C122.087 279.118 121.607 279.508 121.043 279.784C120.479 280.048 119.861 280.18 119.189 280.18C117.941 280.18 116.897 279.748 116.057 278.884C115.217 278.02 114.797 276.928 114.797 275.608C114.797 274.288 115.217 273.196 116.057 272.332C116.897 271.468 117.941 271.036 119.189 271.036C119.861 271.036 120.479 271.174 121.043 271.45C121.607 271.714 122.087 272.098 122.483 272.602L122.753 271.216H123.887ZM119.405 278.794C120.293 278.794 121.019 278.5 121.583 277.912C122.159 277.312 122.447 276.544 122.447 275.608C122.447 274.672 122.159 273.91 121.583 273.322C121.019 272.722 120.293 272.422 119.405 272.422C118.517 272.422 117.791 272.722 117.227 273.322C116.663 273.91 116.381 274.672 116.381 275.608C116.381 276.544 116.663 277.312 117.227 277.912C117.791 278.5 118.517 278.794 119.405 278.794ZM133.533 277.066H135.063C134.859 277.99 134.373 278.74 133.605 279.316C132.849 279.892 131.913 280.18 130.797 280.18C129.441 280.18 128.331 279.754 127.467 278.902C126.603 278.038 126.177 276.934 126.189 275.59C126.189 274.246 126.603 273.154 127.431 272.314C128.271 271.462 129.363 271.036 130.707 271.036C131.991 271.036 133.041 271.438 133.857 272.242C134.685 273.046 135.099 274.084 135.099 275.356C135.099 275.428 135.093 275.524 135.081 275.644C135.081 275.752 135.075 275.866 135.063 275.986H127.719C127.803 276.874 128.121 277.576 128.673 278.092C129.225 278.596 129.933 278.848 130.797 278.848C131.493 278.848 132.075 278.692 132.543 278.38C133.023 278.056 133.353 277.618 133.533 277.066ZM130.671 272.35C129.867 272.35 129.207 272.566 128.691 272.998C128.187 273.43 127.875 274.042 127.755 274.834H133.587C133.527 274.078 133.227 273.478 132.687 273.034C132.147 272.578 131.475 272.35 130.671 272.35ZM139.633 272.53H136.231V271.216H144.619V272.53H141.199V280H139.633V272.53ZM157.936 271.216V280H156.802L156.532 278.614C156.136 279.118 155.656 279.508 155.092 279.784C154.528 280.048 153.91 280.18 153.238 280.18C151.99 280.18 150.946 279.748 150.106 278.884C149.266 278.02 148.846 276.928 148.846 275.608C148.846 274.288 149.266 273.196 150.106 272.332C150.946 271.468 151.99 271.036 153.238 271.036C153.91 271.036 154.528 271.174 155.092 271.45C155.656 271.714 156.136 272.098 156.532 272.602L156.802 271.216H157.936ZM153.454 278.794C154.342 278.794 155.068 278.5 155.632 277.912C156.208 277.312 156.496 276.544 156.496 275.608C156.496 274.672 156.208 273.91 155.632 273.322C155.068 272.722 154.342 272.422 153.454 272.422C152.566 272.422 151.84 272.722 151.276 273.322C150.712 273.91 150.43 274.672 150.43 275.608C150.43 276.544 150.712 277.312 151.276 277.912C151.84 278.5 152.566 278.794 153.454 278.794ZM160.85 280V271.216H165.44C166.412 271.216 167.174 271.426 167.726 271.846C168.29 272.266 168.572 272.848 168.572 273.592C168.572 274.024 168.476 274.396 168.284 274.708C168.104 275.02 167.834 275.266 167.474 275.446C167.942 275.638 168.296 275.908 168.536 276.256C168.776 276.604 168.896 277.024 168.896 277.516C168.896 278.296 168.614 278.908 168.05 279.352C167.486 279.784 166.718 280 165.746 280H160.85ZM167.024 273.7C167.024 273.28 166.886 272.962 166.61 272.746C166.334 272.53 165.926 272.422 165.386 272.422H162.38V274.924H165.386C165.926 274.924 166.334 274.822 166.61 274.618C166.886 274.402 167.024 274.096 167.024 273.7ZM167.348 277.426C167.348 277.006 167.204 276.688 166.916 276.472C166.628 276.244 166.208 276.13 165.656 276.13H162.38V278.758H165.656C166.208 278.758 166.628 278.644 166.916 278.416C167.204 278.188 167.348 277.858 167.348 277.426ZM173.506 272.53H170.104V271.216H178.492V272.53H175.072V280H173.506V272.53ZM184.216 271.036C185.572 271.036 186.682 271.462 187.546 272.314C188.41 273.166 188.842 274.264 188.842 275.608C188.842 276.952 188.41 278.05 187.546 278.902C186.682 279.754 185.572 280.18 184.216 280.18C182.872 280.18 181.768 279.754 180.904 278.902C180.04 278.05 179.608 276.952 179.608 275.608C179.608 274.264 180.04 273.166 180.904 272.314C181.768 271.462 182.872 271.036 184.216 271.036ZM184.216 278.794C185.116 278.794 185.848 278.5 186.412 277.912C186.976 277.324 187.258 276.556 187.258 275.608C187.258 274.66 186.976 273.892 186.412 273.304C185.848 272.716 185.116 272.422 184.216 272.422C183.316 272.422 182.584 272.716 182.02 273.304C181.456 273.892 181.174 274.66 181.174 275.608C181.174 276.556 181.456 277.324 182.02 277.912C182.584 278.5 183.316 278.794 184.216 278.794ZM196.63 279.28H195.244L192.724 273.322L191.914 280H190.528L191.518 271.216H193.3L195.964 277.606L198.61 271.216H200.374L201.382 280H199.942L199.15 273.232L196.63 279.28ZM207.701 271.036C209.057 271.036 210.167 271.462 211.031 272.314C211.895 273.166 212.327 274.264 212.327 275.608C212.327 276.952 211.895 278.05 211.031 278.902C210.167 279.754 209.057 280.18 207.701 280.18C206.357 280.18 205.253 279.754 204.389 278.902C203.525 278.05 203.093 276.952 203.093 275.608C203.093 274.264 203.525 273.166 204.389 272.314C205.253 271.462 206.357 271.036 207.701 271.036ZM207.701 278.794C208.601 278.794 209.333 278.5 209.897 277.912C210.461 277.324 210.743 276.556 210.743 275.608C210.743 274.66 210.461 273.892 209.897 273.304C209.333 272.716 208.601 272.422 207.701 272.422C206.801 272.422 206.069 272.716 205.505 273.304C204.941 273.892 204.659 274.66 204.659 275.608C204.659 276.556 204.941 277.324 205.505 277.912C206.069 278.5 206.801 278.794 207.701 278.794ZM214.244 275.626V271.9C214.244 270.496 214.652 269.428 215.468 268.696C216.284 267.952 217.472 267.58 219.032 267.58H222.416L222.074 268.894H219.05C217.946 268.894 217.124 269.146 216.584 269.65C216.044 270.142 215.774 270.898 215.774 271.918V272.926C216.134 272.41 216.602 272.008 217.178 271.72C217.754 271.432 218.384 271.288 219.068 271.288C220.316 271.288 221.342 271.708 222.146 272.548C222.962 273.376 223.37 274.432 223.37 275.716C223.37 277.024 222.938 278.098 222.074 278.938C221.222 279.766 220.124 280.18 218.78 280.18C217.436 280.18 216.344 279.76 215.504 278.92C214.664 278.068 214.244 276.97 214.244 275.626ZM218.78 272.656C217.892 272.656 217.166 272.944 216.602 273.52C216.038 274.084 215.756 274.822 215.756 275.734C215.756 276.646 216.032 277.384 216.584 277.948C217.148 278.512 217.88 278.794 218.78 278.794C219.68 278.794 220.406 278.512 220.958 277.948C221.51 277.384 221.786 276.646 221.786 275.734C221.786 274.822 221.504 274.084 220.94 273.52C220.388 272.944 219.668 272.656 218.78 272.656ZM225.643 280V271.216H227.191V278.164L232.015 271.216H233.833V280H232.285V273.052L227.461 280H225.643ZM236.032 280H235.672V278.614H235.87C236.194 278.614 236.434 278.542 236.59 278.398C236.758 278.254 236.854 278.014 236.878 277.678L237.31 271.216H244.402V280H242.836V272.53H238.678L238.282 277.84C238.234 278.584 238.024 279.13 237.652 279.478C237.292 279.826 236.752 280 236.032 280ZM247.299 280V271.216H248.847V274.132H251.943C252.987 274.132 253.815 274.396 254.427 274.924C255.039 275.452 255.345 276.166 255.345 277.066C255.345 277.966 255.039 278.68 254.427 279.208C253.815 279.736 252.987 280 251.943 280H247.299ZM253.797 277.066C253.797 276.538 253.635 276.136 253.311 275.86C252.999 275.584 252.543 275.446 251.943 275.446H248.847V278.686H251.943C252.543 278.686 252.999 278.548 253.311 278.272C253.635 277.996 253.797 277.594 253.797 277.066ZM38.3574 304.7H36.8454V300.686H37.6374C37.8174 300.398 37.9434 300.086 38.0154 299.75C38.0994 299.402 38.1594 298.934 38.1954 298.346L38.5734 293.216H45.5214V300.686H46.7814V304.7H45.2694V302H38.3574V304.7ZM39.9414 294.53L39.6174 298.49C39.5694 298.994 39.5034 299.426 39.4194 299.786C39.3474 300.146 39.2514 300.446 39.1314 300.686H43.9554V294.53H39.9414ZM52.6616 293.036C54.0176 293.036 55.1276 293.462 55.9916 294.314C56.8556 295.166 57.2876 296.264 57.2876 297.608C57.2876 298.952 56.8556 300.05 55.9916 300.902C55.1276 301.754 54.0176 302.18 52.6616 302.18C51.3176 302.18 50.2136 301.754 49.3496 300.902C48.4856 300.05 48.0536 298.952 48.0536 297.608C48.0536 296.264 48.4856 295.166 49.3496 294.314C50.2136 293.462 51.3176 293.036 52.6616 293.036ZM52.6616 300.794C53.5616 300.794 54.2936 300.5 54.8576 299.912C55.4216 299.324 55.7036 298.556 55.7036 297.608C55.7036 296.66 55.4216 295.892 54.8576 295.304C54.2936 294.716 53.5616 294.422 52.6616 294.422C51.7616 294.422 51.0296 294.716 50.4656 295.304C49.9016 295.892 49.6196 296.66 49.6196 297.608C49.6196 298.556 49.9016 299.324 50.4656 299.912C51.0296 300.5 51.7616 300.794 52.6616 300.794ZM58.8269 302H58.4669V300.614H58.6649C58.9889 300.614 59.2289 300.542 59.3849 300.398C59.5529 300.254 59.6489 300.014 59.6729 299.678L60.1049 293.216H67.1969V302H65.6309V294.53H61.4729L61.0769 299.84C61.0289 300.584 60.8189 301.13 60.4469 301.478C60.0869 301.826 59.5469 302 58.8269 302ZM70.0937 302V293.216H76.1057L75.6197 294.53H71.6417V302H70.0937ZM77.7402 302V293.216H79.2882V300.164L84.1122 293.216H85.9302V302H84.3822V295.052L79.5582 302H77.7402ZM95.5816 299.066H97.1116C96.9076 299.99 96.4216 300.74 95.6536 301.316C94.8976 301.892 93.9616 302.18 92.8456 302.18C91.4896 302.18 90.3796 301.754 89.5156 300.902C88.6516 300.038 88.2256 298.934 88.2376 297.59C88.2376 296.246 88.6516 295.154 89.4796 294.314C90.3196 293.462 91.4116 293.036 92.7556 293.036C94.0396 293.036 95.0896 293.438 95.9056 294.242C96.7336 295.046 97.1476 296.084 97.1476 297.356C97.1476 297.428 97.1416 297.524 97.1296 297.644C97.1296 297.752 97.1236 297.866 97.1116 297.986H89.7676C89.8516 298.874 90.1696 299.576 90.7216 300.092C91.2736 300.596 91.9816 300.848 92.8456 300.848C93.5416 300.848 94.1236 300.692 94.5916 300.38C95.0716 300.056 95.4016 299.618 95.5816 299.066ZM92.7196 294.35C91.9156 294.35 91.2556 294.566 90.7396 294.998C90.2356 295.43 89.9236 296.042 89.8036 296.834H95.6356C95.5756 296.078 95.2756 295.478 94.7356 295.034C94.1956 294.578 93.5236 294.35 92.7196 294.35ZM102.561 302V293.216H108.573L108.087 294.53H104.109V302H102.561ZM114.009 293.036C115.365 293.036 116.475 293.462 117.339 294.314C118.203 295.166 118.635 296.264 118.635 297.608C118.635 298.952 118.203 300.05 117.339 300.902C116.475 301.754 115.365 302.18 114.009 302.18C112.665 302.18 111.561 301.754 110.697 300.902C109.833 300.05 109.401 298.952 109.401 297.608C109.401 296.264 109.833 295.166 110.697 294.314C111.561 293.462 112.665 293.036 114.009 293.036ZM114.009 300.794C114.909 300.794 115.641 300.5 116.205 299.912C116.769 299.324 117.051 298.556 117.051 297.608C117.051 296.66 116.769 295.892 116.205 295.304C115.641 294.716 114.909 294.422 114.009 294.422C113.109 294.422 112.377 294.716 111.813 295.304C111.249 295.892 110.967 296.66 110.967 297.608C110.967 298.556 111.249 299.324 111.813 299.912C112.377 300.5 113.109 300.794 114.009 300.794ZM121.309 304.7H119.797V300.686H120.589C120.769 300.398 120.895 300.086 120.967 299.75C121.051 299.402 121.111 298.934 121.147 298.346L121.525 293.216H128.473V300.686H129.733V304.7H128.221V302H121.309V304.7ZM122.893 294.53L122.569 298.49C122.521 298.994 122.455 299.426 122.371 299.786C122.299 300.146 122.203 300.446 122.083 300.686H126.907V294.53H122.893ZM131.635 302V293.216H133.183V296.132H136.279C137.323 296.132 138.151 296.396 138.763 296.924C139.375 297.452 139.681 298.166 139.681 299.066C139.681 299.966 139.375 300.68 138.763 301.208C138.151 301.736 137.323 302 136.279 302H131.635ZM140.887 302V293.216H142.435V302H140.887ZM138.133 299.066C138.133 298.538 137.971 298.136 137.647 297.86C137.335 297.584 136.879 297.446 136.279 297.446H133.183V300.686H136.279C136.879 300.686 137.335 300.548 137.647 300.272C137.971 299.996 138.133 299.594 138.133 299.066ZM143.978 304.664L144.878 300.182H146.678L145.382 304.664H143.978ZM158.596 298.508H160.198C160.018 299.612 159.526 300.5 158.722 301.172C157.93 301.844 156.964 302.18 155.824 302.18C154.528 302.18 153.46 301.754 152.62 300.902C151.78 300.038 151.36 298.94 151.36 297.608C151.36 296.276 151.78 295.184 152.62 294.332C153.46 293.468 154.528 293.036 155.824 293.036C156.964 293.036 157.93 293.372 158.722 294.044C159.526 294.704 160.018 295.592 160.198 296.708H158.596C158.44 296 158.116 295.442 157.624 295.034C157.132 294.626 156.532 294.422 155.824 294.422C154.96 294.422 154.264 294.716 153.736 295.304C153.208 295.88 152.944 296.648 152.944 297.608C152.944 298.568 153.208 299.342 153.736 299.93C154.264 300.506 154.96 300.794 155.824 300.794C156.532 300.794 157.132 300.59 157.624 300.182C158.116 299.774 158.44 299.216 158.596 298.508ZM166.374 293.036C167.73 293.036 168.84 293.462 169.704 294.314C170.568 295.166 171 296.264 171 297.608C171 298.952 170.568 300.05 169.704 300.902C168.84 301.754 167.73 302.18 166.374 302.18C165.03 302.18 163.926 301.754 163.062 300.902C162.198 300.05 161.766 298.952 161.766 297.608C161.766 296.264 162.198 295.166 163.062 294.314C163.926 293.462 165.03 293.036 166.374 293.036ZM166.374 300.794C167.274 300.794 168.006 300.5 168.57 299.912C169.134 299.324 169.416 298.556 169.416 297.608C169.416 296.66 169.134 295.892 168.57 295.304C168.006 294.716 167.274 294.422 166.374 294.422C165.474 294.422 164.742 294.716 164.178 295.304C163.614 295.892 163.332 296.66 163.332 297.608C163.332 298.556 163.614 299.324 164.178 299.912C164.742 300.5 165.474 300.794 166.374 300.794ZM173.309 302H171.545L175.235 297.446L171.815 293.216H173.687L176.261 296.402L178.835 293.216H180.617L177.143 297.5L180.797 302H178.925L176.117 298.526L173.309 302ZM182.541 305.42V293.216H183.657L183.945 294.584C184.329 294.092 184.803 293.714 185.367 293.45C185.943 293.174 186.561 293.036 187.221 293.036C188.469 293.036 189.513 293.468 190.353 294.332C191.193 295.196 191.613 296.288 191.613 297.608C191.613 298.928 191.193 300.02 190.353 300.884C189.513 301.748 188.469 302.18 187.221 302.18C186.585 302.18 185.997 302.06 185.457 301.82C184.917 301.568 184.461 301.208 184.089 300.74V305.42H182.541ZM187.005 294.422C186.117 294.422 185.385 294.722 184.809 295.322C184.245 295.91 183.963 296.672 183.963 297.608C183.963 298.544 184.245 299.312 184.809 299.912C185.385 300.5 186.117 300.794 187.005 300.794C187.905 300.794 188.637 300.5 189.201 299.912C189.765 299.312 190.047 298.544 190.047 297.608C190.047 296.672 189.765 295.91 189.201 295.322C188.637 294.722 187.905 294.422 187.005 294.422ZM202.338 293.216V302H201.204L200.934 300.614C200.538 301.118 200.058 301.508 199.494 301.784C198.93 302.048 198.312 302.18 197.64 302.18C196.392 302.18 195.348 301.748 194.508 300.884C193.668 300.02 193.248 298.928 193.248 297.608C193.248 296.288 193.668 295.196 194.508 294.332C195.348 293.468 196.392 293.036 197.64 293.036C198.312 293.036 198.93 293.174 199.494 293.45C200.058 293.714 200.538 294.098 200.934 294.602L201.204 293.216H202.338ZM197.856 300.794C198.744 300.794 199.47 300.5 200.034 299.912C200.61 299.312 200.898 298.544 200.898 297.608C200.898 296.672 200.61 295.91 200.034 295.322C199.47 294.722 198.744 294.422 197.856 294.422C196.968 294.422 196.242 294.722 195.678 295.322C195.114 295.91 194.832 296.672 194.832 297.608C194.832 298.544 195.114 299.312 195.678 299.912C196.242 300.5 196.968 300.794 197.856 300.794ZM205.252 302V293.216H206.8V296.834H211.894V293.216H213.442V302H211.894V298.148H206.8V302H205.252ZM219.457 298.94L217.387 302H215.677L217.891 298.778C217.183 298.598 216.637 298.274 216.253 297.806C215.881 297.338 215.695 296.762 215.695 296.078C215.695 295.178 216.007 294.476 216.631 293.972C217.255 293.468 218.119 293.216 219.223 293.216H223.723V302H222.193V298.94H219.457ZM217.279 296.096C217.279 296.6 217.441 296.99 217.765 297.266C218.101 297.53 218.581 297.662 219.205 297.662H222.193V294.512H219.205C218.581 294.512 218.101 294.65 217.765 294.926C217.441 295.19 217.279 295.58 217.279 296.096ZM229.741 298.94L227.671 302H225.961L228.175 298.778C227.467 298.598 226.921 298.274 226.537 297.806C226.165 297.338 225.979 296.762 225.979 296.078C225.979 295.178 226.291 294.476 226.915 293.972C227.539 293.468 228.403 293.216 229.507 293.216H234.007V302H232.477V298.94H229.741ZM227.563 296.096C227.563 296.6 227.725 296.99 228.049 297.266C228.385 297.53 228.865 297.662 229.489 297.662H232.477V294.512H229.489C228.865 294.512 228.385 294.65 228.049 294.926C227.725 295.19 227.563 295.58 227.563 296.096ZM246.789 299.066H248.319C248.115 299.99 247.629 300.74 246.861 301.316C246.105 301.892 245.169 302.18 244.053 302.18C242.697 302.18 241.587 301.754 240.723 300.902C239.859 300.038 239.433 298.934 239.445 297.59C239.445 296.246 239.859 295.154 240.687 294.314C241.527 293.462 242.619 293.036 243.963 293.036C245.247 293.036 246.297 293.438 247.113 294.242C247.941 295.046 248.355 296.084 248.355 297.356C248.355 297.428 248.349 297.524 248.337 297.644C248.337 297.752 248.331 297.866 248.319 297.986H240.975C241.059 298.874 241.377 299.576 241.929 300.092C242.481 300.596 243.189 300.848 244.053 300.848C244.749 300.848 245.331 300.692 245.799 300.38C246.279 300.056 246.609 299.618 246.789 299.066ZM243.927 294.35C243.123 294.35 242.463 294.566 241.947 294.998C241.443 295.43 241.131 296.042 241.011 296.834H246.843C246.783 296.078 246.483 295.478 245.943 295.034C245.403 294.578 244.731 294.35 243.927 294.35ZM250.639 302V293.216H256.651L256.165 294.53H252.187V302H250.639ZM262.087 293.036C263.443 293.036 264.553 293.462 265.417 294.314C266.281 295.166 266.713 296.264 266.713 297.608C266.713 298.952 266.281 300.05 265.417 300.902C264.553 301.754 263.443 302.18 262.087 302.18C260.743 302.18 259.639 301.754 258.775 300.902C257.911 300.05 257.479 298.952 257.479 297.608C257.479 296.264 257.911 295.166 258.775 294.314C259.639 293.462 260.743 293.036 262.087 293.036ZM262.087 300.794C262.987 300.794 263.719 300.5 264.283 299.912C264.847 299.324 265.129 298.556 265.129 297.608C265.129 296.66 264.847 295.892 264.283 295.304C263.719 294.716 262.987 294.422 262.087 294.422C261.187 294.422 260.455 294.716 259.891 295.304C259.327 295.892 259.045 296.66 259.045 297.608C259.045 298.556 259.327 299.324 259.891 299.912C260.455 300.5 261.187 300.794 262.087 300.794ZM93.5693 316.53H90.1673V315.216H98.5553V316.53H95.1353V324H93.5693V316.53ZM104.28 315.036C105.636 315.036 106.746 315.462 107.61 316.314C108.474 317.166 108.906 318.264 108.906 319.608C108.906 320.952 108.474 322.05 107.61 322.902C106.746 323.754 105.636 324.18 104.28 324.18C102.936 324.18 101.832 323.754 100.968 322.902C100.104 322.05 99.6718 320.952 99.6718 319.608C99.6718 318.264 100.104 317.166 100.968 316.314C101.832 315.462 102.936 315.036 104.28 315.036ZM104.28 322.794C105.18 322.794 105.912 322.5 106.476 321.912C107.04 321.324 107.322 320.556 107.322 319.608C107.322 318.66 107.04 317.892 106.476 317.304C105.912 316.716 105.18 316.422 104.28 316.422C103.38 316.422 102.648 316.716 102.084 317.304C101.52 317.892 101.238 318.66 101.238 319.608C101.238 320.556 101.52 321.324 102.084 321.912C102.648 322.5 103.38 322.794 104.28 322.794ZM111.165 324V315.216H115.755C116.727 315.216 117.489 315.426 118.041 315.846C118.605 316.266 118.887 316.848 118.887 317.592C118.887 318.024 118.791 318.396 118.599 318.708C118.419 319.02 118.149 319.266 117.789 319.446C118.257 319.638 118.611 319.908 118.851 320.256C119.091 320.604 119.211 321.024 119.211 321.516C119.211 322.296 118.929 322.908 118.365 323.352C117.801 323.784 117.033 324 116.061 324H111.165ZM117.339 317.7C117.339 317.28 117.201 316.962 116.925 316.746C116.649 316.53 116.241 316.422 115.701 316.422H112.695V318.924H115.701C116.241 318.924 116.649 318.822 116.925 318.618C117.201 318.402 117.339 318.096 117.339 317.7ZM117.663 321.426C117.663 321.006 117.519 320.688 117.231 320.472C116.943 320.244 116.523 320.13 115.971 320.13H112.695V322.758H115.971C116.523 322.758 116.943 322.644 117.231 322.416C117.519 322.188 117.663 321.858 117.663 321.426ZM130.013 315.216V324H128.879L128.609 322.614C128.213 323.118 127.733 323.508 127.169 323.784C126.605 324.048 125.987 324.18 125.315 324.18C124.067 324.18 123.023 323.748 122.183 322.884C121.343 322.02 120.923 320.928 120.923 319.608C120.923 318.288 121.343 317.196 122.183 316.332C123.023 315.468 124.067 315.036 125.315 315.036C125.987 315.036 126.605 315.174 127.169 315.45C127.733 315.714 128.213 316.098 128.609 316.602L128.879 315.216H130.013ZM125.531 322.794C126.419 322.794 127.145 322.5 127.709 321.912C128.285 321.312 128.573 320.544 128.573 319.608C128.573 318.672 128.285 317.91 127.709 317.322C127.145 316.722 126.419 316.422 125.531 316.422C124.643 316.422 123.917 316.722 123.353 317.322C122.789 317.91 122.507 318.672 122.507 319.608C122.507 320.544 122.789 321.312 123.353 321.912C123.917 322.5 124.643 322.794 125.531 322.794ZM132.927 327.42V315.216H134.043L134.331 316.584C134.715 316.092 135.189 315.714 135.753 315.45C136.329 315.174 136.947 315.036 137.607 315.036C138.855 315.036 139.899 315.468 140.739 316.332C141.579 317.196 141.999 318.288 141.999 319.608C141.999 320.928 141.579 322.02 140.739 322.884C139.899 323.748 138.855 324.18 137.607 324.18C136.971 324.18 136.383 324.06 135.843 323.82C135.303 323.568 134.847 323.208 134.475 322.74V327.42H132.927ZM137.391 316.422C136.503 316.422 135.771 316.722 135.195 317.322C134.631 317.91 134.349 318.672 134.349 319.608C134.349 320.544 134.631 321.312 135.195 321.912C135.771 322.5 136.503 322.794 137.391 322.794C138.291 322.794 139.023 322.5 139.587 321.912C140.151 321.312 140.433 320.544 140.433 319.608C140.433 318.672 140.151 317.91 139.587 317.322C139.023 316.722 138.291 316.422 137.391 316.422ZM144.282 324V315.216H145.83V318.834H150.924V315.216H152.472V324H150.924V320.148H145.83V324H144.282ZM155.392 324V315.216H156.94V318.132H160.036C161.08 318.132 161.908 318.396 162.52 318.924C163.132 319.452 163.438 320.166 163.438 321.066C163.438 321.966 163.132 322.68 162.52 323.208C161.908 323.736 161.08 324 160.036 324H155.392ZM164.644 324V315.216H166.192V324H164.644ZM161.89 321.066C161.89 320.538 161.728 320.136 161.404 319.86C161.092 319.584 160.636 319.446 160.036 319.446H156.94V322.686H160.036C160.636 322.686 161.092 322.548 161.404 322.272C161.728 321.996 161.89 321.594 161.89 321.066ZM169.103 324V315.216H170.651V322.164L175.475 315.216H177.293V324H175.745V317.052L170.921 324H169.103ZM173.207 314.28C172.379 314.28 171.731 314.052 171.263 313.596C170.795 313.14 170.561 312.504 170.561 311.688H171.875C171.875 312.204 171.983 312.588 172.199 312.84C172.415 313.092 172.751 313.218 173.207 313.218C173.663 313.218 173.999 313.092 174.215 312.84C174.431 312.588 174.539 312.204 174.539 311.688H175.853C175.853 312.504 175.619 313.14 175.151 313.596C174.683 314.052 174.035 314.28 173.207 314.28ZM183.341 324V315.216H187.931C188.903 315.216 189.665 315.426 190.217 315.846C190.781 316.266 191.063 316.848 191.063 317.592C191.063 318.024 190.967 318.396 190.775 318.708C190.595 319.02 190.325 319.266 189.965 319.446C190.433 319.638 190.787 319.908 191.027 320.256C191.267 320.604 191.387 321.024 191.387 321.516C191.387 322.296 191.105 322.908 190.541 323.352C189.977 323.784 189.209 324 188.237 324H183.341ZM189.515 317.7C189.515 317.28 189.377 316.962 189.101 316.746C188.825 316.53 188.417 316.422 187.877 316.422H184.871V318.924H187.877C188.417 318.924 188.825 318.822 189.101 318.618C189.377 318.402 189.515 318.096 189.515 317.7ZM189.839 321.426C189.839 321.006 189.695 320.688 189.407 320.472C189.119 320.244 188.699 320.13 188.147 320.13H184.871V322.758H188.147C188.699 322.758 189.119 322.644 189.407 322.416C189.695 322.188 189.839 321.858 189.839 321.426ZM193.747 324V315.216H195.295V322.164L200.119 315.216H201.937V324H200.389V317.052L195.565 324H193.747ZM205.27 326.7H203.758V322.686H204.55C204.73 322.398 204.856 322.086 204.928 321.75C205.012 321.402 205.072 320.934 205.108 320.346L205.486 315.216H212.434V322.686H213.694V326.7H212.182V324H205.27V326.7ZM206.854 316.53L206.53 320.49C206.482 320.994 206.416 321.426 206.332 321.786C206.26 322.146 206.164 322.446 206.044 322.686H210.868V316.53H206.854Z" fill="black"/>
<path d="M108.574 141.789C110.06 138.545 111.563 135.319 113.049 132.075C114.245 129.514 115.423 126.953 116.619 124.375C118.002 121.387 119.215 118.314 120.82 115.463C122.949 111.35 126.065 107.83 129.89 105.219C131.598 104.143 133.067 102.624 135.338 102.88C135.006 103.311 134.64 103.717 134.245 104.092C128.333 109.198 123.72 115.635 120.786 122.872C117.37 130.982 114.245 139.194 110.999 147.355C110.999 147.457 110.999 147.594 111.119 147.748C160.259 152.34 209.721 152.34 258.861 147.748C258.691 147.218 258.554 146.774 258.383 146.331C256.504 141.516 254.591 136.701 252.713 131.87C250.048 125.041 247.418 118.058 242.874 112.185C240.295 108.77 237.204 105.953 234.334 102.846C234.556 102.743 234.864 102.504 235.001 102.573C236.435 103.307 237.853 104.092 239.271 104.86L239.168 105.031L239.271 104.86C242.667 106.885 245.48 109.756 247.435 113.192C250.048 117.699 252.183 122.48 254.421 127.192C256.299 131.17 258.059 135.199 259.869 139.143C260.245 139.996 260.638 140.85 261.031 141.67C261.868 143.377 262.739 145.084 263.558 146.792C263.695 147.048 264.276 147.048 264.652 147.167C264.891 147.833 265.113 148.516 265.369 149.182C265.625 149.848 266.001 150.752 266.325 151.555C265.506 152.016 264.617 152.426 263.866 152.955C260.826 155.072 257.717 157.104 254.813 159.408C250.424 162.823 246 166.34 241.952 170.181C237.494 174.433 233.412 179.059 229.21 183.618C227.761 185.31 226.447 187.114 225.282 189.013C222.583 193.127 219.099 195.842 213.958 195.842H169.328C164.562 195.842 159.814 195.962 155.049 195.842C153.419 195.798 151.816 195.412 150.345 194.709C148.873 194.007 147.567 193.002 146.509 191.762C145.655 190.788 145.057 189.628 144.271 188.603C142.205 185.923 140.104 183.276 138.02 180.613C137.559 180.033 137.132 179.64 136.739 180.613L121.179 165.247C120.906 164.599 120.803 163.762 120.325 163.369C118.292 161.662 116.175 159.955 114.005 158.435C113.544 158.111 112.759 158.282 112.11 158.213C112.192 158.047 112.24 157.866 112.25 157.681C112.26 157.496 112.232 157.31 112.168 157.136C112.104 156.962 112.005 156.803 111.878 156.668C111.75 156.533 111.597 156.426 111.426 156.352C109.138 154.918 106.934 153.365 104.594 151.965C103.587 151.333 103.501 150.804 104.15 149.848C104.608 149.044 104.986 148.198 105.277 147.321L108.574 141.789Z" fill="#F7F7F7"/>
<path d="M234.334 102.897C237.204 106.004 240.295 108.907 242.874 112.236C247.418 118.109 250.048 125.058 252.713 131.921C254.591 136.753 256.504 141.567 258.383 146.382C258.554 146.826 258.691 147.27 258.861 147.799C209.721 152.391 160.259 152.391 111.119 147.799C111.119 147.645 110.965 147.509 110.999 147.406C114.245 139.245 117.404 131.033 120.786 122.924C123.72 115.686 128.333 109.249 134.245 104.143C134.64 103.768 135.006 103.363 135.338 102.931C138.008 101.036 141.24 100.097 144.51 100.268C143.663 100.771 142.857 101.342 142.102 101.975C139.694 104.28 137.286 106.619 134.997 109.043C131.46 112.736 128.532 116.966 126.32 121.575C124.151 126.099 122.289 130.777 120.342 135.421C119.095 138.409 117.968 141.431 116.67 144.743C117.013 144.661 117.345 144.541 117.661 144.384C120.769 142.404 123.792 140.321 126.969 138.46C134.997 133.731 143.059 129.019 151.206 124.477C155.527 122.053 160.019 119.902 164.511 117.768C170.216 115.07 175.955 112.39 181.762 109.931C190.163 106.404 198.77 103.388 207.536 100.899C207.912 100.797 208.202 100.387 208.544 100.114C214.949 100.251 221.354 100.285 227.759 100.524C230.159 100.531 232.483 101.37 234.334 102.897ZM230.013 107.251C228.459 112.014 227.776 117.068 222.822 119.646C227.776 122.292 228.493 127.345 230.013 132.058C231.482 127.277 232.251 122.258 237.119 119.646C232.234 116.931 231.465 111.997 230.013 107.251Z" fill="#172C30"/>
<path d="M267.555 152.033C272.721 159.6 276.183 168.198 277.701 177.233C278.032 179.832 278.209 182.449 278.23 185.069C278.316 186.35 278.623 187.613 278.606 188.893C278.504 194.596 278.367 200.315 278.196 205.966C278.196 207.042 277.82 208.118 277.82 209.193C277.82 216.022 277.82 223.022 277.82 229.937C277.72 230.609 277.512 231.26 277.205 231.866V213.803C276.084 216.433 274.329 218.744 272.097 220.531C269.865 222.319 267.225 223.526 264.412 224.047C262.175 222.51 259.869 221.042 257.7 219.403C255.272 217.39 252.299 216.147 249.16 215.834C244.805 215.578 240.432 215.544 236.077 215.544C204.535 215.544 172.994 215.544 141.453 215.544C135.509 215.544 129.497 215.391 123.639 215.544C119.271 215.52 115.031 217.017 111.648 219.778C109.65 221.486 107.378 222.681 105.226 224.115C102.345 223.541 99.6622 222.23 97.4406 220.308C95.219 218.387 93.5348 215.922 92.5529 213.154C92.2284 210.457 91.8868 207.776 91.5793 205.096C91.4598 204.157 91.3402 203.218 91.306 202.262C91.1523 198.54 90.9986 194.801 90.8961 191.079C90.8961 189.167 90.5033 187.152 92.1088 185.598L92.9286 184.779C93.3317 184.762 93.7295 184.681 94.1072 184.54C96.2592 183.311 98.4284 182.047 100.546 180.75C101.057 180.367 101.527 179.933 101.947 179.452L105.739 178.308L105.602 177.916C103.535 178.103 102.818 178.411 101.947 179.452C99.9656 180.408 97.9331 181.279 96.0201 182.354C94.9054 183.092 93.849 183.914 92.8603 184.813L92.0405 185.632C91.7672 185.103 91.2036 184.54 91.2719 184.062C91.5719 180.626 92.0451 177.207 92.6895 173.818C93.3114 170.516 94.2612 167.285 95.5248 164.172C97.1474 160.416 99.3166 156.899 101.298 153.313C101.369 153.115 101.489 152.938 101.645 152.797C101.801 152.656 101.99 152.556 102.194 152.506C102.399 152.455 102.612 152.455 102.816 152.507C103.021 152.559 103.209 152.66 103.365 152.801C104.321 153.535 105.209 154.355 106.132 155.14C105.073 158.726 104.065 162.345 102.972 165.93C102.439 167.567 102.413 169.326 102.897 170.977C103.382 172.628 104.354 174.095 105.687 175.184C107.345 176.566 109.184 177.715 111.153 178.598C113.097 179.415 115.087 180.116 117.114 180.698L142.871 189.406C143.548 190.057 144.187 190.746 144.784 191.471C145.992 193.176 147.592 194.566 149.45 195.522C151.308 196.479 153.369 196.975 155.459 196.969C174.964 197.105 194.487 197.071 213.992 196.969C215.702 197.007 217.4 196.687 218.98 196.032C220.559 195.376 221.984 194.399 223.164 193.162C224.308 191.949 225.385 190.703 226.58 189.474C228.613 188.706 230.628 187.886 232.695 187.203C241.28 184.335 249.877 181.489 258.486 178.667C261.427 177.71 263.953 175.776 265.642 173.186C266.344 172.258 266.82 171.18 267.033 170.036C267.247 168.892 267.192 167.715 266.872 166.596C265.745 162.669 264.6 158.76 263.456 154.833L267.555 152.033ZM140.445 209.978L140.684 210.422H229.62C227.915 208.941 226.093 207.599 224.172 206.41C220.57 203.91 216.309 202.532 211.925 202.449C193.359 202.449 174.793 202.449 156.227 202.449C154.26 202.513 152.326 202.972 150.54 203.798C148.139 204.914 145.816 206.192 143.588 207.622C142.5 208.352 141.451 209.138 140.445 209.978ZM242.482 205.932C242.618 206.134 242.772 206.322 242.943 206.496C249.143 210.217 255.343 213.905 261.526 217.644C262.078 218.052 262.717 218.326 263.392 218.445C264.068 218.563 264.763 218.523 265.42 218.327C267.993 217.571 270.285 216.074 272.013 214.025C272.905 212.821 273.459 211.4 273.619 209.91C274.062 204.513 272.979 199.1 270.493 194.288C268.905 191.352 267.282 190.874 264.412 192.581L251.449 200.401C248.494 202.227 245.556 204.054 242.482 205.932ZM127.43 206.12L123.604 203.713L105.482 192.632C102.75 190.925 100.956 191.369 99.402 194.118C96.674 199.263 95.5834 205.119 96.2763 210.9C96.4144 211.705 96.7294 212.469 97.1987 213.137C99.0133 215.751 101.723 217.61 104.816 218.361C105.553 218.584 106.348 218.516 107.037 218.173C111.358 215.715 115.577 213.154 119.881 210.627L127.43 206.12ZM263.866 177.54C265.98 179.238 268.405 180.508 271.005 181.279C268.943 179.495 266.502 178.205 263.866 177.506V177.54ZM275.344 184.369L275.702 183.84L273.994 182.781L273.687 183.259L275.344 184.369ZM272.901 182.662L273.277 182.115L272.013 181.467L271.757 181.911L272.901 182.662Z" fill="#F7F7F7"/>
<path d="M49.0499 97.9117C51.0312 97.9117 53.0125 97.9117 54.9938 97.9117C57.426 97.8546 59.7944 98.6925 61.6491 100.266C63.5038 101.84 64.7155 104.04 65.054 106.448C65.481 109.146 65.8567 111.843 66.2325 114.541C66.6082 117.238 66.9157 119.936 67.3085 123.077L82.6806 110.324L85.6696 112.953C85.0376 113.892 84.4569 114.797 83.842 115.685C80.3122 120.693 76.7709 125.701 73.2182 130.709C71.9386 132.583 70.1143 134.019 67.9917 134.823C65.0198 135.933 63.363 135.284 61.9796 132.467C60.9206 130.316 59.9299 128.148 58.8881 126.014C58.6645 125.504 58.3038 125.067 57.8462 124.75C57.7266 128.933 57.6412 133.116 57.4875 137.299C56.8555 153.587 56.2748 169.891 55.5404 186.179C54.8059 202.466 53.9178 218.617 53.0979 234.837C53.0703 235.175 53.0247 235.511 52.9613 235.844H46.3513C46.3236 235.724 46.2776 235.609 46.2147 235.503C46.2147 235.161 46.2147 234.82 46.2147 234.478V185.957C46.2147 177.83 46.2147 169.709 46.2147 161.594C46.2147 160.945 46.2147 160.296 46.1293 159.613H39.3826V188.091V188.928L39.2972 191.779C39.1081 192.402 38.9822 193.043 38.9215 193.691C38.9215 207.031 38.9215 220.359 38.9215 233.676C38.9771 234.333 39.0914 234.985 39.2631 235.622C39.2893 235.734 39.2893 235.851 39.2631 235.964H32.7214C31.1842 197.857 28.1439 159.835 27.5974 121.575C26.6067 123.88 24.3351 125.519 25.3941 128.728C25.8073 130.867 25.7431 133.071 25.2062 135.182C24.2326 141.516 23.0882 147.816 21.9951 154.252H17.9984C17.5714 149.984 17.1444 145.801 16.7345 141.635C16.5807 140.065 16.5466 138.494 16.3075 136.94C15.3681 130.811 16.8199 124.853 17.6226 118.86C18.1692 114.66 18.8695 110.494 19.5698 106.329C19.7723 104.845 20.3018 103.424 21.1199 102.169C21.9381 100.915 23.0245 99.857 24.3009 99.0726C25.4053 98.4009 26.6641 98.0246 27.9561 97.98C31.3721 97.8434 34.6515 97.98 37.9991 97.98C38.1529 98.8507 38.3237 99.6873 38.4774 100.575L41.3468 116.811L43.2256 128.762H43.5672L45.7023 116.146L48.8279 98.0483H48.9816L49.0499 97.9117Z" fill="#18273D"/>
<path d="M208.544 100.029C208.202 100.302 207.912 100.712 207.536 100.814C198.77 103.302 190.163 106.318 181.762 109.846C175.955 112.304 170.216 114.968 164.511 117.682C160.019 119.816 155.527 121.967 151.206 124.392C143.059 128.933 134.997 133.645 126.969 138.375C123.792 140.236 120.769 142.318 117.661 144.299C117.345 144.455 117.012 144.575 116.67 144.657C117.968 141.345 119.095 138.323 120.342 135.336C122.289 130.692 124.151 126.014 126.32 121.489C128.532 116.88 131.46 112.651 134.997 108.958C137.268 106.534 139.694 104.195 142.102 101.975C142.857 101.342 143.663 100.771 144.51 100.268C146.816 100.182 149.122 100.029 151.445 100.029C168.422 99.9491 185.411 99.8865 202.412 99.8409C204.461 99.7897 206.494 99.9604 208.544 100.029Z" fill="#505151"/>
<path d="M142.939 189.474L117.182 180.767C115.156 180.185 113.165 179.483 111.221 178.667C109.252 177.784 107.413 176.635 105.756 175.252C104.421 174.15 103.453 172.668 102.981 171.003C102.508 169.338 102.552 167.569 103.108 165.93C104.201 162.345 105.209 158.726 106.268 155.14C106.731 155.113 107.196 155.176 107.635 155.328C109.138 156.301 110.589 157.343 112.075 158.367L113.783 159.682L121.162 165.401L136.722 180.767C138.771 183.345 140.838 185.889 142.871 188.535C142.99 188.671 142.905 189.047 142.939 189.474ZM130.436 182.798L130.539 182.389L129.292 181.876C123.536 179.572 117.814 177.181 112.007 175.047C110.761 174.62 109.613 173.947 108.633 173.067C107.653 172.187 106.86 171.118 106.302 169.925C105.986 169.358 105.626 168.816 105.226 168.303C104.953 168.679 104.816 168.781 104.799 168.901C104.767 169.167 104.767 169.437 104.799 169.703C105.135 171.382 105.922 172.937 107.074 174.203C108.226 175.469 109.701 176.398 111.341 176.891C117.302 178.82 123.297 180.852 129.172 182.815C129.593 182.86 130.017 182.854 130.436 182.798Z" fill="#1C2F33"/>
<path d="M268.46 90.963C262.192 92.9264 259.784 98.0654 257.495 103.102C256.147 106.344 255.006 109.669 254.079 113.055C253.952 113.974 253.735 114.877 253.43 115.753C252.815 113.516 252.303 111.229 251.551 109.026C250.441 105.782 249.279 102.538 247.879 99.397C245.996 95.6046 242.788 92.6341 238.861 91.0484C239.966 90.5699 241.029 89.9988 242.038 89.3411C245.444 86.611 248.022 82.9872 249.484 78.8754C250.475 76.2234 251.403 73.5486 252.269 70.8511C252.49 69.9987 252.65 69.1314 252.747 68.256C252.832 67.778 252.952 67.317 253.054 66.8389H253.652C254.147 68.5462 254.694 70.356 255.121 72.1486C256.311 77.7266 258.844 82.9304 262.499 87.3094C263.785 88.4924 265.227 89.492 266.787 90.2801C267.328 90.5468 267.887 90.775 268.46 90.963Z" fill="#FFCA22"/>
<path d="M36.4961 91.3557C35.6777 90.78 35.0142 90.0113 34.5643 89.1179C34.1144 88.2244 33.892 87.2338 33.917 86.2338C33.5071 81.4875 33.0801 76.69 32.6018 71.8755C32.3115 68.2901 33.917 66.2926 37.4526 65.9512C41.7055 65.5243 45.9926 65.1829 50.2455 64.7731C51.6011 64.5191 53.0025 64.7154 54.236 65.3319C55.4696 65.9484 56.4675 66.9513 57.0775 68.1877C57.7564 69.3874 58.0159 70.7791 57.8148 72.1427C57.6137 73.5063 56.9636 74.764 55.9673 75.7169L55.4208 73.6681C52.9271 73.9071 50.4334 74.0779 47.9739 74.3852C45.5143 74.6925 43.1744 75.1364 41.1418 72.4901C41.5005 76.2461 41.7909 79.4217 42.0813 82.5973C42.2862 84.7997 42.9182 85.3972 45.0532 85.2094C48.845 84.885 52.6367 84.4924 56.4285 84.1338C56.5993 85.8411 56.8726 87.3606 56.9067 88.9825C56.9546 90.2171 56.5225 91.4222 55.701 92.3452C54.8795 93.2683 53.7323 93.8376 52.5001 93.9337L49.4769 94.2922C47.991 94.4117 46.505 94.5483 45.0019 94.6337C44.3577 94.7244 43.7018 94.6846 43.0732 94.5168C42.4447 94.3489 41.8563 94.0563 41.3432 93.6565C40.83 93.2567 40.4026 92.7578 40.0863 92.1895C39.7701 91.6211 39.5714 90.995 39.5022 90.3484C39.3794 89.5394 39.2996 88.7244 39.263 87.907C38.9214 84.2021 38.5969 80.4802 38.2724 76.7925C35.9666 76.5022 34.7197 77.0998 34.1561 78.6534C33.5925 80.2071 34.1561 81.3168 35.8641 82.4948C36.25 82.7204 36.5321 83.0881 36.6498 83.5192C36.9231 85.9436 37.111 88.385 37.2476 90.8264C37.2988 90.963 36.7181 91.1679 36.4961 91.3557Z" fill="#72533D"/>
<path d="M273.277 238.046C273.894 238.247 274.529 238.39 275.173 238.473C276.249 238.473 277.376 238.473 278.435 238.473C278.948 238.473 279.357 239.207 279.819 239.583C279.434 240.045 278.998 240.463 278.521 240.829C278.213 241 277.718 240.829 277.308 240.829H96.6179C96.2763 240.829 95.8664 240.949 95.6102 240.829C95.354 240.71 94.3633 240.18 94.2438 239.72C94.0217 238.798 94.7562 238.422 95.6273 238.405C96.0372 238.405 96.4471 238.405 96.857 238.405C98.3587 238.76 99.8821 239.017 101.417 239.173C104.68 239.293 107.959 239.173 111.221 239.173C112.852 239.282 114.471 238.837 115.816 237.91C116.352 238.201 116.927 238.413 117.524 238.541C118.463 238.541 119.42 238.422 120.376 238.422C164.067 238.422 207.758 238.422 251.449 238.422C252.3 238.357 253.145 238.225 253.977 238.029C255.194 238.904 256.684 239.315 258.178 239.19C261.594 239.105 265.01 239.293 268.426 239.19C270.074 238.956 271.698 238.573 273.277 238.046Z" fill="#D0D0D0"/>
<path d="M115.816 237.995C114.471 238.922 112.852 239.368 111.221 239.259C107.959 239.139 104.68 239.259 101.417 239.259C99.8821 239.102 98.3587 238.846 96.857 238.49C95.4147 237.407 94.2625 235.985 93.5027 234.35C92.7428 232.715 92.3989 230.917 92.5016 229.117C92.6553 223.842 92.5016 218.549 92.5016 213.256C93.4834 216.024 95.1677 218.489 97.3893 220.411C99.6109 222.332 102.294 223.644 105.175 224.217L113.322 225.515L115.03 225.822L117.865 225.925L118.719 226.249C118.6 227.956 118.429 229.664 118.378 231.371C118.366 233.818 117.454 236.176 115.816 237.995Z" fill="#59595A"/>
<path d="M273.277 238.046C271.697 238.567 270.074 238.944 268.426 239.173C265.01 239.344 261.594 239.173 258.178 239.173C256.684 239.298 255.194 238.887 253.977 238.012C252.511 236.69 251.607 234.858 251.449 232.89C251.278 230.671 251.21 228.451 251.09 226.232L251.534 225.788H252.354H253.567H254.779H256.026L256.897 225.498L264.31 224.166C267.122 223.646 269.762 222.438 271.994 220.651C274.226 218.864 275.981 216.552 277.103 213.922V232.037C276.428 234.364 275.1 236.45 273.277 238.046Z" fill="#59595A"/>
<path d="M266.291 140.611C266.331 139.063 266.503 137.521 266.804 136.001C267.504 133.44 269.998 132.706 272.064 132.484C275.944 131.921 279.885 131.921 283.764 132.484C287.658 133.253 288.888 136.189 287.334 140.56C285.78 144.931 282.21 146.638 278.179 147.389C275.987 147.705 273.761 147.705 271.569 147.389C270.285 147.05 269.058 146.521 267.931 145.818L266.291 140.611Z" fill="#F7F7F7"/>
<path d="M101.879 145.46C98.6846 148.874 94.7391 148.055 90.8961 147.287C88.4212 146.877 86.1448 145.679 84.4056 143.872C83.5242 142.936 82.8448 141.828 82.41 140.618C81.9751 139.408 81.7939 138.121 81.8778 136.838C82.0017 135.749 82.4717 134.729 83.2188 133.927C83.9658 133.125 84.9505 132.583 86.0283 132.382C88.9319 132.177 91.8526 132.075 94.7732 131.955C97.378 131.977 99.906 132.84 101.981 134.414C102.61 135.002 103.009 135.795 103.108 136.65C103.328 137.915 103.471 139.192 103.535 140.475L101.879 145.46Z" fill="#F7F7F7"/>
<path d="M142.939 189.474C142.939 189.115 142.939 188.671 142.819 188.432C140.787 185.82 138.72 183.311 136.671 180.664C137.063 179.64 137.49 180.033 137.952 180.664C140.035 183.328 142.136 185.974 144.203 188.654C144.989 189.679 145.586 190.84 146.44 191.813C147.498 193.053 148.805 194.058 150.276 194.761C151.748 195.464 153.35 195.85 154.98 195.893C159.746 196.064 164.494 195.893 169.259 195.893H213.958C219.082 195.893 222.498 193.196 225.282 189.064C226.447 187.165 227.761 185.361 229.21 183.669C233.361 179.111 237.494 174.484 241.952 170.233C246 166.391 250.492 162.925 254.813 159.46C257.717 157.155 260.826 155.123 263.866 153.006C264.634 152.477 265.574 152.067 266.325 151.606L267.555 152.016L263.456 154.901C262.864 155.112 262.293 155.374 261.748 155.687C248.612 164.519 236.995 175.423 227.349 187.971C227.05 188.47 226.815 189.003 226.648 189.559C225.538 190.788 224.462 192.035 223.232 193.247C222.06 194.476 220.646 195.448 219.079 196.103C217.513 196.759 215.827 197.082 214.129 197.054C194.623 197.054 175.101 197.174 155.595 197.054C153.505 197.061 151.445 196.565 149.587 195.608C147.729 194.651 146.128 193.262 144.92 191.557C144.302 190.824 143.64 190.128 142.939 189.474Z" fill="#DDDFE0"/>
<path d="M56.3943 84.0826C52.6026 84.4411 48.8108 84.8338 45.019 85.1582C42.884 85.346 42.252 84.7485 42.0471 82.546C41.7567 79.3705 41.4663 76.1949 41.1077 72.4389C43.1914 75.0852 45.5826 74.6413 47.9397 74.334C50.2967 74.0267 52.8929 73.8559 55.3866 73.6169L55.9332 75.6657L56.3943 84.0826Z" fill="#FACDA5"/>
<path d="M36.4961 91.3557C36.8035 91.1679 37.3842 90.963 37.3672 90.7752C37.2305 88.3338 37.0426 85.8923 36.7694 83.468C36.6517 83.0369 36.3696 82.6691 35.9837 82.4436C34.2757 81.2656 33.6608 80.0705 34.2757 78.6022C34.8906 77.1339 35.9324 76.451 38.2041 76.7413C38.5286 80.429 38.8531 84.1509 39.1947 87.8557C39.2312 88.6732 39.3111 89.4881 39.4338 90.2972C39.5021 90.9539 39.7037 91.5897 40.0265 92.1657C40.3492 92.7418 40.7862 93.2458 41.3108 93.6471C41.8353 94.0483 42.4363 94.3382 43.0769 94.4991C43.7175 94.6599 44.3842 94.6883 45.0361 94.5825C46.5392 94.4971 48.0251 94.3605 49.5111 94.241L49.1182 97.9117L48.9987 97.9971H48.845H37.9479C37.6917 96.2898 37.5038 94.7191 37.1793 93.0971C37.0211 92.4917 36.7918 91.9072 36.4961 91.3557Z" fill="#F4CDA7"/>
<path d="M59.7079 238.917C61.4159 238.917 63.1239 238.917 64.9344 238.917C65.2418 238.917 65.5322 239.463 65.8226 239.754C65.5664 239.993 65.3273 240.402 65.0198 240.471C64.1764 240.724 63.3038 240.867 62.4236 240.898C49.4428 240.898 36.4676 240.898 23.4982 240.898C22.5494 240.869 21.6081 240.72 20.697 240.454C20.4932 240.438 20.304 240.342 20.1711 240.186C20.0381 240.031 19.9724 239.829 19.9882 239.626C20.0041 239.422 20.1003 239.233 20.2556 239.1C20.411 238.967 20.6128 238.901 20.8166 238.917C22.61 238.746 24.4205 238.661 26.2139 238.542C25.9748 239.361 26.3164 239.668 27.1191 239.668C30.9109 239.668 34.7198 239.668 38.5116 239.668C38.819 239.668 39.1264 239.088 39.4168 238.763C39.4589 238.738 39.4946 238.703 39.5212 238.662C39.5479 238.62 39.5647 238.573 39.5705 238.524H46.1463C46.1463 239.515 46.5904 239.771 47.5298 239.771C51.1337 239.771 54.7376 239.771 58.3415 239.771C58.8027 239.651 59.2467 239.173 59.7079 238.917Z" fill="#D3CED0"/>
<path d="M230.713 61L235.308 69.2633C234.438 70.3524 233.634 71.4926 232.9 72.6779C232.182 73.9413 231.721 75.3413 230.918 76.7071C229.552 73.9925 229.04 70.8511 225.914 69.0926C228.481 67.0992 230.196 64.2074 230.713 61V61Z" fill="#FFCA22"/>
<path d="M95.2685 108.804C94.2688 109.477 93.2046 110.049 92.0917 110.512C90.4144 111.148 88.6541 111.539 86.8652 111.672C86.0624 111.672 85.1571 110.46 84.3715 109.794L89.9396 104.809C90.3419 104.294 90.9023 103.924 91.5347 103.758C92.1672 103.591 92.8368 103.637 93.441 103.887C94.1455 104.162 94.7287 104.68 95.0856 105.346C95.4425 106.013 95.5498 106.785 95.3881 107.524C95.3269 107.948 95.287 108.376 95.2685 108.804Z" fill="#F8D1AD"/>
<path d="M18.7328 156.301C20.6628 155.294 21.2436 155.345 22.3538 157.24C23.3483 158.964 24.2325 160.749 25.0012 162.584C25.1833 162.878 25.3049 163.205 25.3588 163.546C25.4127 163.888 25.3979 164.236 25.3151 164.572C25.2324 164.907 25.0834 165.223 24.877 165.5C24.6706 165.778 24.4108 166.011 24.113 166.186C23.1176 166.681 21.9762 166.796 20.902 166.511C20.3044 166.209 19.8176 165.726 19.5109 165.131C19.2041 164.537 19.0932 163.86 19.1939 163.199C19.0915 160.979 18.8865 158.76 18.7328 156.301Z" fill="#F8D1AD"/>
<path d="M59.7079 238.917C59.2467 239.173 58.8026 239.651 58.3415 239.651C54.7376 239.651 51.1337 239.651 47.5298 239.651C46.5904 239.651 46.0951 239.395 46.1463 238.405L46.283 235.895H52.8929C53.9861 236.356 55.0963 236.766 56.1894 237.244C57.2825 237.722 58.5294 238.354 59.7079 238.917Z" fill="#331F00"/>
<path d="M39.4168 238.746C39.1264 239.071 38.819 239.651 38.5115 239.651C34.7198 239.651 30.9109 239.651 27.1191 239.651C26.3164 239.651 25.9748 239.344 26.2139 238.524L29.442 237.21L32.7214 235.929H39.2118L39.4168 238.746Z" fill="#331F00"/>
<path d="M266.291 140.611L267.999 145.887L264.72 147.235C264.344 147.116 263.763 147.116 263.627 146.86C262.739 145.153 261.919 143.445 261.099 141.738L266.291 140.611Z" fill="#BABABA"/>
<path d="M101.879 145.46L103.587 140.475L108.608 141.789L105.192 147.474L101.879 145.46Z" fill="#BABABA"/>
<path d="M121.111 165.384L113.732 159.665L112.024 158.35C112.673 158.35 113.459 158.247 113.92 158.572C116.106 160.125 118.224 161.73 120.188 163.438C120.735 163.899 120.837 164.735 121.111 165.384Z" fill="#ECECEC"/>
<path d="M239.27 104.912L239.168 105.081L239.27 104.912Z" fill="#ECECEC"/>
<path d="M230.013 107.251C231.465 111.997 232.234 116.931 237.118 119.646C232.251 122.258 231.482 127.277 230.013 132.058C228.493 127.345 227.776 122.292 222.822 119.646C227.793 117.068 228.459 112.014 230.013 107.251Z" fill="#FFCA22"/>
<path d="M220.004 225.908H217.955H213.428H212.199C211.652 225.908 211.123 225.908 210.491 225.908H162.41C160.019 225.908 157.628 225.908 155.254 225.908H154.349H151.496C151.351 225.72 151.165 225.568 150.951 225.463C150.738 225.358 150.504 225.304 150.266 225.304C150.029 225.304 149.795 225.358 149.581 225.463C149.368 225.568 149.182 225.72 149.037 225.908H146.167C145.421 225.471 144.572 225.241 143.708 225.241C142.843 225.241 141.994 225.471 141.248 225.908H140.018C139.506 225.686 139.011 225.276 138.515 225.276C132.116 225.276 125.711 225.276 119.3 225.276C118.791 225.356 118.296 225.511 117.831 225.737L115.064 225.754C114.706 224.559 114.074 224.832 113.356 225.447L105.209 224.149C107.378 222.715 109.65 221.486 111.648 219.778C115.022 217.024 119.249 215.528 123.604 215.544C129.548 215.459 135.56 215.544 141.419 215.544C172.971 215.544 204.513 215.544 236.042 215.544C240.398 215.544 244.77 215.544 249.126 215.834C252.264 216.147 255.238 217.39 257.666 219.403C259.835 221.11 262.141 222.51 264.378 224.047L256.966 225.378C255.941 225.822 256.863 225.737 256.094 225.668L220.004 225.908Z" fill="#192E32"/>
<path d="M140.445 209.978C141.452 209.156 142.501 208.386 143.588 207.674C145.816 206.243 148.139 204.966 150.54 203.849C152.326 203.023 154.26 202.565 156.227 202.501C174.793 202.398 193.359 202.501 211.925 202.501C216.309 202.583 220.57 203.961 224.172 206.461C226.093 207.65 227.915 208.992 229.62 210.474H140.684L140.445 209.978Z" fill="#E2E2E2"/>
<path d="M226.563 189.559C226.73 189.003 226.965 188.47 227.263 187.971C236.909 175.423 248.526 164.519 261.663 155.687C262.207 155.374 262.779 155.112 263.371 154.901C264.498 158.828 265.642 162.738 266.787 166.664C267.106 167.783 267.161 168.961 266.948 170.104C266.734 171.248 266.258 172.326 265.557 173.255C263.913 175.846 261.438 177.802 258.537 178.803C249.929 181.66 241.332 184.506 232.746 187.34C230.611 187.971 228.596 188.791 226.563 189.559ZM237.802 182.918V183.225C238.337 183.204 238.869 183.13 239.39 183.003C245.983 180.818 252.61 178.701 259.152 176.345C263.2 174.894 265.096 171.513 264.788 166.835C264.361 167.791 264.054 168.542 263.712 169.242C263.143 170.589 262.299 171.802 261.235 172.805C260.17 173.807 258.908 174.577 257.529 175.064C250.885 177.523 244.378 180.289 237.802 182.918Z" fill="#1B2E32"/>
<path d="M242.482 205.932C245.556 204.054 248.494 202.227 251.449 200.435L264.412 192.615C267.282 190.908 268.904 191.352 270.493 194.323C272.979 199.134 274.062 204.547 273.619 209.944C273.459 211.434 272.905 212.855 272.013 214.059C270.267 216.104 267.956 217.589 265.369 218.327C264.711 218.523 264.017 218.563 263.341 218.445C262.665 218.326 262.026 218.052 261.475 217.644C255.292 213.905 249.092 210.217 242.892 206.496C242.739 206.32 242.602 206.131 242.482 205.932Z" fill="#BABABA"/>
<path d="M127.43 206.12L119.813 210.661C115.543 213.188 111.273 215.783 106.968 218.208C106.279 218.551 105.485 218.618 104.748 218.395C101.68 217.629 98.9966 215.771 97.1986 213.171C96.7247 212.493 96.4095 211.717 96.2763 210.9C95.594 205.135 96.6843 199.299 99.402 194.169C100.956 191.42 102.818 191.027 105.482 192.684L123.604 203.713L127.43 206.12Z" fill="#BABABA"/>
<path d="M101.947 179.486C101.527 179.967 101.057 180.402 100.546 180.784C98.4284 182.081 96.2592 183.345 94.1071 184.574C93.7294 184.715 93.3316 184.796 92.9286 184.813C93.8966 183.928 94.9301 183.118 96.0201 182.389C97.933 181.313 99.9656 180.442 101.947 179.486Z" fill="#ECECEC"/>
<path d="M263.866 177.506C266.498 178.195 268.94 179.474 271.005 181.245C268.405 180.474 265.98 179.204 263.866 177.506Z" fill="#ECECEC"/>
<path d="M101.947 179.486C102.818 178.445 103.535 178.137 105.602 177.95L105.739 178.342L101.947 179.486Z" fill="#ECECEC"/>
<path d="M275.344 184.386L273.772 183.276L274.08 182.798L275.788 183.857L275.344 184.386Z" fill="#ECECEC"/>
<path d="M272.901 182.713L271.757 181.962L272.013 181.518L273.277 182.167L272.901 182.713Z" fill="#ECECEC"/>
<path d="M92.1088 185.632L92.9286 184.813L92.1088 185.632Z" fill="#ECECEC"/>
<path d="M37.9479 97.9629H48.7766L45.651 116.06C44.797 110.938 44.1821 105.953 45.651 100.865C44.997 100.404 44.2205 100.149 43.4206 100.13C42.6206 100.112 41.8333 100.332 41.1589 100.763C41.5222 102.791 41.773 104.837 41.9105 106.892C41.9105 109.538 41.7226 112.185 41.5688 114.831C41.5011 115.49 41.3985 116.146 41.2614 116.794L38.392 100.558C38.2041 99.6873 38.1016 98.8336 37.9479 97.9629Z" fill="#F3F0F0"/>
<path d="M41.2956 116.794C41.4384 116.146 41.5467 115.491 41.6201 114.831C41.7738 112.185 42.013 109.538 41.9617 106.892C41.8243 104.837 41.5734 102.791 41.2102 100.763C41.8846 100.332 42.6719 100.112 43.4718 100.13C44.2718 100.149 45.0482 100.404 45.7023 100.865C44.1992 105.987 44.8141 111.007 45.7023 116.06L43.5672 128.677H43.2256L41.2956 116.794Z" fill="#990000"/>
<path d="M39.5363 192.649V194.647V197.584C39.5363 198.249 39.4168 198.932 39.4168 199.598V233.283C39.4168 233.812 39.4168 234.359 39.5363 234.99L39.4168 235.707C39.3752 235.683 39.3281 235.671 39.2801 235.671C39.2322 235.671 39.185 235.683 39.1435 235.707C38.9719 235.07 38.8575 234.419 38.8019 233.761C38.8019 220.444 38.8019 207.116 38.8019 193.776C38.8626 193.128 38.9885 192.487 39.1776 191.864L39.5363 192.649Z" fill="#18262A"/>
<path d="M39.5363 192.649L39.2118 191.779L39.2972 188.928C39.6217 190.14 40.2708 191.352 39.5363 192.649Z" fill="#ECECEC"/>
<path d="M130.436 182.798C130.04 182.803 129.645 182.762 129.258 182.679C123.314 180.715 117.387 178.684 111.426 176.755C109.787 176.262 108.312 175.333 107.159 174.066C106.007 172.8 105.221 171.245 104.885 169.567C104.852 169.3 104.852 169.031 104.885 168.764C104.885 168.645 105.038 168.542 105.312 168.167C105.711 168.679 106.071 169.221 106.388 169.789C106.945 170.982 107.738 172.05 108.718 172.93C109.698 173.81 110.846 174.484 112.092 174.911C117.9 177.096 123.621 179.486 129.377 181.74L130.624 182.252L130.436 182.798Z" fill="#DBE3E6"/>
<path d="M140.07 226.044L118.737 226.181L117.883 225.856C118.347 225.631 118.842 225.476 119.351 225.395C125.762 225.395 132.167 225.395 138.567 225.395C139.062 225.412 139.557 225.822 140.07 226.044Z" fill="#18262A"/>
<path d="M113.356 225.447C114.04 224.832 114.672 224.559 115.064 225.754L113.356 225.447Z" fill="#18262A"/>
<path d="M146.218 225.976H141.299C142.045 225.539 142.894 225.309 143.759 225.309C144.623 225.309 145.472 225.539 146.218 225.976Z" fill="#18262A"/>
<path d="M151.547 225.89H149.088C149.233 225.703 149.419 225.551 149.633 225.446C149.846 225.341 150.08 225.287 150.318 225.287C150.555 225.287 150.789 225.341 151.003 225.446C151.216 225.551 151.402 225.703 151.547 225.89Z" fill="#18262A"/>
<path d="M237.802 182.918C244.378 180.289 250.885 177.523 257.529 175.064C258.899 174.571 260.151 173.798 261.206 172.796C262.261 171.794 263.097 170.584 263.661 169.242C264.003 168.525 264.31 167.791 264.737 166.835C265.044 171.513 263.149 174.894 259.101 176.345C252.559 178.701 245.932 180.818 239.339 183.003C238.818 183.13 238.286 183.204 237.75 183.225L237.802 182.918Z" fill="#DBE3E6"/>
<path d="M39.5704 197.584C39.7937 198.33 39.9425 199.096 40.0145 199.871C40.0145 211.253 40.0145 222.635 40.0145 234.017V234.837H39.5704C39.5704 234.29 39.4509 233.744 39.4509 233.129V199.513C39.4509 198.847 39.5363 198.164 39.5704 197.584Z" fill="#FCFCFC"/>
<rect x="0.5" y="0.5" width="302" height="409" rx="9.5" stroke="#EBEBEB"/>
</svg>
