<svg width="303" height="410" viewBox="0 0 303 410" fill="none" xmlns="http://www.w3.org/2000/svg">
<rect x="0.5" y="0.5" width="302" height="409" rx="9.5" fill="white"/>
<path d="M41.8068 309V297.48H46.2888C47.5008 297.48 48.4548 297.756 49.1508 298.308C49.8588 298.848 50.2128 299.598 50.2128 300.558C50.2128 301.146 50.0808 301.656 49.8168 302.088C49.5528 302.508 49.1568 302.838 48.6288 303.078C49.2768 303.306 49.7628 303.654 50.0868 304.122C50.4108 304.578 50.5728 305.142 50.5728 305.814C50.5728 306.81 50.2188 307.59 49.5108 308.154C48.8028 308.718 47.8368 309 46.6128 309H41.8068ZM48.5928 300.684C48.5928 300.084 48.3888 299.628 47.9808 299.316C47.5848 299.004 46.9968 298.848 46.2168 298.848H43.3908V302.484H46.2168C46.9848 302.484 47.5728 302.334 47.9808 302.034C48.3888 301.722 48.5928 301.272 48.5928 300.684ZM48.9528 305.706C48.9528 305.094 48.7428 304.626 48.3228 304.302C47.9028 303.966 47.3028 303.798 46.5228 303.798H43.3908V307.632H46.5228C47.3028 307.632 47.9028 307.47 48.3228 307.146C48.7428 306.81 48.9528 306.33 48.9528 305.706ZM62.7515 305.508H64.3535C64.1735 306.612 63.6815 307.5 62.8775 308.172C62.0855 308.844 61.1195 309.18 59.9795 309.18C58.6835 309.18 57.6155 308.754 56.7755 307.902C55.9355 307.038 55.5155 305.94 55.5155 304.608C55.5155 303.276 55.9355 302.184 56.7755 301.332C57.6155 300.468 58.6835 300.036 59.9795 300.036C61.1195 300.036 62.0855 300.372 62.8775 301.044C63.6815 301.704 64.1735 302.592 64.3535 303.708H62.7515C62.5955 303 62.2715 302.442 61.7795 302.034C61.2875 301.626 60.6875 301.422 59.9795 301.422C59.1155 301.422 58.4195 301.716 57.8915 302.304C57.3635 302.88 57.0995 303.648 57.0995 304.608C57.0995 305.568 57.3635 306.342 57.8915 306.93C58.4195 307.506 59.1155 307.794 59.9795 307.794C60.6875 307.794 61.2875 307.59 61.7795 307.182C62.2715 306.774 62.5955 306.216 62.7515 305.508ZM65.8318 309H65.4718V307.614H65.6698C65.9938 307.614 66.2338 307.542 66.3898 307.398C66.5578 307.254 66.6538 307.014 66.6778 306.678L67.1098 300.216H74.2018V309H72.6358V301.53H68.4778L68.0818 306.84C68.0338 307.584 67.8238 308.13 67.4518 308.478C67.0918 308.826 66.5518 309 65.8318 309ZM79.7986 309.594L80.0866 308.892H79.5106L75.8926 300.216H77.5306L80.5906 307.65L83.5786 300.216H85.1806L81.1126 310.08C80.7646 310.944 80.3506 311.55 79.8706 311.898C79.3906 312.246 78.6946 312.42 77.7826 312.42H76.6846V311.034H77.7106C78.3106 311.034 78.7486 310.932 79.0246 310.728C79.3126 310.524 79.5706 310.146 79.7986 309.594ZM90.2912 305.238C90.7232 305.238 91.1372 305.196 91.5332 305.112C91.9412 305.028 92.3192 304.902 92.6672 304.734V300.216H94.2332V309H92.6672V306.066C92.2712 306.258 91.8452 306.402 91.3892 306.498C90.9452 306.594 90.4892 306.642 90.0212 306.642C88.8572 306.642 87.9452 306.354 87.2852 305.778C86.6372 305.202 86.3132 304.386 86.3132 303.33V300.216H87.8612V303.078C87.8612 303.81 88.0592 304.356 88.4552 304.716C88.8632 305.064 89.4752 305.238 90.2912 305.238ZM105.58 300.216V309H104.446L104.176 307.614C103.78 308.118 103.3 308.508 102.736 308.784C102.172 309.048 101.554 309.18 100.882 309.18C99.6337 309.18 98.5897 308.748 97.7497 307.884C96.9097 307.02 96.4897 305.928 96.4897 304.608C96.4897 303.288 96.9097 302.196 97.7497 301.332C98.5897 300.468 99.6337 300.036 100.882 300.036C101.554 300.036 102.172 300.174 102.736 300.45C103.3 300.714 103.78 301.098 104.176 301.602L104.446 300.216H105.58ZM101.098 307.794C101.986 307.794 102.712 307.5 103.276 306.912C103.852 306.312 104.14 305.544 104.14 304.608C104.14 303.672 103.852 302.91 103.276 302.322C102.712 301.722 101.986 301.422 101.098 301.422C100.21 301.422 99.4837 301.722 98.9197 302.322C98.3557 302.91 98.0737 303.672 98.0737 304.608C98.0737 305.544 98.3557 306.312 98.9197 306.912C99.4837 307.5 100.21 307.794 101.098 307.794ZM115.225 306.066H116.755C116.551 306.99 116.065 307.74 115.297 308.316C114.541 308.892 113.605 309.18 112.489 309.18C111.133 309.18 110.023 308.754 109.159 307.902C108.295 307.038 107.869 305.934 107.881 304.59C107.881 303.246 108.295 302.154 109.123 301.314C109.963 300.462 111.055 300.036 112.399 300.036C113.683 300.036 114.733 300.438 115.549 301.242C116.377 302.046 116.791 303.084 116.791 304.356C116.791 304.428 116.785 304.524 116.773 304.644C116.773 304.752 116.767 304.866 116.755 304.986H109.411C109.495 305.874 109.813 306.576 110.365 307.092C110.917 307.596 111.625 307.848 112.489 307.848C113.185 307.848 113.767 307.692 114.235 307.38C114.715 307.056 115.045 306.618 115.225 306.066ZM112.363 301.35C111.559 301.35 110.899 301.566 110.383 301.998C109.879 302.43 109.567 303.042 109.447 303.834H115.279C115.219 303.078 114.919 302.478 114.379 302.034C113.839 301.578 113.167 301.35 112.363 301.35ZM128.81 305.508H130.412C130.232 306.612 129.74 307.5 128.936 308.172C128.144 308.844 127.178 309.18 126.038 309.18C124.742 309.18 123.674 308.754 122.834 307.902C121.994 307.038 121.574 305.94 121.574 304.608C121.574 303.276 121.994 302.184 122.834 301.332C123.674 300.468 124.742 300.036 126.038 300.036C127.178 300.036 128.144 300.372 128.936 301.044C129.74 301.704 130.232 302.592 130.412 303.708H128.81C128.654 303 128.33 302.442 127.838 302.034C127.346 301.626 126.746 301.422 126.038 301.422C125.174 301.422 124.478 301.716 123.95 302.304C123.422 302.88 123.158 303.648 123.158 304.608C123.158 305.568 123.422 306.342 123.95 306.93C124.478 307.506 125.174 307.794 126.038 307.794C126.746 307.794 127.346 307.59 127.838 307.182C128.33 306.774 128.654 306.216 128.81 305.508ZM139.342 306.066H140.872C140.668 306.99 140.182 307.74 139.414 308.316C138.658 308.892 137.722 309.18 136.606 309.18C135.25 309.18 134.14 308.754 133.276 307.902C132.412 307.038 131.986 305.934 131.998 304.59C131.998 303.246 132.412 302.154 133.24 301.314C134.08 300.462 135.172 300.036 136.516 300.036C137.8 300.036 138.85 300.438 139.666 301.242C140.494 302.046 140.908 303.084 140.908 304.356C140.908 304.428 140.902 304.524 140.89 304.644C140.89 304.752 140.884 304.866 140.872 304.986H133.528C133.612 305.874 133.93 306.576 134.482 307.092C135.034 307.596 135.742 307.848 136.606 307.848C137.302 307.848 137.884 307.692 138.352 307.38C138.832 307.056 139.162 306.618 139.342 306.066ZM136.48 301.35C135.676 301.35 135.016 301.566 134.5 301.998C133.996 302.43 133.684 303.042 133.564 303.834H139.396C139.336 303.078 139.036 302.478 138.496 302.034C137.956 301.578 137.284 301.35 136.48 301.35ZM143.192 312.42V300.216H144.308L144.596 301.584C144.98 301.092 145.454 300.714 146.018 300.45C146.594 300.174 147.212 300.036 147.872 300.036C149.12 300.036 150.164 300.468 151.004 301.332C151.844 302.196 152.264 303.288 152.264 304.608C152.264 305.928 151.844 307.02 151.004 307.884C150.164 308.748 149.12 309.18 147.872 309.18C147.236 309.18 146.648 309.06 146.108 308.82C145.568 308.568 145.112 308.208 144.74 307.74V312.42H143.192ZM147.656 301.422C146.768 301.422 146.036 301.722 145.46 302.322C144.896 302.91 144.614 303.672 144.614 304.608C144.614 305.544 144.896 306.312 145.46 306.912C146.036 307.5 146.768 307.794 147.656 307.794C148.556 307.794 149.288 307.5 149.852 306.912C150.416 306.312 150.698 305.544 150.698 304.608C150.698 303.672 150.416 302.91 149.852 302.322C149.288 301.722 148.556 301.422 147.656 301.422ZM154.548 309V300.216H156.096V303.132H159.192C160.236 303.132 161.064 303.396 161.676 303.924C162.288 304.452 162.594 305.166 162.594 306.066C162.594 306.966 162.288 307.68 161.676 308.208C161.064 308.736 160.236 309 159.192 309H154.548ZM161.046 306.066C161.046 305.538 160.884 305.136 160.56 304.86C160.248 304.584 159.792 304.446 159.192 304.446H156.096V307.686H159.192C159.792 307.686 160.248 307.548 160.56 307.272C160.884 306.996 161.046 306.594 161.046 306.066ZM171.422 306.066H172.952C172.748 306.99 172.262 307.74 171.494 308.316C170.738 308.892 169.802 309.18 168.686 309.18C167.33 309.18 166.22 308.754 165.356 307.902C164.492 307.038 164.066 305.934 164.078 304.59C164.078 303.246 164.492 302.154 165.32 301.314C166.16 300.462 167.252 300.036 168.596 300.036C169.88 300.036 170.93 300.438 171.746 301.242C172.574 302.046 172.988 303.084 172.988 304.356C172.988 304.428 172.982 304.524 172.97 304.644C172.97 304.752 172.964 304.866 172.952 304.986H165.608C165.692 305.874 166.01 306.576 166.562 307.092C167.114 307.596 167.822 307.848 168.686 307.848C169.382 307.848 169.964 307.692 170.432 307.38C170.912 307.056 171.242 306.618 171.422 306.066ZM168.56 301.35C167.756 301.35 167.096 301.566 166.58 301.998C166.076 302.43 165.764 303.042 165.644 303.834H171.476C171.416 303.078 171.116 302.478 170.576 302.034C170.036 301.578 169.364 301.35 168.56 301.35ZM180.852 304.482C181.416 304.674 181.848 304.95 182.148 305.31C182.448 305.67 182.598 306.09 182.598 306.57C182.598 307.35 182.232 307.98 181.5 308.46C180.768 308.94 179.814 309.18 178.638 309.18C177.426 309.18 176.436 308.922 175.668 308.406C174.912 307.878 174.504 307.176 174.444 306.3H176.046C176.094 306.816 176.34 307.212 176.784 307.488C177.228 307.752 177.846 307.884 178.638 307.884C179.406 307.884 179.994 307.764 180.402 307.524C180.822 307.284 181.032 306.942 181.032 306.498C181.032 306.054 180.846 305.718 180.474 305.49C180.102 305.262 179.562 305.148 178.854 305.148H176.946V303.942H178.692C179.352 303.942 179.856 303.834 180.204 303.618C180.564 303.39 180.744 303.066 180.744 302.646C180.744 302.238 180.552 301.92 180.168 301.692C179.784 301.452 179.25 301.332 178.566 301.332C177.81 301.332 177.222 301.464 176.802 301.728C176.394 301.992 176.16 302.382 176.1 302.898H174.498C174.57 302.01 174.972 301.314 175.704 300.81C176.436 300.294 177.396 300.036 178.584 300.036C179.712 300.036 180.612 300.27 181.284 300.738C181.968 301.194 182.31 301.806 182.31 302.574C182.31 303.006 182.184 303.384 181.932 303.708C181.68 304.032 181.32 304.29 180.852 304.482ZM184.923 309V300.216H186.471V303.834H191.565V300.216H193.113V309H191.565V305.148H186.471V309H184.923ZM200.01 300.036C201.366 300.036 202.476 300.462 203.34 301.314C204.204 302.166 204.636 303.264 204.636 304.608C204.636 305.952 204.204 307.05 203.34 307.902C202.476 308.754 201.366 309.18 200.01 309.18C198.666 309.18 197.562 308.754 196.698 307.902C195.834 307.05 195.402 305.952 195.402 304.608C195.402 303.264 195.834 302.166 196.698 301.314C197.562 300.462 198.666 300.036 200.01 300.036ZM200.01 307.794C200.91 307.794 201.642 307.5 202.206 306.912C202.77 306.324 203.052 305.556 203.052 304.608C203.052 303.66 202.77 302.892 202.206 302.304C201.642 301.716 200.91 301.422 200.01 301.422C199.11 301.422 198.378 301.716 197.814 302.304C197.25 302.892 196.968 303.66 196.968 304.608C196.968 305.556 197.25 306.324 197.814 306.912C198.378 307.5 199.11 307.794 200.01 307.794ZM206.896 309V300.216H212.908L212.422 301.53H208.444V309H206.896ZM218.344 300.036C219.7 300.036 220.81 300.462 221.674 301.314C222.538 302.166 222.97 303.264 222.97 304.608C222.97 305.952 222.538 307.05 221.674 307.902C220.81 308.754 219.7 309.18 218.344 309.18C217 309.18 215.896 308.754 215.032 307.902C214.168 307.05 213.736 305.952 213.736 304.608C213.736 303.264 214.168 302.166 215.032 301.314C215.896 300.462 217 300.036 218.344 300.036ZM218.344 307.794C219.244 307.794 219.976 307.5 220.54 306.912C221.104 306.324 221.386 305.556 221.386 304.608C221.386 303.66 221.104 302.892 220.54 302.304C219.976 301.716 219.244 301.422 218.344 301.422C217.444 301.422 216.712 301.716 216.148 302.304C215.584 302.892 215.302 303.66 215.302 304.608C215.302 305.556 215.584 306.324 216.148 306.912C216.712 307.5 217.444 307.794 218.344 307.794ZM228.88 311.88H227.296V307.56H228.448C228.64 307.308 228.796 306.978 228.916 306.57C229.036 306.15 229.132 305.622 229.204 304.986L230.104 297.48H237.862V307.56H239.176V311.88H237.574V309H228.88V311.88ZM231.49 298.92L230.77 304.932C230.698 305.508 230.608 306.012 230.5 306.444C230.404 306.876 230.278 307.248 230.122 307.56H236.278V298.92H231.49ZM244.394 298.938H240.11V297.48H250.28V298.938H245.996V309H244.394V298.938ZM252.322 309V297.48H262.186V309H260.584V298.92H253.906V309H252.322ZM47.4549 331.594L47.7429 330.892H47.1669L43.5489 322.216H45.1869L48.2469 329.65L51.2349 322.216H52.8369L48.7689 332.08C48.4209 332.944 48.0069 333.55 47.5269 333.898C47.0469 334.246 46.3509 334.42 45.4389 334.42H44.3409V333.034H45.3669C45.9669 333.034 46.4049 332.932 46.6809 332.728C46.9689 332.524 47.2269 332.146 47.4549 331.594ZM60.9058 327.508H62.5078C62.3278 328.612 61.8358 329.5 61.0318 330.172C60.2398 330.844 59.2738 331.18 58.1338 331.18C56.8378 331.18 55.7698 330.754 54.9298 329.902C54.0898 329.038 53.6698 327.94 53.6698 326.608C53.6698 325.276 54.0898 324.184 54.9298 323.332C55.7698 322.468 56.8378 322.036 58.1338 322.036C59.2738 322.036 60.2398 322.372 61.0318 323.044C61.8358 323.704 62.3278 324.592 62.5078 325.708H60.9058C60.7498 325 60.4258 324.442 59.9338 324.034C59.4418 323.626 58.8418 323.422 58.1338 323.422C57.2698 323.422 56.5738 323.716 56.0458 324.304C55.5178 324.88 55.2538 325.648 55.2538 326.608C55.2538 327.568 55.5178 328.342 56.0458 328.93C56.5738 329.506 57.2698 329.794 58.1338 329.794C58.8418 329.794 59.4418 329.59 59.9338 329.182C60.4258 328.774 60.7498 328.216 60.9058 327.508ZM66.956 323.53H63.554V322.216H71.942V323.53H68.522V331H66.956V323.53ZM82.1305 322.216V331H80.9965L80.7265 329.614C80.3305 330.118 79.8505 330.508 79.2865 330.784C78.7225 331.048 78.1045 331.18 77.4325 331.18C76.1845 331.18 75.1405 330.748 74.3005 329.884C73.4605 329.02 73.0405 327.928 73.0405 326.608C73.0405 325.288 73.4605 324.196 74.3005 323.332C75.1405 322.468 76.1845 322.036 77.4325 322.036C78.1045 322.036 78.7225 322.174 79.2865 322.45C79.8505 322.714 80.3305 323.098 80.7265 323.602L80.9965 322.216H82.1305ZM77.6485 329.794C78.5365 329.794 79.2625 329.5 79.8265 328.912C80.4025 328.312 80.6905 327.544 80.6905 326.608C80.6905 325.672 80.4025 324.91 79.8265 324.322C79.2625 323.722 78.5365 323.422 77.6485 323.422C76.7605 323.422 76.0345 323.722 75.4705 324.322C74.9065 324.91 74.6245 325.672 74.6245 326.608C74.6245 327.544 74.9065 328.312 75.4705 328.912C76.0345 329.5 76.7605 329.794 77.6485 329.794ZM85.0439 331V322.216H86.5919V325.834H91.6859V322.216H93.2339V331H91.6859V327.148H86.5919V331H85.0439ZM100.131 322.036C101.487 322.036 102.597 322.462 103.461 323.314C104.325 324.166 104.757 325.264 104.757 326.608C104.757 327.952 104.325 329.05 103.461 329.902C102.597 330.754 101.487 331.18 100.131 331.18C98.7873 331.18 97.6833 330.754 96.8193 329.902C95.9553 329.05 95.5233 327.952 95.5233 326.608C95.5233 325.264 95.9553 324.166 96.8193 323.314C97.6833 322.462 98.7873 322.036 100.131 322.036ZM100.131 329.794C101.031 329.794 101.763 329.5 102.327 328.912C102.891 328.324 103.173 327.556 103.173 326.608C103.173 325.66 102.891 324.892 102.327 324.304C101.763 323.716 101.031 323.422 100.131 323.422C99.2313 323.422 98.4993 323.716 97.9353 324.304C97.3713 324.892 97.0893 325.66 97.0893 326.608C97.0893 327.556 97.3713 328.324 97.9353 328.912C98.4993 329.5 99.2313 329.794 100.131 329.794ZM107.017 331V322.216H111.607C112.579 322.216 113.341 322.426 113.893 322.846C114.457 323.266 114.739 323.848 114.739 324.592C114.739 325.024 114.643 325.396 114.451 325.708C114.271 326.02 114.001 326.266 113.641 326.446C114.109 326.638 114.463 326.908 114.703 327.256C114.943 327.604 115.063 328.024 115.063 328.516C115.063 329.296 114.781 329.908 114.217 330.352C113.653 330.784 112.885 331 111.913 331H107.017ZM113.191 324.7C113.191 324.28 113.053 323.962 112.777 323.746C112.501 323.53 112.093 323.422 111.553 323.422H108.547V325.924H111.553C112.093 325.924 112.501 325.822 112.777 325.618C113.053 325.402 113.191 325.096 113.191 324.7ZM113.515 328.426C113.515 328.006 113.371 327.688 113.083 327.472C112.795 327.244 112.375 327.13 111.823 327.13H108.547V329.758H111.823C112.375 329.758 112.795 329.644 113.083 329.416C113.371 329.188 113.515 328.858 113.515 328.426ZM117.423 331V322.216H118.971V325.816H120.411L123.669 322.216H125.397V322.306L121.671 326.428L125.595 330.91V331H123.723L120.357 327.166H118.971V331H117.423ZM130.054 331.594L130.342 330.892H129.766L126.148 322.216H127.786L130.846 329.65L133.834 322.216H135.436L131.368 332.08C131.02 332.944 130.606 333.55 130.126 333.898C129.646 334.246 128.95 334.42 128.038 334.42H126.94V333.034H127.966C128.566 333.034 129.004 332.932 129.28 332.728C129.568 332.524 129.826 332.146 130.054 331.594ZM140.292 331V322.216H141.84V325.834H146.934V322.216H148.482V331H146.934V327.148H141.84V331H140.292ZM155.379 322.036C156.735 322.036 157.845 322.462 158.709 323.314C159.573 324.166 160.005 325.264 160.005 326.608C160.005 327.952 159.573 329.05 158.709 329.902C157.845 330.754 156.735 331.18 155.379 331.18C154.035 331.18 152.931 330.754 152.067 329.902C151.203 329.05 150.771 327.952 150.771 326.608C150.771 325.264 151.203 324.166 152.067 323.314C152.931 322.462 154.035 322.036 155.379 322.036ZM155.379 329.794C156.279 329.794 157.011 329.5 157.575 328.912C158.139 328.324 158.421 327.556 158.421 326.608C158.421 325.66 158.139 324.892 157.575 324.304C157.011 323.716 156.279 323.422 155.379 323.422C154.479 323.422 153.747 323.716 153.183 324.304C152.619 324.892 152.337 325.66 152.337 326.608C152.337 327.556 152.619 328.324 153.183 328.912C153.747 329.5 154.479 329.794 155.379 329.794ZM162.265 331V322.216H166.855C167.827 322.216 168.589 322.426 169.141 322.846C169.705 323.266 169.987 323.848 169.987 324.592C169.987 325.024 169.891 325.396 169.699 325.708C169.519 326.02 169.249 326.266 168.889 326.446C169.357 326.638 169.711 326.908 169.951 327.256C170.191 327.604 170.311 328.024 170.311 328.516C170.311 329.296 170.029 329.908 169.465 330.352C168.901 330.784 168.133 331 167.161 331H162.265ZM168.439 324.7C168.439 324.28 168.301 323.962 168.025 323.746C167.749 323.53 167.341 323.422 166.801 323.422H163.795V325.924H166.801C167.341 325.924 167.749 325.822 168.025 325.618C168.301 325.402 168.439 325.096 168.439 324.7ZM168.763 328.426C168.763 328.006 168.619 327.688 168.331 327.472C168.043 327.244 167.623 327.13 167.071 327.13H163.795V329.758H167.071C167.623 329.758 168.043 329.644 168.331 329.416C168.619 329.188 168.763 328.858 168.763 328.426ZM176.649 322.036C178.005 322.036 179.115 322.462 179.979 323.314C180.843 324.166 181.275 325.264 181.275 326.608C181.275 327.952 180.843 329.05 179.979 329.902C179.115 330.754 178.005 331.18 176.649 331.18C175.305 331.18 174.201 330.754 173.337 329.902C172.473 329.05 172.041 327.952 172.041 326.608C172.041 325.264 172.473 324.166 173.337 323.314C174.201 322.462 175.305 322.036 176.649 322.036ZM176.649 329.794C177.549 329.794 178.281 329.5 178.845 328.912C179.409 328.324 179.691 327.556 179.691 326.608C179.691 325.66 179.409 324.892 178.845 324.304C178.281 323.716 177.549 323.422 176.649 323.422C175.749 323.422 175.017 323.716 174.453 324.304C173.889 324.892 173.607 325.66 173.607 326.608C173.607 327.556 173.889 328.324 174.453 328.912C175.017 329.5 175.749 329.794 176.649 329.794ZM183.534 331V322.216H185.082V329.164L189.906 322.216H191.724V331H190.176V324.052L185.352 331H183.534ZM187.638 321.28C186.81 321.28 186.162 321.052 185.694 320.596C185.226 320.14 184.992 319.504 184.992 318.688H186.306C186.306 319.204 186.414 319.588 186.63 319.84C186.846 320.092 187.182 320.218 187.638 320.218C188.094 320.218 188.43 320.092 188.646 319.84C188.862 319.588 188.97 319.204 188.97 318.688H190.284C190.284 319.504 190.05 320.14 189.582 320.596C189.114 321.052 188.466 321.28 187.638 321.28ZM197.772 331V322.216H205.962V331H204.414V323.53H199.32V331H197.772ZM208.162 331H207.802V329.614H208C208.324 329.614 208.564 329.542 208.72 329.398C208.888 329.254 208.984 329.014 209.008 328.678L209.44 322.216H216.532V331H214.966V323.53H210.808L210.412 328.84C210.364 329.584 210.154 330.13 209.782 330.478C209.422 330.826 208.882 331 208.162 331ZM226.161 328.066H227.691C227.487 328.99 227.001 329.74 226.233 330.316C225.477 330.892 224.541 331.18 223.425 331.18C222.069 331.18 220.959 330.754 220.095 329.902C219.231 329.038 218.805 327.934 218.817 326.59C218.817 325.246 219.231 324.154 220.059 323.314C220.899 322.462 221.991 322.036 223.335 322.036C224.619 322.036 225.669 322.438 226.485 323.242C227.313 324.046 227.727 325.084 227.727 326.356C227.727 326.428 227.721 326.524 227.709 326.644C227.709 326.752 227.703 326.866 227.691 326.986H220.347C220.431 327.874 220.749 328.576 221.301 329.092C221.853 329.596 222.561 329.848 223.425 329.848C224.121 329.848 224.703 329.692 225.171 329.38C225.651 329.056 225.981 328.618 226.161 328.066ZM223.299 323.35C222.495 323.35 221.835 323.566 221.319 323.998C220.815 324.43 220.503 325.042 220.383 325.834H226.215C226.155 325.078 225.855 324.478 225.315 324.034C224.775 323.578 224.103 323.35 223.299 323.35ZM230.011 331V322.216H231.559V325.834H236.653V322.216H238.201V331H236.653V327.148H231.559V331H230.011ZM241.12 331V322.216H242.668V325.816H244.108L247.366 322.216H249.094V322.306L245.368 326.428L249.292 330.91V331H247.42L244.054 327.166H242.668V331H241.12ZM251.052 331V322.216H252.6V329.164L257.424 322.216H259.242V331H257.694V324.052L252.87 331H251.052ZM55.4126 344.036C56.7686 344.036 57.8786 344.462 58.7426 345.314C59.6066 346.166 60.0386 347.264 60.0386 348.608C60.0386 349.952 59.6066 351.05 58.7426 351.902C57.8786 352.754 56.7686 353.18 55.4126 353.18C54.0686 353.18 52.9646 352.754 52.1006 351.902C51.2366 351.05 50.8046 349.952 50.8046 348.608C50.8046 347.264 51.2366 346.166 52.1006 345.314C52.9646 344.462 54.0686 344.036 55.4126 344.036ZM55.4126 351.794C56.3126 351.794 57.0446 351.5 57.6086 350.912C58.1726 350.324 58.4546 349.556 58.4546 348.608C58.4546 347.66 58.1726 346.892 57.6086 346.304C57.0446 345.716 56.3126 345.422 55.4126 345.422C54.5126 345.422 53.7806 345.716 53.2166 346.304C52.6526 346.892 52.3706 347.66 52.3706 348.608C52.3706 349.556 52.6526 350.324 53.2166 350.912C53.7806 351.5 54.5126 351.794 55.4126 351.794ZM62.2978 353V344.216H70.4878V353H68.9398V345.53H63.8458V353H62.2978ZM72.6872 353H72.3272V351.614H72.5252C72.8492 351.614 73.0892 351.542 73.2452 351.398C73.4132 351.254 73.5092 351.014 73.5332 350.678L73.9652 344.216H81.0572V353H79.4912V345.53H75.3332L74.9372 350.84C74.8892 351.584 74.6792 352.13 74.3072 352.478C73.9472 352.826 73.4072 353 72.6872 353ZM92.3961 344.216V353H91.2621L90.9921 351.614C90.5961 352.118 90.1161 352.508 89.5521 352.784C88.9881 353.048 88.3701 353.18 87.6981 353.18C86.4501 353.18 85.4061 352.748 84.5661 351.884C83.7261 351.02 83.3061 349.928 83.3061 348.608C83.3061 347.288 83.7261 346.196 84.5661 345.332C85.4061 344.468 86.4501 344.036 87.6981 344.036C88.3701 344.036 88.9881 344.174 89.5521 344.45C90.1161 344.714 90.5961 345.098 90.9921 345.602L91.2621 344.216H92.3961ZM87.9141 351.794C88.8021 351.794 89.5281 351.5 90.0921 350.912C90.6681 350.312 90.9561 349.544 90.9561 348.608C90.9561 347.672 90.6681 346.91 90.0921 346.322C89.5281 345.722 88.8021 345.422 87.9141 345.422C87.0261 345.422 86.3001 345.722 85.7361 346.322C85.1721 346.91 84.8901 347.672 84.8901 348.608C84.8901 349.544 85.1721 350.312 85.7361 350.912C86.3001 351.5 87.0261 351.794 87.9141 351.794ZM98.6936 349.238C99.1256 349.238 99.5396 349.196 99.9356 349.112C100.344 349.028 100.722 348.902 101.07 348.734V344.216H102.636V353H101.07V350.066C100.674 350.258 100.248 350.402 99.7916 350.498C99.3476 350.594 98.8916 350.642 98.4236 350.642C97.2596 350.642 96.3476 350.354 95.6876 349.778C95.0396 349.202 94.7156 348.386 94.7156 347.33V344.216H96.2636V347.078C96.2636 347.81 96.4616 348.356 96.8576 348.716C97.2656 349.064 97.8776 349.238 98.6936 349.238ZM105.54 353V344.216H107.088V351.164L111.912 344.216H113.73V353H112.182V346.052L107.358 353H105.54ZM116.649 353V344.216H121.239C122.211 344.216 122.973 344.426 123.525 344.846C124.089 345.266 124.371 345.848 124.371 346.592C124.371 347.024 124.275 347.396 124.083 347.708C123.903 348.02 123.633 348.266 123.273 348.446C123.741 348.638 124.095 348.908 124.335 349.256C124.575 349.604 124.695 350.024 124.695 350.516C124.695 351.296 124.413 351.908 123.849 352.352C123.285 352.784 122.517 353 121.545 353H116.649ZM122.823 346.7C122.823 346.28 122.685 345.962 122.409 345.746C122.133 345.53 121.725 345.422 121.185 345.422H118.179V347.924H121.185C121.725 347.924 122.133 347.822 122.409 347.618C122.685 347.402 122.823 347.096 122.823 346.7ZM123.147 350.426C123.147 350.006 123.003 349.688 122.715 349.472C122.427 349.244 122.007 349.13 121.455 349.13H118.179V351.758H121.455C122.007 351.758 122.427 351.644 122.715 351.416C123.003 351.188 123.147 350.858 123.147 350.426ZM135.498 344.216V353H134.364L134.094 351.614C133.698 352.118 133.218 352.508 132.654 352.784C132.09 353.048 131.472 353.18 130.8 353.18C129.552 353.18 128.508 352.748 127.668 351.884C126.828 351.02 126.408 349.928 126.408 348.608C126.408 347.288 126.828 346.196 127.668 345.332C128.508 344.468 129.552 344.036 130.8 344.036C131.472 344.036 132.09 344.174 132.654 344.45C133.218 344.714 133.698 345.098 134.094 345.602L134.364 344.216H135.498ZM131.016 351.794C131.904 351.794 132.63 351.5 133.194 350.912C133.77 350.312 134.058 349.544 134.058 348.608C134.058 347.672 133.77 346.91 133.194 346.322C132.63 345.722 131.904 345.422 131.016 345.422C130.128 345.422 129.402 345.722 128.838 346.322C128.274 346.91 127.992 347.672 127.992 348.608C127.992 349.544 128.274 350.312 128.838 350.912C129.402 351.5 130.128 351.794 131.016 351.794ZM145.143 350.066H146.673C146.469 350.99 145.983 351.74 145.215 352.316C144.459 352.892 143.523 353.18 142.407 353.18C141.051 353.18 139.941 352.754 139.077 351.902C138.213 351.038 137.787 349.934 137.799 348.59C137.799 347.246 138.213 346.154 139.041 345.314C139.881 344.462 140.973 344.036 142.317 344.036C143.601 344.036 144.651 344.438 145.467 345.242C146.295 346.046 146.709 347.084 146.709 348.356C146.709 348.428 146.703 348.524 146.691 348.644C146.691 348.752 146.685 348.866 146.673 348.986H139.329C139.413 349.874 139.731 350.576 140.283 351.092C140.835 351.596 141.543 351.848 142.407 351.848C143.103 351.848 143.685 351.692 144.153 351.38C144.633 351.056 144.963 350.618 145.143 350.066ZM142.281 345.35C141.477 345.35 140.817 345.566 140.301 345.998C139.797 346.43 139.485 347.042 139.365 347.834H145.197C145.137 347.078 144.837 346.478 144.297 346.034C143.757 345.578 143.085 345.35 142.281 345.35ZM151.243 345.53H147.841V344.216H156.229V345.53H152.809V353H151.243V345.53ZM167.71 349.508H169.312C169.132 350.612 168.64 351.5 167.836 352.172C167.044 352.844 166.078 353.18 164.938 353.18C163.642 353.18 162.574 352.754 161.734 351.902C160.894 351.038 160.474 349.94 160.474 348.608C160.474 347.276 160.894 346.184 161.734 345.332C162.574 344.468 163.642 344.036 164.938 344.036C166.078 344.036 167.044 344.372 167.836 345.044C168.64 345.704 169.132 346.592 169.312 347.708H167.71C167.554 347 167.23 346.442 166.738 346.034C166.246 345.626 165.646 345.422 164.938 345.422C164.074 345.422 163.378 345.716 162.85 346.304C162.322 346.88 162.058 347.648 162.058 348.608C162.058 349.568 162.322 350.342 162.85 350.93C163.378 351.506 164.074 351.794 164.938 351.794C165.646 351.794 166.246 351.59 166.738 351.182C167.23 350.774 167.554 350.216 167.71 349.508ZM173.761 345.53H170.359V344.216H178.747V345.53H175.327V353H173.761V345.53ZM180.493 356.42V344.216H181.609L181.897 345.584C182.281 345.092 182.755 344.714 183.319 344.45C183.895 344.174 184.513 344.036 185.173 344.036C186.421 344.036 187.465 344.468 188.305 345.332C189.145 346.196 189.565 347.288 189.565 348.608C189.565 349.928 189.145 351.02 188.305 351.884C187.465 352.748 186.421 353.18 185.173 353.18C184.537 353.18 183.949 353.06 183.409 352.82C182.869 352.568 182.413 352.208 182.041 351.74V356.42H180.493ZM184.957 345.422C184.069 345.422 183.337 345.722 182.761 346.322C182.197 346.91 181.915 347.672 181.915 348.608C181.915 349.544 182.197 350.312 182.761 350.912C183.337 351.5 184.069 351.794 184.957 351.794C185.857 351.794 186.589 351.5 187.153 350.912C187.717 350.312 187.999 349.544 187.999 348.608C187.999 347.672 187.717 346.91 187.153 346.322C186.589 345.722 185.857 345.422 184.957 345.422ZM200.291 344.216V353H199.157L198.887 351.614C198.491 352.118 198.011 352.508 197.447 352.784C196.883 353.048 196.265 353.18 195.593 353.18C194.345 353.18 193.301 352.748 192.461 351.884C191.621 351.02 191.201 349.928 191.201 348.608C191.201 347.288 191.621 346.196 192.461 345.332C193.301 344.468 194.345 344.036 195.593 344.036C196.265 344.036 196.883 344.174 197.447 344.45C198.011 344.714 198.491 345.098 198.887 345.602L199.157 344.216H200.291ZM195.809 351.794C196.697 351.794 197.423 351.5 197.987 350.912C198.563 350.312 198.851 349.544 198.851 348.608C198.851 347.672 198.563 346.91 197.987 346.322C197.423 345.722 196.697 345.422 195.809 345.422C194.921 345.422 194.195 345.722 193.631 346.322C193.067 346.91 192.785 347.672 192.785 348.608C192.785 349.544 193.067 350.312 193.631 350.912C194.195 351.5 194.921 351.794 195.809 351.794ZM203.798 353H202.034L205.724 348.446L202.304 344.216H204.176L206.75 347.402L209.324 344.216H211.106L207.632 348.5L211.286 353H209.414L206.606 349.526L203.798 353ZM216.551 344.036C217.907 344.036 219.017 344.462 219.881 345.314C220.745 346.166 221.177 347.264 221.177 348.608C221.177 349.952 220.745 351.05 219.881 351.902C219.017 352.754 217.907 353.18 216.551 353.18C215.207 353.18 214.103 352.754 213.239 351.902C212.375 351.05 211.943 349.952 211.943 348.608C211.943 347.264 212.375 346.166 213.239 345.314C214.103 344.462 215.207 344.036 216.551 344.036ZM216.551 351.794C217.451 351.794 218.183 351.5 218.747 350.912C219.311 350.324 219.593 349.556 219.593 348.608C219.593 347.66 219.311 346.892 218.747 346.304C218.183 345.716 217.451 345.422 216.551 345.422C215.651 345.422 214.919 345.716 214.355 346.304C213.791 346.892 213.509 347.66 213.509 348.608C213.509 349.556 213.791 350.324 214.355 350.912C214.919 351.5 215.651 351.794 216.551 351.794ZM223.437 353V344.216H228.027C228.999 344.216 229.761 344.426 230.313 344.846C230.877 345.266 231.159 345.848 231.159 346.592C231.159 347.024 231.063 347.396 230.871 347.708C230.691 348.02 230.421 348.266 230.061 348.446C230.529 348.638 230.883 348.908 231.123 349.256C231.363 349.604 231.483 350.024 231.483 350.516C231.483 351.296 231.201 351.908 230.637 352.352C230.073 352.784 229.305 353 228.333 353H223.437ZM229.611 346.7C229.611 346.28 229.473 345.962 229.197 345.746C228.921 345.53 228.513 345.422 227.973 345.422H224.967V347.924H227.973C228.513 347.924 228.921 347.822 229.197 347.618C229.473 347.402 229.611 347.096 229.611 346.7ZM229.935 350.426C229.935 350.006 229.791 349.688 229.503 349.472C229.215 349.244 228.795 349.13 228.243 349.13H224.967V351.758H228.243C228.795 351.758 229.215 351.644 229.503 351.416C229.791 351.188 229.935 350.858 229.935 350.426ZM242.285 344.216V353H241.151L240.881 351.614C240.485 352.118 240.005 352.508 239.441 352.784C238.877 353.048 238.259 353.18 237.587 353.18C236.339 353.18 235.295 352.748 234.455 351.884C233.615 351.02 233.195 349.928 233.195 348.608C233.195 347.288 233.615 346.196 234.455 345.332C235.295 344.468 236.339 344.036 237.587 344.036C238.259 344.036 238.877 344.174 239.441 344.45C240.005 344.714 240.485 345.098 240.881 345.602L241.151 344.216H242.285ZM237.803 351.794C238.691 351.794 239.417 351.5 239.981 350.912C240.557 350.312 240.845 349.544 240.845 348.608C240.845 347.672 240.557 346.91 239.981 346.322C239.417 345.722 238.691 345.422 237.803 345.422C236.915 345.422 236.189 345.722 235.625 346.322C235.061 346.91 234.779 347.672 234.779 348.608C234.779 349.544 235.061 350.312 235.625 350.912C236.189 351.5 236.915 351.794 237.803 351.794ZM248.294 349.94L246.224 353H244.514L246.728 349.778C246.02 349.598 245.474 349.274 245.09 348.806C244.718 348.338 244.532 347.762 244.532 347.078C244.532 346.178 244.844 345.476 245.468 344.972C246.092 344.468 246.956 344.216 248.06 344.216H252.56V353H251.03V349.94H248.294ZM246.116 347.096C246.116 347.6 246.278 347.99 246.602 348.266C246.938 348.53 247.418 348.662 248.042 348.662H251.03V345.512H248.042C247.418 345.512 246.938 345.65 246.602 345.926C246.278 346.19 246.116 346.58 246.116 347.096ZM109.495 375V366.216H111.043V369.816H112.483L115.741 366.216H117.469V366.306L113.743 370.428L117.667 374.91V375H115.795L112.429 371.166H111.043V375H109.495ZM122.86 366.036C124.216 366.036 125.326 366.462 126.19 367.314C127.054 368.166 127.486 369.264 127.486 370.608C127.486 371.952 127.054 373.05 126.19 373.902C125.326 374.754 124.216 375.18 122.86 375.18C121.516 375.18 120.412 374.754 119.548 373.902C118.684 373.05 118.252 371.952 118.252 370.608C118.252 369.264 118.684 368.166 119.548 367.314C120.412 366.462 121.516 366.036 122.86 366.036ZM122.86 373.794C123.76 373.794 124.492 373.5 125.056 372.912C125.62 372.324 125.902 371.556 125.902 370.608C125.902 369.66 125.62 368.892 125.056 368.304C124.492 367.716 123.76 367.422 122.86 367.422C121.96 367.422 121.228 367.716 120.664 368.304C120.1 368.892 119.818 369.66 119.818 370.608C119.818 371.556 120.1 372.324 120.664 372.912C121.228 373.5 121.96 373.794 122.86 373.794ZM135.273 374.28H133.887L131.367 368.322L130.557 375H129.171L130.161 366.216H131.943L134.607 372.606L137.253 366.216H139.017L140.025 375H138.585L137.793 368.232L135.273 374.28ZM142.454 375V366.216H150.644V375H149.096V367.53H144.002V375H142.454ZM162.005 366.216V375H160.871L160.601 373.614C160.205 374.118 159.725 374.508 159.161 374.784C158.597 375.048 157.979 375.18 157.307 375.18C156.059 375.18 155.015 374.748 154.175 373.884C153.335 373.02 152.915 371.928 152.915 370.608C152.915 369.288 153.335 368.196 154.175 367.332C155.015 366.468 156.059 366.036 157.307 366.036C157.979 366.036 158.597 366.174 159.161 366.45C159.725 366.714 160.205 367.098 160.601 367.602L160.871 366.216H162.005ZM157.523 373.794C158.411 373.794 159.137 373.5 159.701 372.912C160.277 372.312 160.565 371.544 160.565 370.608C160.565 369.672 160.277 368.91 159.701 368.322C159.137 367.722 158.411 367.422 157.523 367.422C156.635 367.422 155.909 367.722 155.345 368.322C154.781 368.91 154.499 369.672 154.499 370.608C154.499 371.544 154.781 372.312 155.345 372.912C155.909 373.5 156.635 373.794 157.523 373.794ZM164.919 375V366.216H166.467V369.834H171.561V366.216H173.109V375H171.561V371.148H166.467V375H164.919ZM176.028 375V366.216H177.576V373.164L182.4 366.216H184.218V375H182.67V368.052L177.846 375H176.028ZM190.234 371.94L188.164 375H186.454L188.668 371.778C187.96 371.598 187.414 371.274 187.03 370.806C186.658 370.338 186.472 369.762 186.472 369.078C186.472 368.178 186.784 367.476 187.408 366.972C188.032 366.468 188.896 366.216 190 366.216H194.5V375H192.97V371.94H190.234ZM188.056 369.096C188.056 369.6 188.218 369.99 188.542 370.266C188.878 370.53 189.358 370.662 189.982 370.662H192.97V367.512H189.982C189.358 367.512 188.878 367.65 188.542 367.926C188.218 368.19 188.056 368.58 188.056 369.096Z" fill="black"/>
<g clip-path="url(#clip0)">
<path d="M206.891 42.3637C200.873 50.4302 192.681 55.401 183.651 55.401C169.135 55.401 156.783 42.5832 152.153 24.6734C150.889 19.785 149.508 19.785 148.241 24.6734C143.61 42.5832 131.259 55.401 116.743 55.401C107.71 55.401 99.5208 50.4302 93.5028 42.3637C93.4341 45.2293 93.3936 51.1694 93.3936 51.1694V120.723C93.3936 154.453 140.247 183.139 150.196 183.139C160.145 183.139 207 154.446 207 120.723V51.1694C207 51.1694 206.958 45.231 206.891 42.3637Z" fill="url(#paint0_linear)"/>
<path style="mix-blend-mode:color-burn" d="M206.891 42.3636C204.821 45.1728 202.361 47.6753 199.586 49.7962C199.586 50.6303 199.597 51.1728 199.597 51.1728V120.723C199.597 151.285 161.114 177.716 146.496 182.401C148.008 182.886 149.265 183.138 150.198 183.138C160.148 183.138 207.002 154.453 207.002 120.723V51.1693C207.002 51.1693 206.958 45.231 206.891 42.3636Z" fill="url(#paint1_linear)"/>
<g style="mix-blend-mode:color-burn">
<path d="M118.89 129.161C125.039 127.391 130.593 123.996 134.962 119.337C139.332 114.678 142.356 108.928 143.712 102.697C145.069 96.466 144.708 89.9854 142.668 83.9418C140.628 77.8983 136.985 72.517 132.124 68.368C131.597 67.9184 130.985 67.5767 130.325 67.3625C129.664 67.1483 128.968 67.0657 128.276 67.1195C127.583 67.1733 126.908 67.3624 126.289 67.6761C125.67 67.9897 125.119 68.4217 124.668 68.9475C124.217 69.4732 123.874 70.0824 123.659 70.7401C123.443 71.3979 123.361 72.0914 123.415 72.7811C123.469 73.4708 123.658 74.1432 123.973 74.7598C124.288 75.3764 124.722 75.9252 125.25 76.3748C129.937 80.3694 132.969 85.9545 133.758 92.0483C134.548 98.1421 133.039 104.311 129.524 109.36C126.009 114.409 120.738 117.979 114.731 119.379C108.725 120.778 102.411 119.908 97.0125 116.935C95.7381 116.233 94.5272 115.423 93.3936 114.512V120.732C93.3989 122.899 93.5906 125.063 93.9665 127.198C98.6634 129.412 103.794 130.562 108.99 130.566C112.34 130.564 115.673 130.091 118.89 129.161ZM113.898 70.8666C114.134 70.9141 114.368 70.965 114.603 71.0194C115.969 71.3361 117.405 71.0992 118.596 70.361C119.787 69.6227 120.634 68.4435 120.952 67.0828C121.27 65.722 121.032 64.2912 120.291 63.1051C119.55 61.919 118.366 61.0748 117 60.7581C116.666 60.6809 116.332 60.6089 115.997 60.5421C115.312 60.394 114.605 60.3828 113.916 60.5094C113.227 60.6359 112.57 60.8976 111.983 61.2793C111.396 61.6609 110.892 62.1549 110.498 62.7325C110.105 63.3101 109.831 63.9599 109.692 64.644C109.552 65.3281 109.551 66.0329 109.688 66.7174C109.825 67.402 110.097 68.0527 110.488 68.6317C110.879 69.2106 111.382 69.7064 111.968 70.0901C112.553 70.4737 113.209 70.7377 113.898 70.8666ZM108.257 75.4495C108.25 71.1317 106.778 66.943 104.079 63.5641C101.38 60.1852 97.614 57.8145 93.3918 56.8373V68.0485C94.6959 68.8002 95.7785 69.8803 96.5311 71.1804C97.2838 72.4805 97.68 73.9548 97.68 75.4556C97.68 76.9564 97.2838 78.4308 96.5311 79.7308C95.7785 81.0309 94.6959 82.111 93.3918 82.8627V94.0757C97.6158 93.0984 101.384 90.7266 104.083 87.3459C106.782 83.9651 108.254 79.7743 108.259 75.4547L108.257 75.4495ZM194.954 106.969C194.957 110.745 196.082 114.436 198.186 117.577C200.291 120.718 203.282 123.169 206.781 124.621C206.921 123.326 206.993 122.025 206.996 120.723V111.757C206.038 110.343 205.526 108.675 205.526 106.969C205.526 105.263 206.038 103.595 206.996 102.181V89.233C203.443 90.6569 200.398 93.1062 198.252 96.2665C196.106 99.4268 194.958 103.154 194.954 106.969ZM204.314 73.0667C184.627 73.0667 168.611 89.0205 168.611 108.63C168.611 126.78 182.336 141.788 199.988 143.923C201.938 140.672 203.543 137.227 204.777 133.644C204.622 133.644 204.469 133.658 204.314 133.658C190.46 133.658 179.188 122.421 179.188 108.63C179.188 94.8395 190.46 83.6019 204.314 83.6019C205.211 83.604 206.108 83.6532 207 83.7494V73.1774C206.112 73.1124 205.218 73.0667 204.314 73.0667ZM163.931 135.927C164.282 136.17 164.603 136.453 164.888 136.77C164.434 136.275 163.898 135.864 163.302 135.553C162.689 135.215 162.014 135.002 161.318 134.926C160.621 134.85 159.917 134.913 159.245 135.111C158.573 135.308 157.947 135.637 157.404 136.078C156.86 136.518 156.41 137.062 156.08 137.678C155.749 138.293 155.545 138.968 155.478 139.662C155.412 140.357 155.485 141.058 155.692 141.725C155.9 142.391 156.239 143.01 156.689 143.545C157.139 144.08 157.691 144.521 158.313 144.841L158.336 144.854C158.386 144.883 158.435 144.913 158.488 144.941C159.276 145.39 160.169 145.626 161.077 145.626C162.22 145.626 163.332 145.258 164.247 144.576C165.162 143.894 165.83 142.935 166.152 141.843C166.474 140.75 166.432 139.584 166.033 138.517C165.633 137.451 164.898 136.542 163.936 135.927H163.931ZM174.582 152.219C173.962 152.532 173.411 152.964 172.959 153.489C172.507 154.014 172.163 154.623 171.947 155.281C171.732 155.938 171.648 156.632 171.701 157.322C171.755 158.011 171.944 158.684 172.258 159.301C173.968 162.668 175.105 166.294 175.623 170.031C178.807 167.635 181.862 165.074 184.775 162.36C183.998 159.659 182.965 157.039 181.689 154.534C181.054 153.289 179.948 152.346 178.615 151.913C177.283 151.479 175.832 151.591 174.582 152.223V152.219ZM163.931 135.927C163.824 135.853 163.73 135.795 163.661 135.751C163.755 135.813 163.841 135.872 163.931 135.93V135.927ZM146.956 130.308C145.629 130.15 144.271 130.05 142.918 130.01C137.015 129.819 131.133 130.796 125.611 132.884C120.09 134.972 115.039 138.131 110.751 142.176C108.321 144.457 106.153 147 104.286 149.758C106.493 152.735 108.888 155.57 111.456 158.244C114.515 152.728 119.039 148.159 124.534 145.037C130.028 141.914 136.279 140.36 142.602 140.545C143.64 140.576 144.682 140.654 145.699 140.773C146.393 140.865 147.099 140.818 147.774 140.636C148.45 140.454 149.083 140.14 149.636 139.713C150.189 139.285 150.652 138.752 150.996 138.146C151.341 137.539 151.562 136.869 151.645 136.177C151.728 135.485 151.672 134.783 151.481 134.112C151.29 133.441 150.967 132.815 150.531 132.269C150.094 131.724 149.554 131.27 148.94 130.934C148.327 130.598 147.652 130.387 146.956 130.313V130.308ZM171.014 71.8201C175.783 71.8146 180.38 70.0423 183.91 66.848C187.441 63.6536 189.652 59.2655 190.115 54.5371C186.593 55.5054 182.898 55.6687 179.304 55.0147C178.96 56.2571 178.339 57.4063 177.488 58.3769C176.637 59.3474 175.577 60.1143 174.387 60.6205C173.197 61.1268 171.908 61.3593 170.616 61.3008C169.323 61.2424 168.061 60.8944 166.922 60.2829C165.783 59.6713 164.797 58.8119 164.038 57.7685C163.278 56.7251 162.765 55.5245 162.535 54.2562C162.306 52.9878 162.366 51.6843 162.712 50.4424C163.058 49.2006 163.681 48.0525 164.534 47.0834C161.986 44.5892 159.775 41.7762 157.954 38.715C155.127 41.3266 153.156 44.7263 152.298 48.4705C151.44 52.2147 151.735 56.1296 153.144 59.7043C154.554 63.2791 157.012 66.3477 160.198 68.51C163.385 70.6722 167.151 71.8275 171.007 71.8253L171.014 71.8201Z" fill="#AEAEAF"/>
</g>
<path style="mix-blend-mode:color-burn" d="M98.8405 141.121C111.481 165.251 142.339 183.138 150.198 183.138C156.059 183.138 174.721 173.184 189.071 158.11C190.171 152.14 191.955 139.972 191.456 125.867H103.662C102.521 132.294 100.709 137.312 98.8405 141.121Z" fill="url(#paint2_linear)"/>
<path d="M106.671 113.473C107.926 147.285 95.9602 181.358 70.7566 210.221C69.2618 211.935 69.8876 213.315 72.2161 213.315H146.604C148.93 213.315 152.11 211.933 153.607 210.221C178.814 181.362 190.776 147.289 189.521 113.473H106.671Z" fill="#08B9D6"/>
<g style="mix-blend-mode:color-burn">
<path d="M132.013 181.662C138.035 181.662 140.862 185.612 137.881 190.362C134.901 195.112 127.259 198.855 121.238 198.857C115.216 198.859 113.083 195.115 116.054 190.362C119.024 185.609 125.979 181.651 132.013 181.662Z" fill="#676767"/>
</g>
<g style="mix-blend-mode:color-burn">
<path d="M148.165 120.974C165.204 120.958 179.189 132.975 175.801 147.537C172.509 162.11 153.11 173.446 136.073 173.441C118.939 173.441 110.637 162.109 113.929 147.537C117.314 132.975 131.031 120.958 148.165 120.974Z" fill="#8D8D8D"/>
</g>
<path d="M166.782 149.946L161.544 149.979C160.628 153.115 158.765 156.14 157.004 157.91L150.968 156.553C152.812 154.599 154.73 151.84 155.431 148.796C156.047 146.125 155.174 144.295 152.963 144.309C150.857 144.323 149.276 145.84 147.092 149.315C143.919 154.334 140.071 157.731 134.728 157.766C129.854 157.794 127 154.957 127.057 149.954L121.814 149.99C122.183 148.468 122.523 146.937 122.835 145.396L127.688 145.365C128.491 142.216 129.591 140.086 130.707 138.517L136.73 139.846C135.927 141.075 134.31 143.254 133.591 146.636C132.93 149.684 134.199 150.651 135.754 150.644C137.562 150.63 139.172 148.992 141.747 144.989C145.155 139.37 148.4 137.087 153.381 137.051C158.269 137.015 162.133 139.979 162.156 145.375L167.777 145.338C167.481 146.88 167.149 148.416 166.782 149.946Z" fill="#F4F5F5"/>
<path style="mix-blend-mode:color-burn" d="M186.743 113.473C188.035 148.274 175.32 183.356 148.585 212.734C148.461 212.867 148.326 212.999 148.185 213.129C150.21 212.702 152.427 211.564 153.605 210.218C178.812 181.358 190.774 147.285 189.519 113.469L186.743 113.473Z" fill="url(#paint3_linear)"/>
<g style="mix-blend-mode:color-burn">
<path d="M182.181 113.473C183.166 140.009 176.011 166.704 160.695 190.906C149.743 191.198 136.833 198.227 130.168 206.33H100.76C107.425 198.227 103.082 191.196 92.5368 190.906C107.846 166.697 115.008 140.002 114.023 113.473H111.379C112.376 140.39 104.994 167.471 89.2264 191.96C89.0502 192.241 89.0167 192.51 89.1471 192.704C89.2775 192.899 89.5561 193.005 89.9209 192.994H90.0408C90.1889 192.994 90.3369 192.994 90.485 192.994C100.094 192.985 104.026 199.159 98.1141 206.353C97.8903 206.625 97.6347 206.918 97.3068 207.271C97.0494 207.549 96.9543 207.812 97.0406 208.01C97.127 208.209 97.3773 208.323 97.7457 208.323H129.902C130.331 208.309 130.752 208.202 131.135 208.01C131.513 207.843 131.847 207.59 132.108 207.271C132.369 206.92 132.593 206.625 132.814 206.353C138.728 199.154 150.45 192.985 160.088 192.994C160.235 192.994 160.377 192.994 160.522 192.994H160.638C161.04 192.992 161.436 192.892 161.791 192.704C162.144 192.535 162.447 192.279 162.673 191.96C178.44 167.476 185.822 140.395 184.825 113.473H182.181Z" fill="#424243"/>
</g>
<path style="mix-blend-mode:multiply" d="M189.519 113.473H106.671C107.926 147.285 95.9602 181.358 70.7566 210.221C69.2618 211.935 69.8876 213.315 72.2161 213.315H146.604C148.014 213.315 149.72 212.809 151.187 212.035L151.229 212.014C151.453 211.893 151.67 211.768 151.879 211.636L151.95 211.592C152.144 211.469 152.329 211.343 152.505 211.211L152.56 211.173C152.736 211.037 152.912 210.899 153.067 210.757L153.168 210.663C153.321 210.524 153.467 210.376 153.605 210.221C178.809 181.358 190.774 147.285 189.519 113.473Z" fill="url(#paint4_linear)"/>
<path d="M150.198 63.046C141.945 63.046 136.344 69.4391 136.344 69.4391V82.5993C136.344 88.9942 142.546 95.4979 150.198 95.4979C157.85 95.4979 164.048 89.0012 164.048 82.5993V69.4391C164.048 69.4391 158.447 63.046 150.198 63.046Z" fill="#082947"/>
<path d="M149.052 85.3631C148.489 85.3605 147.95 85.1357 147.554 84.738L142.186 79.3088C141.99 79.1113 141.836 78.8774 141.731 78.6204C141.626 78.3634 141.573 78.0883 141.575 77.8109C141.577 77.5334 141.634 77.2591 141.742 77.0035C141.85 76.7479 142.008 76.5161 142.206 76.3212C142.405 76.1264 142.639 75.9724 142.897 75.8679C143.155 75.7635 143.432 75.7107 143.71 75.7126C143.989 75.7145 144.264 75.771 144.521 75.8789C144.777 75.9868 145.01 76.1439 145.206 76.3414L149.084 80.2658L156.94 72.5558C157.139 72.3612 157.374 72.2074 157.632 72.1033C157.89 71.9991 158.166 71.9467 158.445 71.9489C158.723 71.9511 158.999 72.0079 159.255 72.1161C159.511 72.2243 159.744 72.3818 159.939 72.5795C160.135 72.7772 160.289 73.0113 160.394 73.2685C160.498 73.5256 160.551 73.8008 160.549 74.0782C160.546 74.3556 160.489 74.6299 160.381 74.8854C160.272 75.1408 160.114 75.3725 159.916 75.5671L150.552 84.7591C150.151 85.1485 149.612 85.3654 149.052 85.3631Z" fill="#F4F5F5"/>
<path d="M119.35 106.16C109.822 106.16 102.05 114.899 101.611 125.871H175.999C176.436 114.895 184.208 106.16 193.737 106.16H119.35Z" fill="url(#paint5_linear)"/>
<g style="mix-blend-mode:color-burn">
<path style="mix-blend-mode:color-burn" d="M119.35 106.16C109.822 106.16 102.05 114.899 101.611 125.871H175.999C176.436 114.895 184.208 106.16 193.737 106.16H119.35Z" fill="url(#paint6_linear)"/>
</g>
<path d="M175.997 125.867H193.737V106.16C184.208 106.16 176.436 114.895 175.997 125.867Z" fill="#F58725"/>
<path d="M92.0398 207.682C92.7943 207.977 94.6839 209.132 94.5305 209.654C94.3648 210.223 93.9436 210.128 93.175 209.815C92.4064 209.503 89.4856 207.663 89.4856 207.663C89.4856 207.663 91.1813 207.345 92.0398 207.682Z" fill="url(#paint7_linear)"/>
<path d="M72.8753 196.885C75.0629 199.168 85.2409 207.229 87.1782 209.527C88.4755 211.064 88.3997 212.224 91.3964 213.173C92.454 213.508 94.1057 214.101 94.6892 214.114C95.7679 214.137 96.6987 213.571 96.4008 213.485L94.9553 213.073C93.5169 212.66 93.7338 207.011 89.4909 207.664C87.0865 205.837 84.765 204.086 82.4981 200.604C80.2312 197.122 78.4544 194.689 76.6176 193.022C75.1493 191.686 71.4405 188.706 71.273 190.959C71.0209 194.388 71.2395 195.182 72.8753 196.885Z" fill="url(#paint8_linear)"/>
<path d="M72.2655 184.907C72.2655 184.907 71.2819 189.036 71.2731 190.968C71.2731 192.343 74.0934 194.48 75.2745 194.404C76.4555 194.329 77.7494 190.513 78.673 186.929C79.3834 184.178 72.6498 184.503 72.2655 184.907Z" fill="url(#paint9_linear)"/>
<path d="M75.3714 171.218C72.4276 175.632 69.26 187.632 69.26 187.632C69.26 187.632 70.7407 189.816 74.0969 190.629C77.1571 191.37 78.7153 190.717 78.7153 190.717C78.7153 190.717 85.9425 175.265 89.6725 170.384C90.8588 168.835 92.6497 165.165 91.2695 162.567C85.5953 162.108 79.2529 165.397 75.3714 171.218Z" fill="url(#paint10_linear)"/>
<path d="M107.626 278.659C107.626 278.659 99.8188 276.63 99.2512 276.449C98.6237 276.249 97.6295 275.89 97.5026 277.948C97.3757 280.006 97.2981 280.651 97.2981 280.651C97.2981 280.651 106.346 280.703 107.321 280.598C108.296 280.492 109.066 279.762 107.626 278.659Z" fill="#091B2A"/>
<path d="M101.017 229.744C102.879 234.599 102.202 239.463 101.844 247.229C101.486 254.995 100.547 277.274 100.547 277.274C100.198 277.48 99.7987 277.584 99.3938 277.574C99.0073 277.556 98.6281 277.463 98.278 277.299C98.278 277.299 98.0066 271.769 96.8432 268.168C95.6798 264.567 94.4864 245.84 93.5786 241.303C92.6708 236.766 89.556 229.16 94.8019 228.559C100.048 227.959 100.688 228.873 101.017 229.744Z" fill="url(#paint11_linear)"/>
<path d="M97.083 163.98C98.4332 159.727 100.497 156.563 103 153.591C103.046 153.464 107.957 156.096 110.198 153.917C110.198 153.917 109.406 157.464 107.966 160.144C106.607 162.674 105.322 163.859 103.113 161.696C102.867 163.06 102.7 164.438 102.614 165.822C102.525 168.264 100.795 168.718 99.6495 168.509C98.5037 168.3 95.7098 168.305 97.083 163.98Z" fill="url(#paint12_linear)"/>
<path d="M76.5506 278.287C76.5612 278.106 76.5824 277.926 76.6141 277.748C76.8732 276.307 77.7334 276.609 78.2992 276.789C78.4032 276.823 78.7523 276.918 79.2493 277.051C79.7482 276.918 80.0955 276.823 80.1995 276.789C80.7671 276.614 81.6273 276.307 81.8846 277.748C81.9169 277.926 81.9387 278.106 81.9499 278.287C82.075 280.345 82.1543 280.989 82.1543 280.989C82.1543 280.989 80.8869 280.989 79.2493 281C77.6118 281.011 76.3444 280.989 76.3444 280.989C76.3444 280.989 76.4237 280.342 76.5506 278.287Z" fill="#091B2A"/>
<path d="M87.2558 233.986C85.7997 240.687 80.5327 277.532 80.5327 277.532C80.5327 277.532 80.1238 277.943 79.2494 277.943C78.3293 277.943 78.1266 277.625 78.1266 277.625C78.1266 277.625 77.9503 249.082 77.6806 244.469C77.4109 239.856 76.496 231.3 76.1523 225.272C75.8526 220.004 87.4532 233.066 87.2558 233.986Z" fill="url(#paint13_linear)"/>
<path d="M82.8701 200.625C78.9921 211.687 77.4056 207.043 76.147 211.794C75.0576 215.92 75.4049 233.021 75.4049 233.021C75.4049 233.021 72.7608 239.967 87.0654 239.967C101.37 239.967 103.838 234.418 103.838 234.418C103.838 234.418 102.094 215.206 102.269 209.32C102.443 203.434 97.5907 202.121 97.5907 202.121C97.5907 202.121 97.8639 185.454 86.08 193.412C81.4511 196.546 82.8701 200.625 82.8701 200.625Z" fill="url(#paint14_linear)"/>
<path d="M91.6538 162.532C86.6106 162.245 82.6304 174.068 79.9105 185.962C78.9498 190.16 79.3358 198.193 78.7259 201.679C77.8798 206.537 76.0959 206.96 75.7293 209.815C75.573 210.062 75.5018 210.352 75.5265 210.642C75.6605 211.838 77.7176 213.829 90.5098 213.125C101.449 212.523 102.734 210.063 102.734 210.063C102.627 205.735 100.277 200.757 100.526 198.509C101.985 185.31 107.173 174.041 107.173 174.041C107.399 172.918 107.816 170.818 106.834 168.716C105.935 166.784 103.961 165.146 100.333 163.975C98.4262 163.359 93.7638 162.651 91.6538 162.532Z" fill="#EE4F82"/>
<path d="M112.068 152.623C110.853 156.979 105.121 157.013 103.947 159.612C102.572 162.647 97.1253 171.072 94.4706 174.633C89.5473 181.238 88.0789 184.641 79.3869 187.335C73.5963 189.129 61.548 182.397 64.4424 172.104C66.8204 163.648 74.1551 163.411 78.368 161.994C89.7747 158.163 91.2201 149.542 101.09 147.194C107.286 145.723 112.933 149.529 112.068 152.623Z" fill="url(#paint15_linear)"/>
<path d="M126.284 208.934C127.09 209.009 129.225 209.601 129.223 210.144C129.223 210.737 128.793 210.76 127.964 210.67C127.136 210.581 123.824 209.617 123.824 209.617C123.824 209.617 125.366 208.844 126.284 208.934Z" fill="url(#paint16_linear)"/>
<path d="M104.873 203.826C107.607 205.419 119.623 210.367 122.123 212.043C123.796 213.16 124.044 214.3 127.185 214.386C128.303 214.416 130.048 214.533 130.612 214.386C131.656 214.11 132.394 213.311 132.082 213.311H130.58C129.084 213.311 127.726 207.821 123.824 209.624C121.003 208.528 118.29 207.484 115.146 204.76C112.001 202.037 109.618 200.195 107.39 199.09C105.609 198.213 100.208 197.768 101.079 199.854C102.031 202.111 102.824 202.632 104.873 203.826Z" fill="url(#paint17_linear)"/>
<path d="M99.1647 194.021C99.1647 194.021 100.203 198.137 101.086 199.847C101.717 201.076 105.218 201.663 106.226 201.057C107.234 200.451 106.619 196.479 105.784 192.868C105.142 190.106 99.318 193.486 99.1647 194.021Z" fill="url(#paint18_linear)"/>
<path d="M95.5828 180.448C95.0135 185.716 97.7598 197.821 97.7598 197.821C97.7598 197.821 100.085 199.078 103.439 198.26C106.498 197.51 107.578 196.216 107.578 196.216C107.578 196.216 106.834 179.186 107.892 173.139C108.227 171.221 106.921 167.652 104.493 165.98C99.2387 168.18 96.332 173.5 95.5828 180.448Z" fill="url(#paint19_linear)"/>
<path d="M106.931 156.76C107.372 157.638 107.233 158.593 106.621 158.899C106.009 159.204 105.158 158.742 104.716 157.866C104.273 156.99 104.412 156.033 105.026 155.729C105.639 155.426 106.482 155.886 106.931 156.76Z" fill="url(#paint20_linear)"/>
</g>
<rect x="0.5" y="0.5" width="302" height="409" rx="9.5" stroke="#EBEBEB"/>
<defs>
<linearGradient id="paint0_linear" x1="150.196" y1="28.7224" x2="150.196" y2="165.034" gradientUnits="userSpaceOnUse">
<stop stop-color="#FFC10D"/>
<stop offset="1" stop-color="#F89E22"/>
</linearGradient>
<linearGradient id="paint1_linear" x1="271.077" y1="-43.7809" x2="89.2412" y2="318.147" gradientUnits="userSpaceOnUse">
<stop stop-color="white"/>
<stop offset="0.14" stop-color="#F6F6F6"/>
<stop offset="0.38" stop-color="#DDDDDD"/>
<stop offset="0.68" stop-color="#B4B5B5"/>
<stop offset="1" stop-color="#818282"/>
</linearGradient>
<linearGradient id="paint2_linear" x1="42797.3" y1="51597.7" x2="42797.3" y2="24193.5" gradientUnits="userSpaceOnUse">
<stop stop-color="white"/>
<stop offset="0.14" stop-color="#F6F6F6"/>
<stop offset="0.38" stop-color="#DDDDDD"/>
<stop offset="0.68" stop-color="#B4B5B5"/>
<stop offset="1" stop-color="#818282"/>
</linearGradient>
<linearGradient id="paint3_linear" x1="143.557" y1="151.823" x2="240.362" y2="196.094" gradientUnits="userSpaceOnUse">
<stop stop-color="white"/>
<stop offset="1" stop-color="#B6B6B7"/>
</linearGradient>
<linearGradient id="paint4_linear" x1="123.61" y1="200.738" x2="137.257" y2="136.451" gradientUnits="userSpaceOnUse">
<stop stop-color="white"/>
<stop offset="0.21" stop-color="#F6F6F6"/>
<stop offset="0.57" stop-color="#DDDDDD"/>
<stop offset="1" stop-color="#B6B6B7"/>
</linearGradient>
<linearGradient id="paint5_linear" x1="43831.9" y1="9688.84" x2="43831.9" y2="11972.6" gradientUnits="userSpaceOnUse">
<stop stop-color="#FFC10D"/>
<stop offset="1" stop-color="#F89E22"/>
</linearGradient>
<linearGradient id="paint6_linear" x1="43831.9" y1="11878.6" x2="43831.9" y2="10024.1" gradientUnits="userSpaceOnUse">
<stop stop-color="white"/>
<stop offset="0.14" stop-color="#F6F6F6"/>
<stop offset="0.38" stop-color="#DDDDDD"/>
<stop offset="0.68" stop-color="#B4B5B5"/>
<stop offset="1" stop-color="#818282"/>
</linearGradient>
<linearGradient id="paint7_linear" x1="76.7856" y1="132.453" x2="97.7375" y2="238.002" gradientUnits="userSpaceOnUse">
<stop stop-color="#FAB480"/>
<stop offset="1" stop-color="#EC8846"/>
</linearGradient>
<linearGradient id="paint8_linear" x1="16355.2" y1="10993.7" x2="16355.2" y2="25957.7" gradientUnits="userSpaceOnUse">
<stop stop-color="#FAB480"/>
<stop offset="1" stop-color="#EC8846"/>
</linearGradient>
<linearGradient id="paint9_linear" x1="4042.39" y1="5886.7" x2="4590.31" y2="11989.8" gradientUnits="userSpaceOnUse">
<stop stop-color="#FAB480"/>
<stop offset="1" stop-color="#EC8846"/>
</linearGradient>
<linearGradient id="paint10_linear" x1="83.591" y1="165.836" x2="76.1096" y2="192.321" gradientUnits="userSpaceOnUse">
<stop stop-color="#EE4F82"/>
<stop offset="1" stop-color="#DF2369"/>
</linearGradient>
<linearGradient id="paint11_linear" x1="8230.78" y1="73473.6" x2="8230.78" y2="56395.7" gradientUnits="userSpaceOnUse">
<stop stop-color="#FAB480"/>
<stop offset="1" stop-color="#EC8846"/>
</linearGradient>
<linearGradient id="paint12_linear" x1="3430.73" y1="11331.2" x2="2589.4" y2="12751.2" gradientUnits="userSpaceOnUse">
<stop stop-color="#FAB480"/>
<stop offset="1" stop-color="#EC8846"/>
</linearGradient>
<linearGradient id="paint13_linear" x1="1191.98" y1="80605.3" x2="1191.98" y2="54348.8" gradientUnits="userSpaceOnUse">
<stop stop-color="#FAB480"/>
<stop offset="1" stop-color="#EC8846"/>
</linearGradient>
<linearGradient id="paint14_linear" x1="89.5244" y1="251.614" x2="89.5244" y2="175.492" gradientUnits="userSpaceOnUse">
<stop stop-color="#091E2F"/>
<stop offset="1" stop-color="#082947"/>
</linearGradient>
<linearGradient id="paint15_linear" x1="-17615.4" y1="32687.6" x2="-37290.4" y2="103766" gradientUnits="userSpaceOnUse">
<stop stop-color="#091E2F"/>
<stop offset="1" stop-color="#082947"/>
</linearGradient>
<linearGradient id="paint16_linear" x1="6560.03" y1="-2618.87" x2="7059.83" y2="-1646.72" gradientUnits="userSpaceOnUse">
<stop stop-color="#FAB480"/>
<stop offset="1" stop-color="#EC8846"/>
</linearGradient>
<linearGradient id="paint17_linear" x1="37215.7" y1="-15170" x2="41699.3" y2="-6449.17" gradientUnits="userSpaceOnUse">
<stop stop-color="#FAB480"/>
<stop offset="1" stop-color="#EC8846"/>
</linearGradient>
<linearGradient id="paint18_linear" x1="9645.65" y1="-4642.54" x2="12859.9" y2="376.954" gradientUnits="userSpaceOnUse">
<stop stop-color="#FAB480"/>
<stop offset="1" stop-color="#EC8846"/>
</linearGradient>
<linearGradient id="paint19_linear" x1="3057.29" y1="28193.3" x2="519.574" y2="31612.3" gradientUnits="userSpaceOnUse">
<stop stop-color="#EE4F82"/>
<stop offset="1" stop-color="#DF2369"/>
</linearGradient>
<linearGradient id="paint20_linear" x1="792.178" y1="2670.78" x2="594.819" y2="2971.64" gradientUnits="userSpaceOnUse">
<stop stop-color="#FAB480"/>
<stop offset="1" stop-color="#EC8846"/>
</linearGradient>
<clipPath id="clip0">
<rect width="143" height="260" fill="white" transform="translate(64 21)"/>
</clipPath>
</defs>
</svg>
